<svg width="160" height="160" viewBox="0 0 160 160" fill="none" xmlns="http://www.w3.org/2000/svg">
<path d="M140.648 121.817C140.671 121.435 140.651 121.051 140.586 120.673C140.092 117.726 137.734 115.896 134.423 115.896C133.209 115.912 132.004 116.106 130.846 116.471L130.274 116.663L120.004 125.382C117.789 125.616 115.285 125.83 112.459 126.016C110.466 126.152 108.17 126.217 105.63 126.217C98.0982 126.217 89.438 125.645 81.0673 125.092C73.5876 124.601 66.5567 124.136 61.051 124.136C59.1272 124.119 57.2039 124.201 55.2884 124.38C55.038 124.406 54.7973 124.439 54.5339 124.471L54.4103 124.487C54.1469 124.526 53.8965 124.559 53.5973 124.611L53.4868 124.63L53.1616 124.689L52.2185 124.874L52.1827 124.91C48.2803 125.905 44.3128 128.487 45.3534 134.952C46.3941 141.417 49.116 153.19 49.5811 155.183C49.6786 156.268 50.1365 157.29 50.8819 158.084C52.0656 159.356 53.8087 160 56.0851 160C57.1526 159.986 58.2164 159.872 59.2624 159.658C60.2426 159.474 61.207 159.214 62.1469 158.881C65.425 157.697 66.7778 155.902 67.3274 154.484C69.5258 154.351 72.0006 154.286 74.8721 154.286C79.1681 154.286 83.6786 154.429 88.4559 154.572C93.2884 154.725 98.2868 154.878 103.09 154.878C112.736 154.878 119.76 154.227 125.204 152.822C129.337 151.756 132.56 150.266 135.058 148.269C140.784 143.671 141.119 126.13 140.648 121.817Z" fill="white"/>
<path d="M131.845 119.545C131.845 119.545 136.938 117.841 137.52 121.307C138.102 124.774 129.27 128.683 129.27 128.683L124.249 125.99L131.845 119.545Z" fill="#B02025"/>
<path d="M148.665 43.0995C148.579 42.8002 148.455 42.5137 148.294 42.2475L148.199 42.0914C148.043 41.8642 147.864 41.6528 147.666 41.4605L147.598 41.4019C147.528 41.3319 147.454 41.2657 147.377 41.2036L146.7 40.6735H146.593C146.593 40.6735 146.492 40.319 146.44 40.2962L146.245 40.1954C145.899 40.0373 145.54 39.91 145.172 39.8149L145.094 39.7987L144.993 39.7727C144.698 39.7132 144.401 39.6687 144.102 39.6393H143.855C143.663 39.6087 143.466 39.6529 143.305 39.7629H143.156C143.042 39.6263 142.925 39.6328 142.749 39.6426C142.573 39.6523 142.424 39.6653 142.245 39.6849C142.066 39.7044 141.978 39.7141 141.822 39.7369L141.582 39.7694C141.518 39.776 141.455 39.7868 141.393 39.8019C141.11 39.8507 140.827 39.906 140.538 39.9678L140.414 39.9938C139.695 40.1564 138.983 40.3548 138.356 40.5239L137.887 40.6507L137.318 40.8036L137.23 40.8231L137.143 40.8458C137.1 40.8321 137.057 40.8223 137.012 40.8166V40.6084L136.362 39.9905C136.252 39.8442 136.138 39.7076 136.037 39.584C135.987 39.5249 135.934 39.4684 135.878 39.4149C135.734 39.2653 135.595 39.1255 135.468 39.0149C135.413 38.9622 135.355 38.9123 135.295 38.8653C135.133 38.7288 134.97 38.6052 134.84 38.5141L134.681 38.4036C134.451 38.2533 134.21 38.1217 133.959 38.0101C133.21 37.6638 132.36 37.6014 131.569 37.8344L131.048 38.0101L130.795 38.2344C130.453 38.4926 130.176 38.8266 129.985 39.2101L129.91 39.3759C129.478 40.4328 129.585 41.7401 130.463 45.5158L128.671 46.1792C127.925 46.0565 127.17 45.9945 126.414 45.9938C123.487 45.9938 121.139 46.8816 119.874 48.4036C118.989 48.8337 118.157 49.3663 117.396 49.9905C116.934 50.1141 116.531 50.2117 116.177 50.2832L115.884 50.3418L115.634 50.3775C114.401 49.7271 111.065 46.4036 109.455 43.9645C107.705 41.3076 104.749 40.7873 102.482 40.5694C102.541 40.4393 102.593 40.306 102.658 40.1564C102.684 40.0849 102.713 40.0133 102.743 39.9385C102.821 39.7206 102.895 39.5027 102.957 39.2881C103.608 37.08 103.517 34.6409 102.71 32.0296L102.921 32.2865L102.521 30.8621C102.564 30.4523 102.564 30.0393 102.521 29.6296C102.402 28.4135 101.96 27.2514 101.24 26.2637L99.8808 21.3857C100.71 19.9775 100.531 18.4784 99.4255 17.1775C99.5133 16.68 99.6044 16.0881 99.6791 15.4344V15.2361C99.7312 14.7526 99.7702 14.2811 99.7962 13.8214C101.422 13.2003 102.599 12.3645 103.328 11.3239C103.847 10.616 104.16 9.77854 104.232 8.904C104.305 8.02946 104.135 7.15179 103.741 6.36778C102.138 3.00518 96.8271 0.403555 90.8271 0.0360751C90.4271 0.000302709 90.0304 0.000302709 89.6434 0.000302709C87.2209 -0.0140204 84.8223 0.480093 82.6027 1.45071C81.5728 1.16404 80.5154 0.987444 79.4483 0.92388C77.8304 0.806229 76.2059 1.03259 74.6819 1.58807C73.1578 2.14355 71.7687 3.01554 70.606 4.14664C65.7019 4.07835 64.1474 6.62794 63.6694 8.12063C63.5822 8.36832 63.5158 8.62287 63.471 8.8816C62.7035 13.0475 65.0482 16.2962 69.6239 17.4897C69.8663 17.7233 70.0753 17.9892 70.245 18.28C70.3884 18.9889 70.4904 19.7056 70.5507 20.4263C70.4271 20.5466 70.2548 20.7027 70.1279 20.8166C69.0645 21.7922 67.6108 23.119 68.2515 24.9824C68.34 25.2258 68.4638 25.4548 68.619 25.6621C68.58 25.7076 68.5474 25.7531 68.5117 25.8019C68.4759 25.8507 68.4174 25.9418 68.3978 25.9743C68.2723 26.1679 68.1583 26.3688 68.0564 26.5759C68.0239 26.6475 67.9913 26.7255 67.9588 26.8101C67.8737 27.0066 67.802 27.2087 67.7442 27.4149C67.7247 27.493 67.7052 27.5678 67.6759 27.6914C67.6323 27.8813 67.5986 28.0735 67.5751 28.267C67.5751 28.3743 67.5523 28.4751 67.5458 28.5662C67.5393 28.6572 67.5263 28.8133 67.5263 28.9466C67.5263 29.08 67.5263 29.1515 67.5263 29.2718V29.3727C67.5483 29.6432 67.5907 29.9117 67.6531 30.1759L67.6694 30.2507C67.7433 30.553 67.8445 30.848 67.9718 31.132L68.0011 31.1905C68.1309 31.4748 68.2877 31.746 68.4694 32.0003L68.5377 32.0946C68.7228 32.3472 68.9331 32.5804 69.1653 32.7905L69.2824 32.8946C69.536 33.1139 69.8105 33.3078 70.1019 33.4735L70.193 33.5223C70.487 33.6814 70.7951 33.8131 71.1133 33.9157L71.2011 33.945C71.2856 34.6735 71.393 35.4897 71.5751 36.3678C70.6216 37.2591 69.8851 38.3572 69.4222 39.5775L69.1848 39.6849C64.5344 41.7954 61.5035 43.6849 60.18 45.3044C58.9474 46.8166 56.1344 51.1353 53.8743 54.8003L53.7377 54.8914L53.4938 55.4019C52.3491 57.2751 51.3182 59.0247 50.5019 60.4751C48.7523 63.6003 48.5767 64.3775 48.5507 65.0279C48.5247 65.6784 48.4369 67.2588 55.7735 76.0491C55.2076 77.893 54.6352 79.9515 54.0726 82.2279C51.5816 92.2735 51.91 99.7889 55.0808 105.22C60.3621 114.264 73.4808 115.301 82.8922 115.301C86.4141 115.301 89.7865 115.135 92.7621 114.995C95.058 114.882 97.045 114.784 98.6157 114.784C103.104 114.784 107.487 113.429 111.191 110.895C111.767 111.005 112.361 110.968 112.918 110.787C113.475 110.606 113.977 110.288 114.378 109.86L115.64 108.488C116.014 108.104 116.343 107.685 116.697 107.243L117.178 106.638L118.944 104.186L119.247 103.691C119.802 102.789 120.308 101.858 120.762 100.901C121.005 100.413 121.222 99.9127 121.412 99.4019L121.552 99.0507C121.77 98.5203 121.956 97.9774 122.108 97.4247L122.229 97.0345C122.39 96.5317 122.518 96.0189 122.612 95.4995C122.652 95.2979 122.691 95.0995 122.739 94.9044L122.765 94.7613C122.899 94.0068 122.986 93.2556 123.061 92.5532V92.371C123.061 92.1792 123.078 91.9905 123.087 91.7954C123.129 91.2295 123.138 90.6616 123.113 90.0946V89.7857C123.113 89.532 123.097 89.2751 123.081 89.0182L122.954 87.8182C122.777 86.296 122.45 84.7949 121.978 83.3369C121.645 82.2861 121.243 81.2584 120.775 80.2605C121.1 80.0458 121.425 79.8052 121.751 79.5548C122.681 78.8523 123.793 78.0166 125.328 77.6946C126.333 80.9759 127.156 82.1336 128.518 82.6019C128.866 82.7118 129.23 82.7667 129.595 82.7645H129.705L131.143 82.3027H131.741L132.17 81.8377C133.07 81.3235 133.939 80.7567 134.772 80.1401C136.32 79.0475 138.248 77.6849 139.65 77.5385C140.661 77.4659 141.648 77.2022 142.56 76.7613H143.26L143.848 75.6296C145.393 73.506 143.718 71.1645 142.411 69.4019C142.13 68.5404 141.788 67.7003 141.386 66.8881C141.042 65.854 140.665 64.6117 140.297 63.4247L140.245 63.2588C139.634 61.2621 138.944 59.0312 138.209 56.9271L138.252 56.7775C140.007 55.3208 141.607 53.686 143.025 51.8995C143.885 50.7977 144.82 49.7578 145.825 48.7873C147.214 47.3889 148.313 46.2865 148.652 44.8849C148.809 44.3008 148.814 43.6858 148.665 43.0995ZM115.448 72.1109L116.17 71.932C116.134 72.2377 116.102 72.5271 116.073 72.8101C115.878 72.5694 115.669 72.3353 115.448 72.1109Z" fill="white"/>
<path d="M142.977 85.2589C143.035 93.1161 141.538 100.907 138.571 108.183C135.605 115.459 131.228 122.076 125.692 127.652C120.157 133.229 113.572 137.655 106.319 140.675C99.0648 143.695 91.2851 145.25 83.4277 145.25C75.5703 145.25 67.7905 143.695 60.5368 140.675C53.2831 137.655 46.6988 133.229 41.1633 127.652C35.6279 122.076 31.2507 115.459 28.2841 108.183C25.3175 100.907 23.82 93.1161 23.8781 85.2589C23.8781 52.3744 50.5448 25.7109 83.4293 25.7109C116.314 25.7109 142.977 52.3744 142.977 85.2589Z" fill="url(#paint0_radial_4206_9303)"/>
<path d="M83.429 146.667C49.559 146.667 22.0078 119.132 22.0078 85.2587C22.0078 51.3855 49.559 23.8408 83.429 23.8408C117.299 23.8408 144.85 51.3823 144.85 85.2587C144.85 119.135 117.296 146.667 83.429 146.667ZM83.429 27.5676C51.6208 27.5676 25.7444 53.4473 25.7444 85.2457C25.7444 117.044 51.6208 142.93 83.429 142.93C115.237 142.93 141.11 117.073 141.11 85.2587C141.11 53.4441 115.234 27.5807 83.429 27.5807V27.5676Z" fill="white"/>
<path d="M115.49 103.291C111.617 108.56 105.578 112.195 98.7391 112.195C88.7651 112.195 64.3163 115.815 57.3309 103.854C54.7553 99.4474 54.0984 92.7677 56.5895 82.7157C57.3179 79.7694 58.0106 77.3563 58.661 75.3726C58.7391 75.145 58.8074 74.9336 58.8822 74.7222C62.3586 64.5206 64.583 66.7189 64.583 66.7189L95.5 69.5937L106.105 70.5921L108.915 70.8458C108.915 70.8458 115.438 71.6002 119.172 84.6409C121.038 91.1547 119.35 98.036 115.49 103.291Z" fill="#D5E4F4"/>
<path d="M119.485 66.3777C119.485 66.3777 117.481 78.3062 118.766 78.3062C120.05 78.3062 122.398 74.4037 127.82 74.9598C133.241 75.5159 128.541 66.755 128.541 66.755L125.956 65.8281L119.485 66.3777Z" fill="#B02025"/>
<path d="M146.314 43.9993C145.989 45.3717 143.276 47.2513 141.049 50.1782C138.512 53.544 133.595 57.1831 131.686 58.5392C131.189 58.8904 130.896 59.0822 130.896 59.0822L131.039 57.5115L131.764 49.4822C131.764 49.4822 133.602 47.531 133.342 46.2887C133.098 45.1538 131.992 40.9684 132.32 40.1554C132.353 40.0936 132.379 40.0481 132.431 40.0351C132.653 39.9913 132.882 40.0258 133.081 40.1326C133.846 40.4578 134.88 41.4985 135.358 42.9196C136.008 44.8188 141.95 40.9391 145.189 42.4481C145.859 42.757 146.21 43.0985 146.311 43.4692C146.358 43.6426 146.359 43.8254 146.314 43.9993Z" fill="#FABB94"/>
<path d="M146.313 43.9994C145.988 45.3717 143.276 47.2514 141.048 50.1782C138.512 53.5441 133.595 57.1831 131.686 58.5392L131.035 57.5116L131.76 49.4823C131.76 49.4823 133.598 47.5311 133.338 46.2888C133.094 45.1539 131.988 40.9685 132.316 40.1555L132.427 40.0352C132.427 40.0352 133.094 44.9132 134.102 46.0417C135.11 47.1701 133.617 50.2433 136.378 50.1685C139.139 50.0937 145.5 43.2839 146.313 43.9994Z" fill="#E19874"/>
<path d="M133.88 60.8397C132.818 61.9767 131.616 62.9743 130.303 63.8088C126.81 66.0852 122.498 67.5941 118.84 68.612C115.617 69.4998 112.914 70.0006 111.744 70.2868C111.517 70.3513 111.279 70.3635 111.048 70.3226L112.882 75.0673L96.8006 76.508L90.1274 48.2803L98.9274 42.6445C98.9274 42.6445 99.6299 42.664 100.632 42.7649C102.908 42.999 106.739 43.6722 107.49 45.5811C108.573 48.3258 113.311 52.2023 115.253 52.7161C117.194 53.2299 132.271 47.386 132.271 47.386C132.271 47.386 134.414 47.1941 135.487 49.825C135.636 50.1776 135.751 50.5434 135.832 50.9177C136.677 54.6901 135.041 59.5649 133.88 60.8397Z" fill="#E8F1F9"/>
<path d="M96.7914 76.5004C96.7914 76.5004 76.3719 75.1312 76.4402 75.6873C76.5085 76.2434 69.1751 83.4499 66.9085 83.3751C66.0109 83.3426 63.3507 80.7117 60.4499 77.4337C59.8581 76.7638 59.2597 76.0646 58.6613 75.3654C54.8011 70.7963 51.0938 65.8174 51.1361 65.0109C51.1556 64.6012 51.7865 63.3101 52.7621 61.58C52.7621 61.58 52.7621 61.5605 52.7621 61.554C53.5979 60.0776 54.6581 58.2825 55.7767 56.4581C55.7844 56.4484 55.7931 56.4397 55.8028 56.4321C58.3101 52.3475 61.1068 48.0873 62.1995 46.7377C63.5556 45.0825 67.5068 43.0857 70.3068 41.8174C72.0239 41.0239 73.3182 40.5166 73.3182 40.5166L91.2662 47.0662L93.6109 59.5833L95.5003 69.593L96.7914 76.5004Z" fill="#D5E4F4"/>
<path d="M135.475 49.8833C133.592 50.2898 131.845 50.0167 130.737 49.8996C129.172 49.737 130.561 56.5793 129.761 56.6053C128.961 56.6313 128.577 52.1337 124.75 52.1598C120.922 52.1858 121.969 64.5175 120.353 64.563C118.736 64.6085 119.605 57.7077 117.497 57.5711C115.39 57.4346 114.206 61.2167 112.811 61.2394C111.416 61.2622 112.697 56.7972 112.486 56.9825C112.275 57.1679 110.811 59.9744 110.002 60.2345C109.192 60.4947 108.161 53.6492 107.894 52.7094C107.628 51.7695 107.416 49.0703 106.499 51.0833C105.582 53.0963 107.094 64.111 105.992 64.4329C104.889 64.7549 103.556 64.3126 103.462 63.7825C103.367 63.2524 102.844 59.3045 102.743 58.5012C102.642 57.698 101.767 49.6882 101.462 49.0183C101.156 48.3484 95.7674 50.8524 95.0747 50.8492C94.382 50.8459 100.164 44.95 100.164 44.95C100.234 44.2078 100.384 43.4751 100.61 42.7646C102.886 42.9955 105.966 42.9175 107.468 45.1972C109.094 47.659 113.289 52.202 115.231 52.7159C117.172 53.2297 132.249 47.4443 132.249 47.4443C132.249 47.4443 134.402 47.2524 135.475 49.8833Z" fill="white"/>
<path d="M95.1171 50.8386C95.1171 50.8386 96.974 50.1557 99.7577 49.1215L100.844 48.7183L101.127 48.6142L101.198 48.5882H101.234C101.081 48.6142 101.455 48.5459 101.419 48.5556H101.485C101.613 48.5691 101.735 48.6187 101.836 48.6987C101.875 48.7293 101.911 48.7654 101.94 48.8061C101.964 48.8347 101.986 48.8651 102.005 48.8971C102.078 49.0324 102.132 49.1767 102.167 49.3264C102.197 49.4467 102.219 49.5573 102.242 49.6711C102.395 50.5589 102.463 51.4467 102.548 52.38C102.707 54.2337 102.857 56.2044 103.049 58.1687C103.355 61.7761 103.89 65.3604 104.649 68.9004C104.997 70.5074 105.472 72.0842 106.07 73.6158C106.083 73.6469 106.083 73.6818 106.07 73.7129C106.057 73.744 106.033 73.7687 106.002 73.7817C105.971 73.7952 105.936 73.7963 105.905 73.7848C105.873 73.7732 105.847 73.75 105.832 73.7199C105.179 72.1946 104.647 70.62 104.242 69.0109C103.366 65.4784 102.715 61.894 102.291 58.2792C102.034 56.328 101.823 54.341 101.602 52.5004C101.488 51.5865 101.387 50.6857 101.224 49.8987C101.203 49.8012 101.18 49.7101 101.156 49.6256C101.144 49.5735 101.126 49.5231 101.101 49.476C101.101 49.476 101.101 49.476 101.12 49.502C101.135 49.5206 101.153 49.537 101.172 49.5508C101.211 49.5861 101.256 49.6133 101.305 49.6307C101.354 49.648 101.406 49.6551 101.459 49.6516C101.498 49.6516 101.459 49.6516 101.459 49.6516L101.624 49.6223H101.608H101.572L101.501 49.6516L101.221 49.7687L100.148 50.2077L95.5626 52.0744C95.4823 52.1199 95.3933 52.1478 95.3014 52.1563C95.2095 52.1647 95.1168 52.1535 95.0296 52.1234C94.9423 52.0933 94.8625 52.045 94.7954 51.9817C94.7282 51.9183 94.6753 51.8414 94.6402 51.7561C94.6051 51.6707 94.5886 51.5789 94.5917 51.4866C94.5948 51.3944 94.6175 51.3039 94.6583 51.2211C94.6991 51.1383 94.757 51.0652 94.8283 51.0065C94.8995 50.9478 94.9824 50.905 95.0715 50.8809C95.0715 50.8809 95.0715 50.8809 95.091 50.8809L95.1171 50.8386Z" fill="#7EB1DF"/>
<path d="M100.655 56.0004C100.655 56.3138 100.563 56.6203 100.389 56.8812C100.216 57.1421 99.9687 57.3456 99.6794 57.4659C99.39 57.5863 99.0715 57.6181 98.7641 57.5574C98.4566 57.4966 98.1741 57.3461 97.9523 57.1247C97.7305 56.9033 97.5793 56.6212 97.518 56.3138C97.4566 56.0065 97.4878 55.6879 97.6076 55.3984C97.7273 55.1088 97.9303 54.8612 98.1908 54.6871C98.4513 54.5129 98.7577 54.4199 99.071 54.4199C99.2789 54.4195 99.4847 54.4601 99.6769 54.5393C99.869 54.6185 100.044 54.7349 100.191 54.8817C100.338 55.0285 100.455 55.2029 100.534 55.3948C100.614 55.5868 100.655 55.7926 100.655 56.0004Z" fill="#231F20"/>
<path d="M102.251 69.9181C102.251 70.2308 102.159 70.5367 101.986 70.797C101.813 71.0573 101.566 71.2604 101.277 71.3805C100.989 71.5007 100.671 71.5324 100.364 71.4718C100.057 71.4112 99.7753 71.2609 99.5539 71.04C99.3325 70.8191 99.1817 70.5375 99.1205 70.2308C99.0592 69.9242 99.0903 69.6062 99.2098 69.3172C99.3294 69.0283 99.5319 68.7812 99.7919 68.6074C100.052 68.4336 100.358 68.3408 100.67 68.3408C101.089 68.3417 101.49 68.508 101.786 68.8035C102.082 69.099 102.249 69.4997 102.251 69.9181Z" fill="#231F20"/>
<path d="M88.8535 72.0138C88.8548 72.3274 88.7629 72.6344 88.5895 72.8958C88.4161 73.1571 88.1691 73.3611 87.8796 73.4819C87.5901 73.6027 87.2713 73.6348 86.9636 73.5741C86.6559 73.5135 86.3731 73.3629 86.1511 73.1413C85.929 72.9197 85.7778 72.6373 85.7165 72.3296C85.6553 72.022 85.6867 71.7032 85.8069 71.4135C85.9271 71.1237 86.1306 70.8762 86.3916 70.7023C86.6526 70.5284 86.9594 70.4359 87.273 70.4365C87.6916 70.4365 88.0931 70.6026 88.3894 70.8983C88.6857 71.194 88.8526 71.5952 88.8535 72.0138Z" fill="#231F20"/>
<path d="M94.1897 49.3364C93.4446 49.7917 92.6712 50.199 91.8743 50.5559C91.8743 50.5559 90.9539 50.4746 89.5133 50.2698C84.258 49.5413 72.0401 47.2616 71.6596 41.7722C71.5556 40.3218 72.3946 39.047 73.3279 38.1006C73.9246 37.5061 74.5844 36.9783 75.2954 36.5267C75.497 36.3998 75.6206 36.3348 75.6206 36.3348C75.6206 36.3348 94.5377 31.5088 99.0125 38.5364C99.3308 39.0266 99.5823 39.557 99.7605 40.1137C99.8574 40.3964 99.9303 40.6869 99.9783 40.9819C100.554 44.7868 96.7848 47.7624 94.1897 49.3364Z" fill="#E82231"/>
<path d="M98.0301 66.0165C98.0301 66.0165 95.8122 62.3027 94.2187 58.8621C93.4903 57.2686 92.8854 55.7239 92.6968 54.6344C92.3845 52.4885 92.4949 50.3022 93.022 48.1987C93.0643 48.0458 93.087 47.958 93.087 47.958C93.1152 47.9798 93.1457 47.9984 93.1781 48.0133C93.2106 48.0458 93.2626 48.0751 93.3277 48.1271C94.3033 48.8328 97.9813 51.7694 98.687 56.3157C99.1563 59.5594 98.9324 62.8657 98.0301 66.0165Z" fill="#E82231"/>
<path d="M94.5347 57.9128C94.4404 58.238 94.3331 58.5632 94.2095 58.8494C93.481 57.2559 92.8761 55.7112 92.6875 54.6217C92.3752 52.4758 92.4857 50.2895 93.0127 48.186L93.1688 48.0006C93.1846 47.9808 93.202 47.9623 93.2208 47.9453L93.3184 48.1144C93.79 49.0022 95.9558 53.3925 94.5347 57.9128Z" fill="#B02025"/>
<path d="M92.0335 49.0215C92.0335 49.0215 94.9603 53.919 93.3603 58.9922C92.3517 62.1157 90.6887 64.9882 88.4823 67.4182C88.4823 67.4182 87.7441 58.202 88.7457 54.8491C89.4356 52.7039 90.5541 50.7213 92.0335 49.0215Z" fill="#E82231"/>
<path d="M94.189 49.3374C93.443 49.7911 92.6697 50.1984 91.8735 50.5569C91.8735 50.5569 90.9564 50.4691 89.5093 50.2707C88.4459 47.5163 90.9304 45.3927 90.9304 45.3927C92.1077 44.5081 93.2524 45.7992 94.1304 48.1049C94.2796 48.4992 94.3001 48.9307 94.189 49.3374Z" fill="#B02025"/>
<path d="M99.9753 40.9758C98.772 42.7904 96.6647 44.4457 93.2371 45.6425C88.1997 47.4083 80.1606 45.9514 76.1964 42.3384C74.9124 41.1755 73.9283 39.7196 73.3281 38.0945C73.9248 37.4999 74.5846 36.9722 75.2956 36.5205C77.6826 41.7921 82.2517 43.3725 85.7444 43.8213C89.8224 44.3384 90.3395 41.1156 92.7037 40.8945C95.068 40.6734 94.7655 42.5628 96.72 42.0457C97.5233 41.8343 98.6712 41.1189 99.7574 40.0945C99.8551 40.3815 99.928 40.6763 99.9753 40.9758Z" fill="#B02025"/>
<path d="M91.9166 45.2361C91.9166 45.2361 89.2402 47.5126 90.6158 50.4394C91.9914 53.3662 95.9848 50.2638 95.1035 47.9613C94.2222 45.6589 93.0938 44.3451 91.9166 45.2361Z" fill="#E82231"/>
<path d="M90.7554 50.6732C90.7554 50.6732 91.4676 50.078 91.9163 50.348C92.3651 50.6179 93.2952 52.1626 93.2952 52.1626C93.2952 52.1626 93.8448 50.0423 92.3976 49.6325C90.9505 49.2227 90.7554 50.6732 90.7554 50.6732Z" fill="#B02025"/>
<path d="M93.7536 51.106C94.0244 50.7918 94.2103 50.4134 94.2934 50.0069C94.3765 49.6004 94.3541 49.1795 94.2284 48.7841C93.4186 46.641 92.3682 45.363 91.2788 45.9223C91.4727 45.6729 91.6905 45.4431 91.9292 45.2361C93.1065 44.3451 94.2479 45.6426 95.126 47.9451C95.5487 49.08 94.7943 50.4069 93.7536 51.106Z" fill="#F05B42"/>
<path d="M97.4907 22.4684C97.4907 22.4684 97.3248 20.7286 97.5752 20.3416C97.8256 19.9546 98.6159 19.366 97.1882 18.192C95.7606 17.018 95.4517 15.8213 95.4517 15.8213L95.1265 16.0522L97.4907 22.4684Z" fill="#231F20"/>
<path d="M100.671 38.4423C99.9427 40.9464 97.8646 43.3203 93.3931 44.8813C88.6679 46.5431 81.1329 45.1708 77.4094 41.7886C73.6858 38.4065 73.985 33.8244 73.5069 31.587C68.8923 31.7724 69.4874 26.2602 72.2061 26.2277C73.9329 26.2082 74.8728 26.3057 74.8077 23.2716C74.7881 22.5718 74.8338 21.8718 74.9443 21.1805C75.0464 20.3612 75.2746 19.5626 75.6207 18.813C75.8507 18.3185 76.1273 17.847 76.4468 17.4049C78.0052 15.1872 80.3308 13.6264 82.9736 13.0244L91.5297 13.613C92.7494 14.0008 93.9128 14.5475 94.9898 15.239C94.9898 15.239 95.8712 17.3659 96.5866 19.3821L96.7915 19.9773C97.1817 21.1447 97.4711 22.1984 97.4581 22.7285C97.4581 22.7285 96.4825 24.4943 97.1329 26.2407C97.2534 26.5798 97.428 26.8972 97.65 27.1805C98.6614 28.4878 102.05 33.7138 100.671 38.4423Z" fill="#FABB94"/>
<path d="M94.1186 39.8117C94.1186 40.4621 93.3707 40.9597 92.4471 40.9597C91.5235 40.9597 90.7788 40.4458 90.7788 39.8117C90.7788 39.1776 91.5268 38.6572 92.4471 38.6572C93.3674 38.6572 94.1186 39.171 94.1186 39.8117Z" fill="#FCDAC3"/>
<path d="M100.534 38.4428C100.065 39.9998 99.135 41.3784 97.8674 42.3972C97.8674 42.3972 97.8674 42.3973 97.8349 42.4265C96.4664 43.5112 94.9145 44.3416 93.2528 44.8786C90.9048 45.7046 87.8609 45.7826 84.9309 45.2298C82.0008 44.6769 79.1455 43.4834 77.2723 41.7859C73.5552 38.3973 73.8447 33.8216 73.3699 31.5842C70.9504 31.6818 69.9585 30.2119 69.9585 28.7907C69.9585 27.4899 70.7683 26.2477 72.0561 26.2347C73.1878 26.2347 73.978 26.2607 74.3715 25.4347C74.5796 24.9989 74.6772 24.3257 74.6577 23.2786C74.6388 22.5789 74.6834 21.879 74.791 21.1875C76.5081 21.5127 77.913 21.7826 77.913 21.7826C77.913 21.7826 73.7439 26.3647 75.4707 33.5582C77.1975 40.7517 82.3943 42.6997 86.2187 43.1907C90.0431 43.6818 90.5276 40.6542 92.7227 40.4363C94.9179 40.2184 94.674 42.0038 96.4951 41.5192C97.5618 41.233 99.2658 40.046 100.534 38.4428Z" fill="#E19874"/>
<path d="M98.9448 32.0255C98.9438 32.045 98.9438 32.0646 98.9448 32.0841C98.9448 32.1361 98.9708 32.2012 98.9871 32.276C99.022 32.4782 99.0448 32.6824 99.0554 32.8873C99.0997 33.4934 99.047 34.1027 98.8993 34.6922C98.8205 35.0013 98.7116 35.3019 98.5741 35.5898C98.5144 35.7221 98.446 35.8503 98.3692 35.9735C98.3079 36.0876 98.2372 36.1963 98.1578 36.2987C98.05 36.4569 97.9293 36.6059 97.7968 36.7442L97.6505 36.9003C97.6304 36.9237 97.6054 36.9425 97.5773 36.9554C97.5493 36.9682 97.5188 36.9749 97.4879 36.9749C97.457 36.9749 97.4265 36.9682 97.3985 36.9554C97.3704 36.9425 97.3454 36.9237 97.3253 36.9003C97.2877 36.8668 97.2628 36.8214 97.2545 36.7718C97.2462 36.7221 97.2551 36.6711 97.2798 36.6272V36.6044L97.3773 36.4353C97.4631 36.2892 97.5381 36.137 97.6017 35.98C97.6503 35.8756 97.6884 35.7667 97.7155 35.6548C97.7551 35.5376 97.7876 35.4181 97.8131 35.2971C97.8704 35.0408 97.9009 34.7792 97.9042 34.5166C97.9143 34.0298 97.8462 33.5445 97.7025 33.0792C97.6595 32.9319 97.6074 32.7875 97.5464 32.6467L97.5009 32.5459L97.4814 32.5068C97.4314 32.4167 97.4002 32.3173 97.3896 32.2148C97.379 32.1122 97.3893 32.0086 97.4198 31.9101C97.4503 31.8116 97.5004 31.7203 97.5671 31.6417C97.6339 31.5631 97.7158 31.4989 97.808 31.4528C97.9002 31.4066 98.0008 31.3797 98.1037 31.3735C98.2066 31.3672 98.3097 31.3819 98.4068 31.4166C98.5039 31.4513 98.593 31.5052 98.6687 31.5752C98.7444 31.6452 98.8051 31.7298 98.8473 31.8239C98.873 31.8757 98.8926 31.9302 98.9058 31.9865L98.9448 32.0255Z" fill="#E19874"/>
<path d="M82.2383 34.4159C82.2383 34.4159 85.2236 38.3183 91.3993 37.9931C97.5749 37.6679 97.9879 33.9996 97.9879 33.1151C97.9879 32.2305 82.2383 34.4159 82.2383 34.4159Z" fill="#FCDAC3"/>
<path d="M80.1901 32.4544C80.1901 32.4544 80.1901 32.4935 80.1901 32.5618C80.1901 32.63 80.1901 32.7048 80.1901 32.8382C80.2167 33.2038 80.2765 33.5663 80.369 33.9211C80.4178 34.1487 80.5153 34.3796 80.5934 34.6366C80.7031 34.8936 80.8269 35.1443 80.9641 35.3878C81.0454 35.5113 81.1104 35.6447 81.195 35.7683C81.2795 35.8918 81.3771 36.0122 81.4682 36.139C81.6655 36.3834 81.8773 36.6157 82.1023 36.8349C82.3527 37.0365 82.5901 37.2544 82.8535 37.4333C83.1169 37.6122 83.3836 37.7813 83.66 37.9211L84.4763 38.3016C84.7462 38.3861 85.0064 38.474 85.2438 38.552C85.4547 38.6329 85.6723 38.6949 85.8942 38.7374L86.4177 38.8479C86.7072 38.9162 86.8763 38.9487 86.8763 38.9487H86.8958C86.9496 38.9616 86.9966 38.9942 87.0275 39.0401C87.0585 39.0859 87.0711 39.1417 87.063 39.1964C87.0548 39.2511 87.0264 39.3008 86.9834 39.3356C86.9404 39.3705 86.886 39.3879 86.8308 39.3845L86.3462 39.3422L85.7934 39.287C85.5509 39.2725 85.3103 39.2355 85.0747 39.1764L84.2291 39.0008L83.2958 38.6983C82.9706 38.5813 82.6454 38.4122 82.3202 38.2626C81.995 38.113 81.6926 37.8788 81.3771 37.6805C81.0805 37.453 80.7981 37.2076 80.5316 36.9455C80.4015 36.8122 80.2747 36.6788 80.1478 36.5422C80.021 36.4057 79.9267 36.2561 79.8226 36.1162C79.618 35.8389 79.4311 35.5489 79.2633 35.2479C79.1267 34.952 78.9706 34.6723 78.8795 34.4057C78.7046 33.9686 78.5728 33.5155 78.4861 33.0528C78.4535 32.8837 78.434 32.7276 78.4243 32.63C78.4145 32.5325 78.4243 32.487 78.4243 32.487C78.4076 32.3694 78.4149 32.2497 78.4458 32.135C78.4766 32.0204 78.5305 31.9132 78.604 31.8199C78.6775 31.7266 78.7691 31.6493 78.8734 31.5924C78.9776 31.5356 79.0923 31.5005 79.2106 31.4893C79.3288 31.4781 79.448 31.4909 79.5611 31.5271C79.6742 31.5633 79.7788 31.622 79.8685 31.6998C79.9583 31.7775 80.0313 31.8727 80.0833 31.9795C80.1352 32.0863 80.1649 32.2025 80.1706 32.3211C80.1738 32.3535 80.1738 32.3862 80.1706 32.4187L80.1901 32.4544Z" fill="#E19874"/>
<path d="M85.8542 26.4951C85.8542 26.4951 79.6754 27.1943 78.8559 29.0285C78.0363 30.8626 79.555 31.7732 81.8737 31.5845C84.1924 31.3959 87.155 29.7179 87.4575 28.1374L87.7567 26.5569L85.8542 26.4951Z" fill="#FCDAC3"/>
<path d="M82.7265 30.1533C82.7265 30.9078 81.8647 31.5224 80.8013 31.5224C79.7379 31.5224 78.8696 30.9078 78.8696 30.1533C78.8696 29.3988 79.7347 28.7842 80.8013 28.7842C81.868 28.7842 82.7265 29.3956 82.7265 30.1533Z" fill="#FFEBDD"/>
<path d="M96.9989 31.869C96.9989 31.869 98.6835 36.617 89.6884 36.6137C87.9843 36.6137 83.2428 35.2934 82.3257 34.5259C81.4087 33.7584 94.2347 30.0479 94.2347 30.0479L96.9989 31.869Z" fill="#F0EFED"/>
<path d="M97.1457 31.8184C97.362 32.472 97.362 33.1778 97.1457 33.8314C96.9076 34.4841 96.4794 35.0504 95.9164 35.4574C95.3724 35.8529 94.7639 36.1511 94.1181 36.3387C93.4879 36.5341 92.8413 36.6723 92.1863 36.7517C91.5388 36.8309 90.8874 36.8743 90.2351 36.8818C89.5756 36.9085 88.9152 36.8572 88.2676 36.729C86.9917 36.4894 85.7336 36.1634 84.5018 35.7534C83.8784 35.5549 83.2698 35.3125 82.6807 35.0282C82.5224 34.9516 82.3711 34.8612 82.2286 34.7582L82.1733 34.716H82.1571L82.1213 34.6737L82.0985 34.6509C82.0576 34.5985 82.0323 34.5357 82.0254 34.4695C82.0185 34.4034 82.0303 34.3367 82.0595 34.2769C82.1125 34.168 82.1918 34.0741 82.2904 34.0038C82.5713 33.8041 82.8721 33.6341 83.188 33.4965C84.3815 32.9566 85.5945 32.5436 86.814 32.1241C89.2498 31.2981 91.7181 30.5891 94.1928 29.8867L94.2579 29.8672L94.3099 29.9192L97.1164 31.7696L97.1457 31.8184ZM96.8628 31.9582L94.1506 30.1729L94.2807 30.1924C91.8254 30.9371 89.4026 31.7404 86.9603 32.5664C85.7538 32.9924 84.5408 33.4184 83.3831 33.9485C83.1059 34.0671 82.843 34.2165 82.5994 34.394C82.5671 34.4165 82.5377 34.4427 82.5115 34.4721C82.5144 34.4581 82.5144 34.4437 82.5115 34.4298C82.5115 34.4298 82.4758 34.3192 82.4693 34.329L82.4888 34.3517L82.4628 34.3257L82.505 34.355C82.6248 34.4367 82.7497 34.5106 82.879 34.5761C83.4497 34.8407 84.0375 35.0667 84.6384 35.2526C85.8484 35.6404 87.0825 35.9489 88.3327 36.1761C88.9465 36.2927 89.572 36.3364 90.1961 36.3062C90.828 36.2914 91.4586 36.2436 92.0855 36.1631C93.3246 36.007 94.5798 35.7111 95.5815 35.0184C96.0816 34.6912 96.4714 34.2209 96.7002 33.6688C96.9283 33.1287 96.9851 32.5316 96.8628 31.9582Z" fill="#C08265"/>
<path d="M90.1122 34.3445C91.0149 34.2471 91.9108 34.0951 92.7951 33.8892C93.3714 33.7661 93.9275 33.5624 94.4471 33.2843C94.5779 33.2126 94.6947 33.1179 94.7918 33.0047C94.8064 32.9745 94.8227 32.9452 94.8406 32.9169L94.8829 32.8583C94.9253 32.7913 94.9809 32.7336 95.0462 32.6887C95.1116 32.6438 95.1854 32.6127 95.2632 32.5972C95.341 32.5817 95.4211 32.5822 95.4987 32.5986C95.5763 32.615 95.6497 32.647 95.7145 32.6927C95.7794 32.7383 95.8343 32.7967 95.8759 32.8642C95.9175 32.9317 95.9449 33.007 95.9566 33.0854C95.9682 33.1638 95.9638 33.2438 95.9436 33.3205C95.9234 33.3972 95.8878 33.469 95.839 33.5315C95.7606 33.6281 95.6759 33.7194 95.5853 33.8047C95.4873 33.8786 95.3852 33.947 95.2796 34.0095C95.154 34.0797 95.0223 34.1385 94.8861 34.1851C94.245 34.3881 93.578 34.4976 92.9057 34.5103C91.9797 34.5502 91.0522 34.5328 90.1284 34.4583C90.1192 34.4583 90.11 34.4565 90.1015 34.4528C90.093 34.4492 90.0853 34.4439 90.079 34.4372C90.0726 34.4305 90.0676 34.4226 90.0644 34.4139C90.0611 34.4052 90.0597 34.396 90.0601 34.3868C90.0651 34.3763 90.0724 34.3671 90.0814 34.3598C90.0904 34.3524 90.1009 34.3472 90.1122 34.3445Z" fill="#BBBCBD"/>
<path d="M97.0612 28.6178C97.0612 28.6178 96.9767 27.4763 97.7117 27.8015C98.4466 28.1267 98.5962 29.6877 96.6743 30.0161C94.7523 30.3446 92.3165 29.1934 92.3165 29.1934L88.0889 28.5072L87.1946 28.7869C87.1946 28.7869 85.8678 30.634 82.9669 31.0633C80.0661 31.4926 78.9734 30.9332 78.8889 30.3056C78.863 30.0272 78.9421 29.7491 79.1105 29.526C79.2789 29.3028 79.5246 29.1506 79.7995 29.0991C80.3133 28.9885 80.9507 29.5283 80.9507 29.5283C80.9507 29.5283 80.58 28.0357 79.3734 28.2763C78.1669 28.517 75.8385 31.1804 79.0678 33.8048C81.8255 36.0389 88.5539 35.8503 91.0547 31.9186C96.5832 37.6389 100.424 32.7511 100.121 29.7039C99.9523 28.0064 98.7556 26.2763 97.3474 26.8552C96.1637 27.3787 97.0612 28.6178 97.0612 28.6178Z" fill="#231F20"/>
<path d="M97.1328 26.3412V26.3672C95.9119 26.078 94.6607 25.936 93.406 25.9445C91.78 26.0258 91.1719 23.8957 91.1719 23.8957L91.2824 23.2745L91.8548 19.3916H96.3296L96.5865 19.5119C96.6581 19.7136 96.7263 19.9119 96.7914 20.107C97.1816 21.2745 97.4711 22.3249 97.4581 22.855C97.4548 22.8388 96.4922 24.6046 97.1328 26.3412Z" fill="#E19874"/>
<path d="M96.0301 24.2376C96.0366 24.5869 95.9389 24.9302 95.7496 25.2238C95.5602 25.5174 95.2877 25.7479 94.9669 25.8861C94.646 26.0242 94.2913 26.0637 93.9479 25.9996C93.6045 25.9354 93.288 25.7705 93.0387 25.5258C92.7894 25.2811 92.6185 24.9677 92.548 24.6255C92.4774 24.2834 92.5103 23.928 92.6425 23.6046C92.7746 23.2812 93 23.0045 93.29 22.8097C93.58 22.6149 93.9214 22.5109 94.2708 22.5108C94.4997 22.5087 94.7268 22.5516 94.9391 22.6373C95.1514 22.7229 95.3447 22.8495 95.5081 23.0098C95.6715 23.1702 95.8017 23.3612 95.8912 23.5718C95.9808 23.7825 96.028 24.0087 96.0301 24.2376Z" fill="#F0EFED"/>
<path d="M95.6568 24.433C95.6652 24.7087 95.5912 24.9806 95.4442 25.2139C95.2971 25.4472 95.0838 25.6313 94.8316 25.7427C94.5793 25.8541 94.2995 25.8876 94.028 25.839C93.7566 25.7904 93.5058 25.6619 93.3078 25.47C93.1098 25.278 92.9736 25.0313 92.9166 24.7615C92.8596 24.4917 92.8845 24.211 92.988 23.9554C93.0915 23.6998 93.2689 23.4809 93.4976 23.3267C93.7262 23.1725 93.9957 23.0901 94.2714 23.0899C94.6329 23.0856 94.9814 23.2244 95.2409 23.476C95.5005 23.7276 95.65 24.0716 95.6568 24.433Z" fill="#231F20"/>
<path d="M94.9856 24.1271C94.9881 24.2397 94.9571 24.3504 94.8964 24.4453C94.8356 24.5401 94.748 24.6146 94.6447 24.6594C94.5413 24.7041 94.427 24.717 94.3163 24.6964C94.2056 24.6758 94.1036 24.6226 94.0233 24.5437C93.9429 24.4648 93.888 24.3637 93.8655 24.2534C93.8429 24.143 93.8538 24.0285 93.8967 23.9244C93.9396 23.8203 94.0126 23.7314 94.1064 23.669C94.2001 23.6066 94.3104 23.5736 94.423 23.5742C94.5708 23.5734 94.7129 23.631 94.8183 23.7346C94.9237 23.8382 94.9838 23.9793 94.9856 24.1271Z" fill="#F0EFED"/>
<path d="M95.0646 24.8452C95.0652 24.8801 95.0555 24.9144 95.0366 24.9437C95.0177 24.973 94.9905 24.996 94.9585 25.0098C94.9264 25.0236 94.891 25.0275 94.8567 25.0211C94.8225 25.0147 94.7909 24.9982 94.766 24.9738C94.7411 24.9494 94.724 24.9181 94.717 24.884C94.71 24.8498 94.7132 24.8143 94.7264 24.7821C94.7396 24.7498 94.7621 24.7222 94.7911 24.7027C94.82 24.6833 94.8541 24.6729 94.889 24.6729C94.9119 24.6724 94.9346 24.6766 94.9559 24.6851C94.9772 24.6935 94.9966 24.7062 95.013 24.7222C95.0293 24.7382 95.0423 24.7574 95.0512 24.7785C95.06 24.7996 95.0646 24.8223 95.0646 24.8452Z" fill="#F0EFED"/>
<path d="M88.2153 24.6055C88.2237 25.0343 88.1042 25.4558 87.8721 25.8164C87.64 26.1771 87.3057 26.4604 86.912 26.6303C86.5182 26.8003 86.0828 26.8491 85.6612 26.7706C85.2395 26.6921 84.8508 26.4899 84.5446 26.1897C84.2384 25.8894 84.0285 25.5048 83.9417 25.0848C83.8549 24.6648 83.8951 24.2285 84.0572 23.8315C84.2193 23.4344 84.496 23.0947 84.852 22.8555C85.2079 22.6163 85.627 22.4885 86.0559 22.4884C86.3368 22.4854 86.6155 22.5378 86.876 22.6426C87.1366 22.7474 87.374 22.9026 87.5746 23.0992C87.7751 23.2958 87.9349 23.5301 88.0449 23.7886C88.1548 24.047 88.2127 24.3246 88.2153 24.6055Z" fill="#F0EFED"/>
<path d="M87.7569 24.8465C87.7627 25.184 87.6679 25.5157 87.4845 25.7992C87.3012 26.0827 87.0377 26.3053 86.7274 26.4385C86.4172 26.5717 86.0744 26.6096 85.7425 26.5474C85.4107 26.4851 85.1049 26.3254 84.8641 26.0888C84.6233 25.8521 84.4584 25.5492 84.3904 25.2185C84.3223 24.8878 84.3543 24.5443 84.4821 24.2318C84.6099 23.9193 84.8278 23.6519 85.1081 23.4637C85.3884 23.2755 85.7184 23.175 86.056 23.1749C86.2776 23.1723 86.4976 23.2136 86.7032 23.2963C86.9088 23.3791 87.096 23.5016 87.2541 23.657C87.4121 23.8123 87.5379 23.9974 87.6242 24.2015C87.7105 24.4057 87.7556 24.6248 87.7569 24.8465Z" fill="#231F20"/>
<path d="M86.5899 24.084C86.5899 24.2462 86.5255 24.4017 86.4109 24.5163C86.2962 24.631 86.1407 24.6954 85.9786 24.6954C85.8164 24.6954 85.6609 24.631 85.5463 24.5163C85.4316 24.4017 85.3672 24.2462 85.3672 24.084C85.3672 23.9219 85.4316 23.7664 85.5463 23.6517C85.6609 23.5371 85.8164 23.4727 85.9786 23.4727C86.1407 23.4727 86.2962 23.5371 86.4109 23.6517C86.5255 23.7664 86.5899 23.9219 86.5899 24.084Z" fill="#F0EFED"/>
<path d="M86.967 24.9786C86.9676 25.0377 86.9507 25.0958 86.9184 25.1453C86.886 25.1949 86.8397 25.2337 86.7853 25.257C86.7309 25.2802 86.6708 25.2868 86.6127 25.2759C86.5545 25.2649 86.5009 25.237 86.4586 25.1956C86.4163 25.1543 86.3872 25.1013 86.3751 25.0434C86.3629 24.9855 86.3682 24.9252 86.3902 24.8703C86.4122 24.8154 86.4501 24.7683 86.4989 24.7349C86.5478 24.7015 86.6054 24.6833 86.6646 24.6826C86.7039 24.6822 86.7428 24.6895 86.7793 24.7042C86.8158 24.7188 86.849 24.7405 86.8771 24.768C86.9052 24.7954 86.9276 24.8282 86.943 24.8643C86.9584 24.9005 86.9666 24.9393 86.967 24.9786Z" fill="#F0EFED"/>
<path d="M96.1119 30.5691C94.6354 33.3268 87.3314 32.5463 87.2728 29.2097C87.2632 29.1016 87.2632 28.9927 87.2728 28.8845L90.772 20.3154L91.9558 20.3577L91.9753 20.3154C91.9753 20.3154 91.9753 20.3382 91.9753 20.3577C91.9103 20.5279 91.8549 20.7016 91.8094 20.878C91.5951 21.5885 91.5951 22.3464 91.8094 23.0569C92.6127 25.2455 95.5005 26.7414 96.2355 28.5854C96.2355 28.6114 96.255 28.6374 96.2712 28.6699C96.3863 28.9786 96.4318 29.309 96.4042 29.6373C96.3767 29.9657 96.2768 30.2839 96.1119 30.5691Z" fill="#FABB94"/>
<path d="M82.9285 20.5107C82.9285 20.5107 80.8081 22.2603 80.8179 23.1741C80.8277 24.088 81.6342 24.4977 82.496 23.8506C83.3577 23.2034 85.9626 21.9806 87.1691 22.7806C88.3756 23.5806 89.9528 26.7774 91.3837 27.6424C92.8146 28.5075 89.5594 19.9741 89.5594 19.9741L87.1041 19.1514L85.1919 19.2977L82.9285 20.5107Z" fill="#E19874"/>
<path d="M91.6599 26.2442C91.7133 26.1996 91.771 26.1603 91.8322 26.1272C91.9916 26.0324 92.1567 25.9477 92.3266 25.8735C92.566 25.7726 92.8128 25.69 93.0648 25.6264C93.3556 25.5598 93.6515 25.5174 93.9493 25.4995C94.2479 25.4747 94.5484 25.4878 94.8436 25.5386C95.104 25.5628 95.3599 25.6219 95.6046 25.7142C95.8403 25.8071 96.0696 25.9158 96.2908 26.0394C96.3364 26.067 96.3693 26.1116 96.3821 26.1635C96.3949 26.2153 96.3866 26.2701 96.3591 26.3158C96.3438 26.3423 96.3221 26.3646 96.296 26.3805C96.2698 26.3964 96.2401 26.4055 96.2095 26.4068H96.1737C95.9408 26.4194 95.7074 26.4194 95.4745 26.4068C95.3664 26.397 95.2575 26.397 95.1493 26.4068C95.0355 26.4068 94.9119 26.4068 94.7916 26.4068C94.5445 26.4068 94.281 26.4426 94.0176 26.4524C93.7542 26.4621 93.4973 26.5207 93.2469 26.5369C92.9965 26.5532 92.7721 26.6052 92.577 26.6442C92.1737 26.706 91.9266 26.7613 91.907 26.7613H91.8745C91.7883 26.7613 91.7056 26.7271 91.6446 26.6661C91.5836 26.6051 91.5493 26.5224 91.5493 26.4361C91.5626 26.3612 91.6017 26.2933 91.6599 26.2442Z" fill="#E19874"/>
<path d="M75.0445 25.7324C74.7518 26.2788 73.8315 27.0755 72.1437 27.004C70.4559 26.9324 70.1079 28.7829 70.1079 28.7829C70.1079 27.482 70.9144 26.2398 72.2022 26.2268C73.3339 26.2268 74.1242 26.2528 74.5177 25.4268C74.8884 25.5081 75.1225 25.6056 75.0445 25.7324Z" fill="#FABB94"/>
<path d="M78.375 19.8048C78.375 19.8048 84.4563 17.4958 89.3116 17.7332C94.1669 17.9706 96.2937 19.2357 96.2937 19.2357L96.775 19.7137L95.6433 16.5625L75.7344 17.3918L78.375 19.8048Z" fill="#E19874"/>
<path d="M74.8179 19.6164C74.8179 19.6164 73.374 20.3644 72.8667 21.5091C72.5415 22.2018 69.5886 24.1107 71.1854 24.2376C72.7821 24.3644 70.665 25.0636 71.9723 25.9871C73.2797 26.9107 75.5756 25.9254 75.839 24.6278C76.1024 23.3302 76.6813 22.6083 77.2049 22.4457C77.7284 22.2831 78.8927 22.901 79.4813 22.2831C80.0699 21.6652 78.6097 20.4392 79.0455 19.6815C79.4813 18.9237 82.0081 15.6847 79.3935 15.2294C76.7789 14.7741 74.8179 19.6164 74.8179 19.6164Z" fill="#231F20"/>
<path d="M90.6905 39.0733C90.7177 39.034 90.7494 38.998 90.7849 38.966C90.877 38.8806 90.9736 38.8003 91.0743 38.7253C91.3869 38.5063 91.7393 38.3505 92.1117 38.2668C92.2157 38.244 92.3198 38.2343 92.4369 38.218C92.5383 38.2034 92.6412 38.2034 92.7426 38.218C92.9262 38.2228 93.1086 38.2501 93.2857 38.2993C93.4534 38.3586 93.6155 38.4326 93.7702 38.5204C93.7927 38.5347 93.8122 38.5532 93.8275 38.575C93.8428 38.5968 93.8537 38.6214 93.8594 38.6474C93.8651 38.6734 93.8657 38.7003 93.861 38.7265C93.8563 38.7527 93.8464 38.7777 93.832 38.8001C93.8188 38.8226 93.8009 38.8421 93.7796 38.8572C93.7583 38.8724 93.734 38.8828 93.7084 38.8879H93.6629C93.5137 38.9171 93.3627 38.9356 93.2109 38.9432C93.0873 38.9432 92.9377 38.9952 92.7848 39.0017C92.632 39.0082 92.4596 39.0668 92.297 39.0863C92.2157 39.0863 92.1344 39.1253 92.0499 39.1383C91.9653 39.1513 91.884 39.1676 91.8027 39.1936C91.6499 39.2359 91.4775 39.2619 91.3637 39.3009C91.2499 39.34 91.1166 39.3497 91.0385 39.3725L90.9084 39.4017C90.8545 39.4133 90.7982 39.4031 90.7519 39.3732C90.7056 39.3433 90.673 39.2963 90.6613 39.2424C90.6494 39.189 90.6587 39.133 90.6873 39.0863L90.6905 39.0733Z" fill="#E19874"/>
<path d="M97.2374 14.9325V14.9748C97.1206 15.9841 96.948 16.9862 96.7203 17.9764C96.7203 17.9764 91.6537 16.7927 87.3902 17.1374C86.9447 17.1764 86.4439 17.2382 85.9138 17.3227H85.8943C81.0163 18.139 73.1366 20.874 73.1366 20.874C73.1366 20.874 72.8959 17.8853 72.5805 17.1699C71.9594 15.7618 70.1772 14.5065 70.1772 14.5065C70.1772 14.5065 72.3398 13.5309 75.4033 12.2301C81.6634 9.5894 91.7057 5.72599 94.7073 6.59428C95.1257 6.72096 95.5123 6.93524 95.8414 7.22289C96.1706 7.51053 96.4347 7.86495 96.6163 8.26257C97.5626 10.0447 97.4911 12.8057 97.2374 14.9325Z" fill="#E82231"/>
<path d="M83.5424 9.00163C78.0985 10.3317 72.053 9.80163 70.9961 7.56748C71.249 7.14571 71.5419 6.7493 71.8709 6.38374C72.7941 5.30841 73.9568 4.46482 75.2656 3.92088C76.5743 3.37695 77.9924 3.14785 79.4058 3.25204C81.718 3.38862 83.6888 4.11057 84.905 5.01139C86.7684 6.39675 86.8302 8.20813 83.5424 9.00163Z" fill="#B02025"/>
<path d="M86.811 18.7647C87.3411 19.2297 87.9297 20.537 85.0224 20.9468C82.1151 21.3565 81.4712 21.9224 81.4712 21.9224C81.4712 21.9224 84.3492 16.6313 86.811 18.7647Z" fill="#231F20"/>
<path d="M73.2079 29.7338C73.2021 29.9144 73.1433 30.0894 73.0387 30.2369C72.9342 30.3843 72.7885 30.4977 72.6199 30.5629C72.4513 30.6281 72.2673 30.6422 72.0907 30.6034C71.9142 30.5647 71.7529 30.4748 71.6271 30.345C71.5013 30.2152 71.4165 30.0512 71.3833 29.8736C71.3501 29.6959 71.37 29.5124 71.4404 29.3459C71.5109 29.1794 71.6288 29.0374 71.7794 28.9375C71.9301 28.8376 72.1068 28.7843 72.2875 28.7842C72.5354 28.7885 72.7714 28.8908 72.9439 29.0688C73.1164 29.2468 73.2113 29.4859 73.2079 29.7338Z" fill="#FABB94"/>
<path d="M95.6499 18.4946C96.7913 18.9173 97.4515 21.3791 97.4515 21.3791C97.4515 21.3791 97.0515 20.875 95.1133 20.3775C93.1751 19.8799 94.0564 18.462 94.0564 18.462C94.31 18.2116 94.5116 18.075 95.6499 18.4946Z" fill="#231F20"/>
<path d="M71.9059 30.6675C71.6768 30.5689 71.4657 30.4325 71.2816 30.2642C71.0786 30.0816 70.9139 29.8605 70.797 29.6138C70.6613 29.3071 70.6304 28.9642 70.7092 28.6382C70.7268 28.5538 70.7518 28.4711 70.784 28.391L70.8328 28.2772L70.8718 28.2057V28.1829L70.9011 28.1439C70.9767 28.013 71.0759 27.8972 71.1937 27.8024C71.2751 27.7439 71.3564 27.6854 71.4344 27.6366L71.6653 27.5585C71.8011 27.5234 71.9418 27.5113 72.0816 27.5228C72.2749 27.5301 72.465 27.5754 72.6409 27.6561C72.7082 27.6864 72.7734 27.7212 72.836 27.7602C72.8762 27.7875 72.9064 27.8271 72.9221 27.8731C72.9378 27.919 72.9381 27.9689 72.9231 28.0151C72.9081 28.0612 72.8785 28.1013 72.8387 28.1292C72.799 28.1572 72.7512 28.1714 72.7027 28.1699H72.6507C72.5987 28.1727 72.5466 28.1727 72.4946 28.1699C72.3627 28.1561 72.2297 28.1561 72.0978 28.1699C72.0224 28.1799 71.9495 28.2042 71.8832 28.2414C71.8507 28.261 71.8116 28.2707 71.7791 28.287C71.764 28.3076 71.7453 28.3252 71.7238 28.339C71.6848 28.339 71.5937 28.4919 71.5287 28.5862L71.4994 28.6284V28.6512C71.4994 28.6284 71.4702 28.7 71.5287 28.5992L71.4994 28.6707C71.4756 28.7132 71.4591 28.7593 71.4507 28.8073C71.4114 28.9895 71.4169 29.1784 71.4667 29.358C71.5166 29.5376 71.6093 29.7024 71.7368 29.8382C71.8217 29.9554 71.9175 30.0643 72.023 30.1634L72.1433 30.2772C72.1823 30.3125 72.2078 30.3601 72.2157 30.412C72.2235 30.4639 72.2131 30.517 72.1864 30.5621C72.1596 30.6073 72.118 30.6418 72.0687 30.6598C72.0193 30.6778 71.9653 30.6782 71.9157 30.661L71.9059 30.6675Z" fill="#C08265"/>
<path d="M83.7707 26.706C83.825 26.6624 83.8826 26.6233 83.9431 26.5889C84.1033 26.4936 84.2695 26.4089 84.4407 26.3352C84.6801 26.2372 84.9256 26.1547 85.1756 26.0881C85.4665 26.0215 85.7623 25.9791 86.0602 25.9613C86.3585 25.9378 86.6586 25.9487 86.9545 25.9938C87.2147 26.023 87.4702 26.0842 87.7154 26.1759C87.9512 26.2688 88.1804 26.3775 88.4016 26.5011C88.4472 26.5288 88.4801 26.5732 88.4935 26.6248C88.5068 26.6764 88.4996 26.7312 88.4732 26.7775C88.4557 26.8031 88.4331 26.8246 88.4067 26.8409C88.3804 26.8571 88.351 26.8677 88.3203 26.8718H88.2878C88.2878 26.8718 87.9919 26.8946 87.5886 26.8718C87.4804 26.8621 87.3716 26.8621 87.2634 26.8718C87.1432 26.8802 87.0226 26.8802 86.9024 26.8718C86.6585 26.8718 86.3951 26.9076 86.135 26.9174C85.8748 26.9271 85.6114 26.9856 85.3642 27.0019C85.1171 27.0182 84.8829 27.0734 84.6878 27.1092C84.2846 27.171 84.0374 27.2263 84.0374 27.2263H84.0049C83.9186 27.2263 83.8359 27.192 83.7749 27.131C83.7139 27.0701 83.6797 26.9873 83.6797 26.9011C83.687 26.8276 83.7191 26.7588 83.7707 26.706Z" fill="#E19874"/>
<path d="M96.111 30.5691C94.6346 33.3268 87.3305 32.5463 87.272 29.2098C87.272 29.2098 88.7094 31.3691 92.2443 31.0634C95.5809 30.787 96.3744 29.2 96.2736 28.6602C96.3898 28.9705 96.4354 29.3028 96.4073 29.6329C96.3792 29.9631 96.278 30.2829 96.111 30.5691Z" fill="#E19874"/>
<path d="M95.8451 28.7831C95.8451 29.4172 95.1003 29.9343 94.1768 29.9343C93.2532 29.9343 92.5117 29.4172 92.5117 28.7831C92.5117 28.1489 93.2564 27.6416 94.1768 27.6416C95.0971 27.6416 95.8451 28.1489 95.8451 28.7831Z" fill="#FFEBDD"/>
<path d="M93.66 42.5045C93.6847 42.6478 93.6647 42.7953 93.6027 42.927C93.5407 43.0586 93.4397 43.1679 93.3134 43.2402C93.1872 43.3124 93.0417 43.344 92.8968 43.3308C92.7519 43.3175 92.6146 43.26 92.5036 43.1661C92.3925 43.0721 92.313 42.9463 92.2759 42.8056C92.2388 42.6649 92.2459 42.5163 92.2961 42.3797C92.3464 42.2432 92.4375 42.1255 92.557 42.0425C92.6765 41.9595 92.8186 41.9153 92.9641 41.9159C93.1341 41.9032 93.3023 41.9578 93.4324 42.0679C93.5626 42.178 93.6443 42.3347 93.66 42.5045Z" fill="#FABB94"/>
<path d="M85.9944 17.3232H85.9716C81.0936 18.1394 73.2139 20.8744 73.2139 20.8744C73.2139 20.8744 72.9765 17.8858 72.6578 17.1703C72.0399 15.7622 70.2578 14.5069 70.2578 14.5069C70.2578 14.5069 72.4204 13.5313 75.4806 12.2305C77.9977 12.5557 82.7229 13.1638 82.7229 13.1638C82.7229 13.1638 78.9407 15.5768 79.7472 16.3866C80.5537 17.1963 83.5229 15.8988 85.9716 16.1134C88.4204 16.328 87.783 16.6532 85.9944 17.3232Z" fill="#B02025"/>
<path d="M72.3783 15.2619C72.3783 15.2619 64.967 14.9366 66.0271 9.18055C66.0537 9.03531 66.0895 8.89193 66.1344 8.75128C67.4775 4.59844 76.1344 7.00494 80.7979 9.14478C81.6227 9.51008 82.4147 9.94527 83.1653 10.4456C86.1377 12.5789 79.4645 15.7139 72.3783 15.2619Z" fill="#E82231"/>
<path d="M97.3149 14.9333C97.419 14.1333 96.3003 12.9821 93.8613 13.3691C91.4223 13.7561 86.6646 12.9398 86.6646 12.9398L92.7231 7.98047L96.6938 8.2699C97.6206 10.0455 97.5621 12.8065 97.3149 14.9333Z" fill="#B02025"/>
<path d="M84.9053 5.01464C84.1614 5.01799 83.4227 4.89029 82.7231 4.6374C77.6077 3.01139 74.2353 7.98049 74.2353 7.98049L71.8711 6.38374C72.7943 5.30841 73.957 4.46482 75.2658 3.92088C76.5745 3.37695 77.9926 3.14785 79.4061 3.25204C81.7183 3.39187 83.689 4.11383 84.9053 5.01464Z" fill="#E82231"/>
<path d="M101.433 9.70416C100.838 10.5497 99.5822 11.2814 97.5302 11.779C88.6229 13.9481 78.7205 13.0798 76.9937 9.42449C77.5205 8.54584 78.148 7.73166 78.8636 6.99847C80.3755 5.38344 82.2308 4.12857 84.2926 3.32649C86.3543 2.52441 88.5699 2.1956 90.7758 2.36432C98.1449 2.80985 103.459 6.87814 101.433 9.70416Z" fill="#E82231"/>
<path d="M101.432 9.70441C100.781 10.1337 99.8773 10.0296 99.1553 9.32718C97.8545 8.02637 101.259 5.71417 93.3342 4.10116C85.6171 2.52718 79.2139 6.76783 78.8789 6.99222C80.3897 5.38059 82.2426 4.12826 84.3013 3.32739C86.36 2.52653 88.5721 2.19752 90.7748 2.36458C98.1439 2.8101 103.458 6.8784 101.432 9.70441Z" fill="#F05B42"/>
<path d="M79.6009 12.2375C77.2139 12.4001 76.8887 11.1448 73.2107 8.23421C69.5326 5.32364 66.1343 8.75128 66.1343 8.75128C67.4774 4.59844 76.1343 7.00494 80.7977 9.14478C83.7343 11.0732 81.9814 12.0781 79.6009 12.2375Z" fill="#F05B42"/>
<path d="M72.1438 56.6117C71.4934 56.6117 72.2902 50.6247 69.3796 49.1646C66.469 47.7044 65.1747 49.3304 64.4495 49.8995C63.7243 50.4686 69.3796 53.376 68.6544 53.9386C67.9292 54.5012 62.9081 52.7288 62.5113 53.376C62.1146 54.0231 67.9292 56.4459 67.6072 57.1841C67.2853 57.9223 61.2951 60.8134 60.8918 61.0573C60.4886 61.3012 59.4349 61.9483 58.8755 58.9597C58.3422 56.163 56.7942 57.4638 56.5991 57.6589C59.0999 53.5711 61.9032 49.3109 63.0056 47.9646C64.3585 46.306 68.3032 44.306 71.1129 43.0312C71.1129 43.0534 71.1059 43.0749 71.0931 43.093C71.0803 43.111 71.0623 43.1247 71.0414 43.1321C70.3227 43.5386 71.8999 45.4508 71.0414 45.6947C70.1829 45.9386 69.9585 44.8069 69.4739 44.8817C68.9894 44.9564 67.4479 45.6134 70.2837 47.6199C73.1194 49.6264 72.7845 56.6117 72.1438 56.6117Z" fill="white"/>
<path d="M73.6207 52.6408C73.6207 52.6408 73.6403 52.6993 73.6695 52.8099C73.6988 52.9204 73.7443 53.0831 73.7898 53.2847C73.9162 53.8472 74.0128 54.416 74.0793 54.9887C74.1248 55.3432 74.1606 55.7302 74.1801 56.1432C74.1996 56.5562 74.1996 56.9822 74.2126 57.444C74.2256 57.9058 74.1833 58.3578 74.1313 58.8261C74.087 59.303 74.0186 59.7773 73.9264 60.2473L73.7898 60.9562C73.7216 61.1904 73.6598 61.4213 73.5947 61.6489C73.4736 62.0992 73.3237 62.5413 73.1459 62.9725C72.9916 63.383 72.8102 63.7828 72.6029 64.1692C72.5118 64.3579 72.4207 64.54 72.3329 64.7156L72.024 65.2001C71.8256 65.5058 71.6598 65.7985 71.4809 66.0392L71.0029 66.6408L70.5866 67.1676C70.5367 67.2426 70.4718 67.3064 70.396 67.3551C70.3202 67.4037 70.2351 67.436 70.1462 67.45C70.0572 67.4641 69.9663 67.4594 69.8792 67.4365C69.7921 67.4135 69.7107 67.3728 69.6402 67.3167C69.5697 67.2607 69.5116 67.1906 69.4696 67.1109C69.4276 67.0313 69.4026 66.9437 69.3962 66.8539C69.3898 66.7641 69.4021 66.6739 69.4323 66.589C69.4626 66.5042 69.5101 66.4266 69.572 66.3611V66.3416L69.6175 66.2896L70.0175 65.8278L70.4825 65.2977C70.6549 65.0863 70.8077 64.8261 71.0159 64.553L71.3151 64.127L71.5882 63.6359C71.7949 63.289 71.9774 62.9282 72.1346 62.5562C72.3187 62.1636 72.4773 61.7595 72.6094 61.3465C72.6777 61.1318 72.7459 60.9237 72.8207 60.6961L72.9768 60.0457C73.0855 59.6072 73.1701 59.1632 73.2305 58.7156C73.302 58.2733 73.3281 57.8343 73.3703 57.4148C73.4126 56.9952 73.4126 56.5757 73.3964 56.1822C73.3801 55.7887 73.3768 55.418 73.3476 55.0765C73.3049 54.3162 73.1961 53.5611 73.0224 52.8196C73.0117 52.7812 73.0087 52.741 73.0135 52.7014C73.0184 52.6618 73.031 52.6236 73.0506 52.5889C73.0702 52.5541 73.0965 52.5236 73.1279 52.499C73.1594 52.4745 73.1953 52.4563 73.2338 52.4457C73.2722 52.435 73.3124 52.432 73.3519 52.4368C73.3915 52.4417 73.4298 52.4543 73.4645 52.4739C73.4992 52.4935 73.5298 52.5198 73.5543 52.5512C73.5789 52.5826 73.5971 52.6186 73.6077 52.657L73.6207 52.6408Z" fill="#7EB1DF"/>
<path d="M73.9623 59.2744C73.9623 59.2744 72.2517 63.8468 74.19 64.7736C76.1282 65.7004 79.5265 65.1769 79.4875 65.7492C79.4485 66.3216 74.7883 66.2728 73.9591 67.1639C73.1298 68.0549 73.5168 65.9899 72.5769 65.8305C72.0013 65.7344 71.4104 65.7997 70.8696 66.0191L72.4013 63.3362L73.9623 59.2744Z" fill="#7EB1DF"/>
<path d="M76.5113 51.1581C76.5113 51.1581 74.778 59.893 77.1227 61.5093C79.4674 63.1255 81.4284 59.8833 82.9146 57.2199C84.4008 54.5564 85.9 57.2199 86.3228 56.0947C86.7455 54.9695 83.8479 54.0751 84.8951 53.3434C85.9423 52.6117 83.7569 51.376 80.5211 50.7418C77.2853 50.1077 76.7097 50.0134 76.5113 51.1581Z" fill="white"/>
<path d="M111.12 72.4749C111.12 72.4749 110.918 71.2001 110.609 69.288C110.3 67.3758 109.874 64.8327 109.416 62.2961C109.188 61.0278 108.96 59.753 108.72 58.5693C108.479 57.3855 108.271 56.2928 108.05 55.34C107.943 54.8717 107.845 54.4392 107.764 54.0587L107.481 53.1026C107.325 52.5693 107.234 52.2636 107.234 52.2636V52.2148C107.213 52.1449 107.221 52.0699 107.256 52.006C107.291 51.9421 107.349 51.8944 107.419 51.8733C107.488 51.8535 107.561 51.8606 107.625 51.8933C107.688 51.9259 107.737 51.9816 107.76 52.0489L108.047 52.9075C108.141 53.1806 108.251 53.5156 108.372 53.8831C108.492 54.2506 108.583 54.6961 108.697 55.1839C108.954 56.1237 109.221 57.2229 109.49 58.4099C109.76 59.5969 110.047 60.8522 110.32 62.1172C110.869 64.6473 111.383 67.1774 111.767 69.0831C112.151 70.9888 112.391 72.2538 112.391 72.2538C112.406 72.4136 112.361 72.5732 112.265 72.7018C112.169 72.8304 112.029 72.919 111.871 72.9505C111.714 72.9819 111.55 72.9541 111.412 72.8723C111.274 72.7906 111.171 72.6606 111.123 72.5075V72.4847L111.12 72.4749Z" fill="#7EB1DF"/>
<path d="M124.629 66.7121C120.291 68.3381 113.572 70.1885 111.731 70.2893L110.993 69.9186L109.27 58.8617C109.27 58.8617 109.943 59.4536 110.668 59.1674C111.393 58.8812 112.206 56.1105 113.1 56.13C113.995 56.1495 111.068 60.1625 111.715 62.7641C112.362 65.3658 115.923 59.4113 116.57 58.8617C117.218 58.3121 116.099 61.7885 115.123 63.4503C114.148 65.1121 116.099 66.9137 115.286 67.3853C114.473 67.8568 114.076 64.6893 113.009 65.2584C111.943 65.8275 112.112 68.4162 113.936 68.7414C115.123 68.943 121.065 66.4389 124.629 66.7121Z" fill="#7EB1DF"/>
<path d="M146.314 43.4762C145.95 42.9136 145.432 43.5836 143.267 44.7315C141.101 45.8795 138.863 48.6632 137.523 48.5234C134.099 48.1722 133.319 40.7998 133.084 40.1396C133.704 40.4614 134.236 40.9304 134.632 41.5055C134.942 41.9369 135.186 42.4113 135.358 42.9136C135.722 43.9738 137.745 43.2388 140.031 42.6307C140.665 42.4583 141.332 42.3055 141.982 42.5104C142.749 42.1102 143.635 42.0016 144.476 42.2047H144.545C144.768 42.2603 144.986 42.3365 145.195 42.4323C145.237 42.4323 145.283 42.4746 145.322 42.4941C145.552 42.5862 145.746 42.7506 145.875 42.9624C145.987 43.0015 146.087 43.0696 146.164 43.1599C146.241 43.2502 146.293 43.3594 146.314 43.4762Z" fill="#FCDAC3"/>
<path d="M140.034 42.6441C140.034 42.6441 137.321 44.114 136.414 44.9205C134.863 46.2864 134.021 45.9189 134.037 44.2539C134.053 42.5888 134.921 42.1205 134.635 41.5352C134.945 41.9665 135.189 42.441 135.36 42.9433C135.725 43.9872 137.747 43.2522 140.034 42.6441Z" fill="#FABB94"/>
<path d="M142.297 42.7637C141.591 43.0889 140.099 43.9409 140.021 43.7035C139.943 43.4661 141.152 43.2385 141.722 42.7637C142.291 42.2889 142.001 42.2271 141.969 42.2173C142.792 42.0578 143.639 42.0578 144.463 42.2173C144.193 42.149 143.013 42.4287 142.297 42.7637Z" fill="#E19874"/>
<path d="M145.871 42.8613C145.487 42.7475 141.487 44.5329 141.448 44.3312C141.409 44.1296 145.318 42.5166 145.318 42.5166C145.516 42.6079 145.702 42.7237 145.871 42.8613Z" fill="#E19874"/>
<path d="M96.1863 73.2848C95.7299 74.0051 95.1294 74.6231 94.4225 75.0999C93.7156 75.5767 92.9177 75.9021 92.079 76.0556C89.266 76.5369 80.853 81.3889 84.17 84.3808C87.4871 87.3726 101.038 78.319 109.263 81.7108C117.487 85.1027 118.502 82.3612 118.502 82.3612L114.902 75.7304L111.923 72.6182L106.895 73.5938L103.175 74.5986L96.1863 73.2848Z" fill="#E8F1F9"/>
<path d="M130.294 63.8075C126.801 66.084 122.489 67.5929 118.831 68.6108C118.235 68.0905 118.356 67.6059 119.982 67.2872C125.009 66.3116 123.042 54.7148 123.042 54.7148C123.042 54.7148 129.783 62.5978 130.196 63.5409C130.236 63.627 130.269 63.7162 130.294 63.8075Z" fill="#7EB1DF"/>
<path d="M141.575 74.3387C141.25 74.716 140.502 74.9891 139.201 75.1192C136.053 75.4607 132.668 78.8753 130.502 79.8444C130.108 80.0682 129.645 80.141 129.201 80.0493C127.344 79.4444 123.673 59.0054 123.023 54.6834C122.395 50.4753 118.795 51.9875 118.583 52.0818C119.094 51.5127 120.122 50.8298 121.426 50.2412C121.437 50.2338 121.449 50.2283 121.462 50.2249C124.518 48.846 129.026 47.9745 131.699 50.2412C134.701 52.7908 137.114 62.5111 138.873 67.7404V67.7794C139.158 68.6813 139.511 69.5607 139.927 70.4103C140.005 70.5534 140.083 70.6672 140.154 70.7745C141.338 72.3875 142.229 73.5875 141.575 74.3387Z" fill="#E82231"/>
<path d="M127.155 49.6914C127.155 49.6914 131.73 51.1288 131.184 56.5532C130.638 61.9776 128.313 63.3825 128.891 64.6605C129.47 65.9386 131.526 60.989 132.595 60.9272C133.665 60.8654 131.782 65.8247 132.595 66.3158C133.408 66.8069 134.976 63.7565 135.012 62.7938C135.047 61.8312 134.521 54.2768 134.521 54.2768L132.768 51.1158L127.155 49.6914Z" fill="#B02025"/>
<path d="M139.718 72.1603C138.492 72.4367 137.006 69.5587 135.49 69.6725C133.975 69.7863 134.241 74.1148 131.975 73.1457C129.708 72.1766 135.536 62.3814 132.791 54.7034C130.144 47.3213 122.059 50.0107 121.441 50.2351C122.654 47.8286 129.269 47.6335 131.848 50.1343C134.674 52.8725 137.084 62.5213 138.843 67.7505V67.7896C139.271 68.6337 139.624 69.5141 139.897 70.4205C140.163 71.2823 140.215 72.0432 139.718 72.1603Z" fill="#F05B42"/>
<path d="M141.754 74.3542C141.428 74.7314 140.68 75.0046 139.38 75.1346C136.235 75.4761 132.846 78.8907 130.684 79.8598C130.892 79.6582 134.261 76.481 134.814 74.7672C135.376 72.9981 135.77 71.655 137.249 72.533C138.729 73.4111 140.648 75.3363 141.754 74.3542Z" fill="#B02025"/>
<path d="M108.619 70.3184L108.746 70.3379C108.875 70.3552 109.002 70.388 109.123 70.4355C109.333 70.502 109.534 70.5903 109.725 70.6989C109.972 70.8227 110.21 70.9629 110.437 71.1184C111.806 72.0682 113.052 73.1835 114.148 74.4388C114.887 75.2669 115.58 76.1354 116.223 77.0404C116.935 78.0589 117.577 79.1248 118.145 80.2306C118.763 81.4142 119.278 82.6492 119.683 83.9217C120.113 85.2389 120.415 86.5949 120.584 87.9705L120.697 89.0144C120.717 89.3591 120.72 89.7103 120.733 90.0583C120.779 90.7542 120.704 91.4469 120.684 92.1396C120.61 92.8225 120.532 93.5054 120.411 94.1688C120.291 94.8323 120.167 95.4957 119.953 96.1201C119.783 96.7408 119.58 97.352 119.345 97.951C119.135 98.5328 118.894 99.1028 118.623 99.6583C118.137 100.677 117.594 101.667 116.997 102.624L116.141 103.857C116.008 104.052 115.875 104.24 115.745 104.426C115.615 104.611 115.468 104.774 115.335 104.936C114.798 105.587 114.359 106.192 113.933 106.627L112.632 108.032C112.464 108.197 112.24 108.291 112.004 108.295C111.769 108.298 111.541 108.211 111.368 108.052C111.195 107.892 111.09 107.672 111.075 107.437C111.06 107.202 111.135 106.971 111.286 106.79C111.291 106.789 111.297 106.789 111.302 106.79L111.341 106.744C111.341 106.744 111.803 106.273 112.61 105.444C113.029 105.044 113.455 104.488 113.985 103.876L114.389 103.405C114.515 103.232 114.645 103.057 114.776 102.875L115.615 101.736C116.199 100.852 116.734 99.9353 117.218 98.9916C117.749 97.9397 118.195 96.8467 118.551 95.7233C118.772 95.1445 118.876 94.5266 119.029 93.9184C119.182 93.3103 119.247 92.6664 119.335 92.029C119.367 91.3786 119.462 90.7282 119.432 90.0778C119.432 89.7526 119.432 89.4274 119.432 89.1022L119.354 88.1266C119.233 86.8213 118.981 85.5314 118.603 84.2762C118.25 83.0469 117.792 81.8501 117.234 80.6989C116.714 79.6169 116.121 78.5716 115.458 77.5705C114.858 76.675 114.207 75.8151 113.507 74.9949C112.483 73.756 111.307 72.6503 110.008 71.7038C109.668 71.456 109.302 71.2466 108.915 71.0794C108.813 71.0309 108.703 70.999 108.59 70.9851L108.467 70.9591C108.383 70.9411 108.309 70.8907 108.262 70.8188C108.215 70.7469 108.199 70.6594 108.216 70.5753C108.224 70.5311 108.241 70.489 108.266 70.4517C108.291 70.4144 108.324 70.3827 108.362 70.3585C108.399 70.3344 108.442 70.3184 108.486 70.3115C108.531 70.3046 108.576 70.3069 108.619 70.3184Z" fill="#7EB1DF"/>
<path d="M86.0961 56.9825C86.0967 57.2952 86.0046 57.6011 85.8313 57.8615C85.658 58.1218 85.4114 58.3249 85.1227 58.445C84.8339 58.5651 84.516 58.5969 84.2092 58.5363C83.9024 58.4757 83.6205 58.3254 83.3991 58.1045C83.1778 57.8836 83.0269 57.602 82.9657 57.2953C82.9044 56.9886 82.9355 56.6707 83.0551 56.3817C83.1746 56.0927 83.3772 55.8457 83.6371 55.6719C83.8971 55.4981 84.2028 55.4053 84.5156 55.4053C84.9342 55.4053 85.3357 55.5713 85.632 55.867C85.9283 56.1627 86.0952 56.5639 86.0961 56.9825Z" fill="#231F20"/>
<path d="M106.131 79.8598C106.131 80.1724 106.039 80.4779 105.865 80.7379C105.691 80.9978 105.444 81.2003 105.156 81.32C104.867 81.4396 104.549 81.4709 104.242 81.4099C103.936 81.3489 103.654 81.1984 103.433 80.9774C103.212 80.7563 103.062 80.4747 103.001 80.1681C102.94 79.8615 102.971 79.5438 103.091 79.255C103.21 78.9662 103.413 78.7193 103.673 78.5457C103.933 78.372 104.238 78.2793 104.551 78.2793C104.758 78.2789 104.964 78.3195 105.156 78.3987C105.348 78.478 105.522 78.5944 105.669 78.7413C105.816 78.8881 105.932 79.0625 106.012 79.2545C106.091 79.4464 106.132 79.6521 106.131 79.8598Z" fill="#231F20"/>
<path d="M91.2754 82.0124C91.2773 82.3262 91.186 82.6335 91.013 82.8953C90.84 83.1571 90.5932 83.3616 90.3037 83.4829C90.0143 83.6041 89.6954 83.6367 89.3875 83.5764C89.0795 83.5162 88.7964 83.3658 88.5741 83.1444C88.3518 82.923 88.2002 82.6405 88.1387 82.3328C88.0771 82.0251 88.1084 81.7061 88.2285 81.4162C88.3485 81.1263 88.552 80.8786 88.8131 80.7045C89.0742 80.5304 89.3811 80.4378 89.6949 80.4385C90.1129 80.4385 90.514 80.6041 90.8102 80.8991C91.1064 81.1941 91.2737 81.5944 91.2754 82.0124Z" fill="#231F20"/>
<path d="M68.6581 73.0793L60.4499 77.4337C59.8581 76.7638 59.2597 76.0646 58.6613 75.3654C54.8011 70.7963 51.0938 65.8175 51.1361 65.011C51.1556 64.6012 51.7865 63.3102 52.7621 61.5801C52.4629 63.0045 52.3914 64.6532 53.4418 65.1053C55.419 65.9638 54.5637 63.2354 55.9589 63.0045C57.354 62.7736 55.9394 67.5898 57.9621 67.7297C59.9849 67.8695 64.6093 65.6549 65.6174 66.9752C66.6255 68.2955 62.3654 67.8532 63.2076 69.902C64.0499 71.9508 68.6581 73.0793 68.6581 73.0793Z" fill="#7EB1DF"/>
<path d="M133.123 145.951C130.879 147.752 127.92 149.031 124.44 149.925C108.996 153.915 83.4451 150.377 66.4175 151.551C66.0207 151.574 65.6402 151.603 65.2728 151.632L64.4045 151.697C61.315 151.935 58.8467 152.227 56.7459 152.904C55.9249 153.154 55.1316 153.487 54.3784 153.899C54.2256 153.98 54.0825 154.071 53.9362 154.159L53.7085 154.296C53.7085 154.296 47.8549 137.824 49.8809 131.044C49.9134 130.926 49.9557 130.816 49.9947 130.702C50.0715 130.48 50.1605 130.263 50.2614 130.052C50.3047 129.95 50.3536 129.852 50.4077 129.756C50.5686 129.49 50.7619 129.245 50.9833 129.027C51.0544 128.954 51.1305 128.885 51.211 128.822C51.7443 128.406 52.5963 128.087 53.7378 127.866C54.2971 127.756 54.9118 127.665 55.5947 127.593C67.0549 126.387 95.5589 130.38 112.665 129.242C120.752 128.699 126.577 127.97 130.515 126.855C134.453 125.739 136.551 124.234 137.104 122.165C138.213 118.048 138.333 141.765 133.123 145.951Z" fill="#E82231"/>
<path d="M66.4145 151.545C60.5999 151.945 57.0292 152.169 53.9365 154.146C53.9365 154.146 46.1089 132.891 51.221 128.832C52.008 128.208 53.5235 127.818 55.6113 127.597C46.4828 131.047 62.8113 128.39 62.8113 128.39L66.4145 151.545Z" fill="#B02025"/>
<path d="M61.0969 156.075C60.3066 156.352 59.4967 156.569 58.6741 156.725C52.466 157.935 52.6904 154.882 52.6904 154.882C52.6904 154.882 49.5716 141.499 48.4562 134.569C47.6627 129.691 50.6481 128.472 53.7668 127.87C51.5847 129.054 51.0741 129.899 51.5099 130.491C52.6871 132.117 61.0188 131.877 61.0188 131.877L64.596 152.748C64.596 152.748 64.7977 154.732 61.0969 156.075Z" fill="#F05B42"/>
<path d="M61.0969 156.075C60.3066 156.352 59.4967 156.569 58.6741 156.725C52.466 157.935 52.6904 154.882 52.6904 154.882C52.6904 154.882 49.5716 141.499 48.4562 134.569C47.6627 129.691 50.6481 128.472 53.7668 127.87C51.5847 129.054 51.0741 129.899 51.5099 130.491C51.6237 133.659 52.8139 154.602 61.0969 156.075Z" fill="#E82231"/>
<path d="M133.123 145.951C130.879 147.752 127.92 149.031 124.44 149.925C132.31 141.099 130.531 126.855 130.531 126.855C134.502 125.733 136.567 124.234 137.12 122.165C138.212 118.048 138.333 141.765 133.123 145.951Z" fill="#F05B42"/>
<path d="M77.9525 98.5001C78.4354 98.0174 78.7657 97.4032 78.9021 96.7342C78.9021 96.7082 78.9021 96.6854 78.9021 96.6497C78.9021 96.6139 79.2826 94.4578 79.8257 91.3619C80.7668 91.6882 81.7565 91.8521 82.7525 91.8464C85.7672 91.8464 89.185 90.3342 91.7379 87.1407C92.0662 87.8057 92.4711 88.4299 92.9444 89.0009C93.7211 89.9367 94.6986 90.6857 95.8042 91.1924C96.9099 91.6991 98.1154 91.9504 99.3314 91.9277C101.419 91.8996 103.444 91.2083 105.113 89.9537C106.557 91.296 108.47 92.0187 110.44 91.9667C113.52 91.9667 117.003 90.0155 118.245 87.609C118.665 86.8697 118.79 85.9991 118.596 85.1714C118.402 84.3436 117.903 83.6196 117.198 83.144C117.164 82.4021 117.225 81.6588 117.38 80.9326C117.413 80.731 117.455 80.5001 117.504 80.2334C113.757 71.4269 108.792 70.8513 108.792 70.8513L105.982 70.5976L95.4062 69.5928L94.4956 69.5049C94.4078 69.6123 94.32 69.7163 94.2322 69.8302C94.1704 69.7033 94.1086 69.583 94.0403 69.4659L64.4891 66.7082C64.4891 66.7082 62.2647 64.5098 58.7883 74.7115C58.7102 74.9228 58.6419 75.1342 58.5704 75.3619C57.92 77.3456 57.2241 79.7586 56.4924 82.705C54.0045 92.7602 54.6615 99.4399 57.2338 103.843C64.2192 115.811 88.668 112.194 98.6452 112.194C105.474 112.194 111.523 108.562 115.393 103.294C116.412 101.9 117.277 100.399 117.972 98.8188C116.865 98.2784 115.646 98.0044 114.414 98.0188C112.226 98.0188 109.803 99.0301 108.128 100.494C106.577 99.1927 104.128 98.0188 100.34 98.0188C98.159 98.0264 96.0024 98.4742 93.9991 99.3353C91.9958 100.196 90.1869 101.453 88.681 103.03C88.3898 102.115 87.9237 101.264 87.3086 100.526C86.6301 99.714 85.7786 99.0639 84.8164 98.6233C83.8542 98.1828 82.8057 97.9629 81.7476 97.9797C80.47 97.9905 79.2066 98.249 78.0273 98.7407C78.0273 98.7407 77.4029 99.0041 77.9428 98.5066L77.9525 98.5001Z" fill="#7EB1DF"/>
<path d="M127.608 99.1446C126.395 97.6909 124.535 96.8942 122.378 96.8942C120.752 96.8942 119.078 97.5283 117.559 98.673C116.152 97.4893 114.36 96.8622 112.522 96.9104C110.333 96.9104 107.91 97.9186 106.242 99.382C104.687 98.0812 102.235 96.9104 98.437 96.9104C96.2586 96.9168 94.1039 97.3631 92.1022 98.2225C90.1005 99.082 88.293 100.337 86.7882 101.912C86.4937 100.997 86.0268 100.147 85.4126 99.408C84.7332 98.5983 83.8818 97.9501 82.9204 97.5108C81.959 97.0714 80.9118 96.8519 79.8549 96.8682C78.5782 96.8777 77.3156 97.1362 76.1378 97.6291C76.1378 97.6291 75.5199 97.8991 76.0565 97.3982C76.5429 96.919 76.8748 96.3051 77.0094 95.6356C77.0094 95.6129 77.0094 95.5836 77.0094 95.5608C77.0094 95.5381 77.3866 93.3592 77.9329 90.2665C78.8737 90.5939 79.8636 90.7578 80.8598 90.7511C83.8711 90.7511 87.289 89.2356 89.8386 86.0454C90.1654 86.7112 90.5705 87.3357 91.0451 87.9056C91.8219 88.8422 92.7998 89.5917 93.9061 90.0984C95.0125 90.6052 96.2188 90.856 97.4354 90.8324C99.5215 90.802 101.544 90.1096 103.211 88.8552C104.652 90.2005 106.564 90.9248 108.535 90.8714C111.614 90.8714 115.097 88.9202 116.339 86.5104C116.761 85.772 116.887 84.9014 116.693 84.0738C116.498 83.2461 115.998 82.5226 115.292 82.0486C115.259 81.3089 115.321 80.568 115.474 79.8438C115.904 77.369 117.585 69.2161 117.689 68.7088C117.865 67.8796 117.714 67.0145 117.267 66.294C116.821 65.5735 116.113 65.0534 115.292 64.8421C115.042 64.78 114.786 64.7483 114.528 64.7478H106.993C106.785 64.7507 106.577 64.7713 106.372 64.8096C106.092 64.8678 105.82 64.9607 105.562 65.086C104.267 64.349 102.799 63.9717 101.309 63.9934C97.6175 63.9934 94.5541 65.9446 92.3524 68.7478C92.0245 68.0714 91.6161 67.437 91.1362 66.8584C90.3603 65.9171 89.3816 65.1635 88.2733 64.6538C87.165 64.1441 85.9558 63.8917 84.7362 63.9153C82.6288 63.9459 80.587 64.6527 78.9118 65.9316C77.4729 64.5895 75.5649 63.8656 73.598 63.9153C71.8354 63.9539 70.1156 64.4661 68.6191 65.3982C68.2673 65.1239 67.8635 64.9237 67.4321 64.8096C67.181 64.7478 66.9233 64.7161 66.6646 64.7153H59.0874C58.879 64.718 58.6712 64.7387 58.4663 64.7771C58.187 64.8353 57.916 64.9281 57.6598 65.0535C56.3632 64.3172 54.8937 63.94 53.4029 63.9608C51.7862 63.9588 50.1923 64.3411 48.7524 65.0763C48.7435 62.9196 47.999 60.8305 46.6419 59.1543C44.4077 56.3999 40.5898 54.7966 35.8939 54.6438C32.0533 54.5244 28.215 54.947 24.4923 55.899C23.8493 56.0373 23.2607 56.3602 22.7986 56.8281C22.3364 57.296 22.0209 57.8886 21.8907 58.5332C21.8907 58.556 21.8907 58.5787 21.8907 58.6015L18.0012 80.2828C17.2695 84.4129 18.45 86.8812 19.5752 88.2243C20.0111 88.7252 20.5146 89.163 21.0711 89.5251C20.1299 89.6648 19.1964 89.8525 18.2744 90.0877C17.6276 90.2294 17.0366 90.5575 16.5742 91.0314C16.1119 91.5053 15.7985 92.1043 15.6728 92.7543C15.6709 92.776 15.6709 92.7977 15.6728 92.8194L11.1199 118.793C10.9585 119.607 11.1109 120.452 11.5463 121.158C11.9818 121.865 12.6682 122.38 13.4679 122.602C14.3362 122.881 17.7703 123.857 23.7281 123.857C26.5246 123.887 29.2926 123.293 31.8301 122.117C34.3675 120.941 36.6103 119.214 38.3947 117.06C38.814 118.036 39.3727 118.947 40.0533 119.762C42.2744 122.403 45.624 123.857 49.4842 123.857C53.0113 123.832 56.4283 122.625 59.1882 120.429C59.3187 121.018 59.61 121.558 60.0298 121.99C60.4496 122.423 60.9812 122.73 61.5655 122.878C61.8142 122.941 62.0697 122.974 62.3264 122.975H69.9199C70.1254 122.975 70.3303 122.953 70.5313 122.91C71.1183 122.794 71.6641 122.524 72.1135 122.129C72.5629 121.734 72.9 121.227 73.0907 120.66C73.1817 120.79 73.2825 120.914 73.3866 121.037C74.8338 122.748 76.9801 123.694 79.4289 123.694C81.8777 123.694 84.5606 122.452 86.2159 120.732C88.4243 122.737 91.3148 123.823 94.2972 123.769C97.9004 123.769 101.035 122.273 103.364 120.462C103.526 121.176 103.926 121.814 104.499 122.271C105.072 122.727 105.783 122.976 106.515 122.975H114.131C114.902 122.971 115.647 122.699 116.24 122.207C116.833 121.715 117.237 121.033 117.383 120.276C117.382 120.257 117.382 120.237 117.383 120.218L118.827 112.065C119.283 112.187 119.753 112.25 120.226 112.25C124.541 112.25 128.105 109.187 128.899 104.797C129.286 102.618 128.83 100.608 127.608 99.1446ZM43.1167 94.5917C42.96 95.4262 42.988 96.2849 43.1987 97.1074C43.4094 97.9299 43.7976 98.6963 44.3362 99.3527C44.3817 99.4048 44.4272 99.447 44.4728 99.5023C43.9785 99.8194 43.5029 100.165 43.0484 100.536C42.6641 98.026 41.6078 95.6662 39.9915 93.7072C37.8646 91.1706 34.8272 89.5608 31.2825 89.0438C32.6516 88.1917 33.7996 87.0925 34.4207 85.9121C35.1947 84.4682 35.0711 82.4844 33.1394 81.2291C33.0703 80.6893 33.0703 80.1429 33.1394 79.6031C35.7776 79.4931 38.3657 78.8469 40.7459 77.7039C40.2842 81.6747 41.1655 85.382 43.1752 87.7852C43.9871 88.7598 45.0178 89.5286 46.1833 90.0291C45.3892 90.5385 44.7075 91.2048 44.1801 91.9872C43.6528 92.7696 43.2909 93.6514 43.1167 94.5787V94.5917Z" fill="white"/>
<path d="M24.8949 59.0083C24.9061 58.9535 24.9358 58.9042 24.979 58.8687C25.0223 58.8332 25.0764 58.8136 25.1323 58.8132C28.6028 57.9031 32.1873 57.5032 35.773 57.6262C41.838 57.8213 46.5209 60.8782 45.49 66.7059C44.7746 70.9335 41.1291 76.9335 30.4982 76.4977L30.1437 78.4034C29.2689 84.6701 32.2835 83.3173 31.6884 84.4262C30.9372 85.8571 28.16 87.6392 25.7827 87.6392C22.5697 87.6392 20.1892 85.6197 21.064 80.7026L24.8949 59.0083ZM33.064 61.9059L31.1974 72.4164C34.3713 72.4164 36.7486 69.5221 37.2657 66.6246C37.7795 63.6522 36.1177 61.4311 33.064 61.9059Z" fill="#E82231"/>
<path d="M65.6919 84.6957C65.087 85.9152 62.7651 87.3916 60.6512 87.3916C58.0496 87.3916 56.2903 85.7656 56.2903 83.0664C54.5504 85.5347 52.1992 87.3526 49.5455 87.3526C44.7683 87.3526 43.061 82.0843 43.9358 77.0046C44.8431 71.8014 48.4073 66.7314 53.3667 66.7314C55.9683 66.7314 57.5748 68.2111 58.3683 70.3347C58.635 68.7445 58.8268 67.7168 58.8268 67.7168C58.8389 67.6615 58.8664 67.6108 58.9061 67.5705C58.9458 67.5302 58.9961 67.502 59.0512 67.4892H66.635C66.6552 67.4941 66.6742 67.503 66.6909 67.5154C66.7076 67.5277 66.7216 67.5433 66.7322 67.5612C66.7428 67.579 66.7497 67.5989 66.7526 67.6194C66.7554 67.64 66.7541 67.661 66.7488 67.681C66.7488 67.681 64.9667 76.3217 64.5114 78.9363C63.461 84.9656 66.2675 83.6745 65.6919 84.6957ZM57.4285 77.216C57.9228 74.377 57.3537 72.0648 55.4968 72.0648C53.6398 72.0648 52.2447 74.377 51.7407 77.216C51.2366 80.055 51.8187 82.3347 53.6756 82.3347C55.5325 82.3347 56.9407 80.0583 57.435 77.2127L57.4285 77.216Z" fill="#E82231"/>
<path d="M90.3164 77.3362C89.4058 82.5395 85.8806 87.6127 80.9147 87.6127C78.2969 87.6127 76.7066 86.133 75.9131 84.0094C74.8887 89.7362 73.9619 95.0045 73.9619 95.0045C73.9489 95.0599 73.9207 95.1105 73.8805 95.1507C73.8403 95.191 73.7896 95.2192 73.7343 95.2322H66.1895C66.1895 95.2322 66.0009 95.1932 66.079 95.0436C66.079 95.0436 69.0058 78.0615 69.4513 75.4436C70.5115 69.4175 68.0107 70.7054 68.5408 69.681C69.1456 68.468 71.4676 66.9883 73.5814 66.9883C76.183 66.9883 77.9391 68.6143 77.9814 71.3135C79.7245 68.8094 82.0757 66.9883 84.7261 66.9883C89.5196 66.9915 91.2237 72.2631 90.3164 77.3362ZM82.544 77.2127C83.0351 74.3736 82.466 72.0972 80.609 72.0972C78.7521 72.0972 77.357 74.3736 76.8562 77.2127C76.3554 80.0517 76.9343 82.3704 78.7912 82.3704C80.6481 82.3704 82.0497 80.0582 82.544 77.2127Z" fill="#E82231"/>
<path d="M113.639 84.6957C113.035 85.9152 110.713 87.3916 108.599 87.3916C105.997 87.3916 104.241 85.7656 104.241 83.0664C102.498 85.5347 100.147 87.3526 97.4931 87.3526C92.7158 87.3526 91.0118 82.0843 91.8801 77.0046C92.7939 71.8014 96.3549 66.7314 101.311 66.7314C103.913 66.7314 105.519 68.2111 106.313 70.3347C106.579 68.7445 106.771 67.7168 106.771 67.7168C106.784 67.6613 106.812 67.6105 106.852 67.5702C106.892 67.5299 106.943 67.5018 106.999 67.4892H114.579C114.599 67.4941 114.618 67.503 114.635 67.5154C114.652 67.5277 114.666 67.5433 114.677 67.5612C114.687 67.579 114.694 67.5989 114.697 67.6194C114.7 67.64 114.698 67.661 114.693 67.681C114.693 67.681 112.911 76.3217 112.456 78.9363C111.405 84.9656 114.212 83.6745 113.639 84.6957ZM105.376 77.216C105.87 74.377 105.301 72.0648 103.444 72.0648C101.587 72.0648 100.192 74.377 99.6914 77.216C99.1906 80.055 99.7662 82.3347 101.623 82.3347C103.48 82.3347 104.885 80.0583 105.366 77.2127L105.376 77.216Z" fill="#E82231"/>
<path d="M23.7087 120.621C17.4941 120.621 14.3071 119.486 14.3071 119.486C14.2806 119.484 14.2549 119.477 14.2319 119.464C14.2089 119.45 14.1893 119.432 14.1748 119.41C14.1602 119.388 14.151 119.362 14.1481 119.336C14.1451 119.31 14.1483 119.283 14.1575 119.258L18.7104 93.2419C18.717 93.184 18.7426 93.13 18.7832 93.0882C18.8238 93.0464 18.8771 93.0193 18.9348 93.011C18.9348 93.011 22.5347 91.9541 28.7559 91.9541C37.0161 91.9541 41.299 98.2858 39.8974 106.244C38.4957 114.201 32.6161 120.621 23.7087 120.621ZM22.951 116.452C27.6144 116.676 30.6063 111.411 31.5559 106.068C32.3526 101.483 31.4421 95.3752 26.551 96.0972L22.951 116.452Z" fill="#E82231"/>
<path d="M49.4619 120.621C43.3611 120.621 39.6863 116.036 40.6814 110.312C41.6765 104.589 46.9741 100 53.0781 100C59.1822 100 62.896 104.624 61.9074 110.312C61.3512 113.208 59.8054 115.82 57.5348 117.7C55.2643 119.581 52.4102 120.614 49.4619 120.621ZM50.1806 116.338C52.457 116.338 53.8229 113.649 54.4277 110.312C54.9968 107.06 54.5416 104.283 52.3432 104.283C50.1448 104.283 48.7042 107.05 48.1351 110.312C47.5659 113.496 47.9855 116.338 50.1806 116.338Z" fill="#E82231"/>
<path d="M84.4667 117.809C83.8163 118.98 81.5399 120.459 79.4228 120.459C76.3919 120.459 74.2196 118.261 74.8374 114.697C75.0651 113.396 75.67 109.959 76.1643 107.344C76.8147 103.552 72.7496 104.879 71.9171 109.35C71.1594 113.676 70.135 119.51 70.135 119.51C70.1228 119.565 70.0953 119.616 70.0557 119.657C70.016 119.698 69.9658 119.727 69.9106 119.741H62.3269C62.2866 119.73 62.2521 119.704 62.2308 119.668C62.2095 119.632 62.2031 119.589 62.2131 119.549C62.2131 119.549 64.0309 110.908 64.4895 108.293C65.5529 102.264 62.7074 103.552 63.2732 102.528C63.8814 101.315 66.1578 99.835 68.2781 99.835C70.9318 99.835 72.7139 101.507 72.7139 104.271C74.948 101.019 77.8683 99.835 79.8683 99.835C82.7106 99.835 84.6846 102.3 83.9984 106.089C83.735 107.685 83.4326 109.162 82.935 112.007C81.8846 118.05 85.0326 116.749 84.4667 117.809Z" fill="#E82231"/>
<path d="M104.495 114.472C103.774 116.072 99.8386 120.547 94.3101 120.547C88.5865 120.547 84.8792 115.922 85.8548 110.202C86.8012 104.674 91.9589 99.8867 98.4792 99.8867C104.694 99.8867 106.665 103.789 106.209 106.485C105.149 112.436 98.0987 113.155 93.2825 112.322C93.9329 116.114 98.8955 116.492 103.972 113.916C104.164 113.799 104.349 113.76 104.466 113.874C104.583 113.988 104.645 114.147 104.495 114.472ZM93.5394 108.784C96.876 109.083 98.7719 107.838 99.1101 105.789C99.302 104.768 98.6191 103.896 97.4451 103.971C97.424 103.992 97.3966 104.006 97.367 104.01H97.2532C96.9209 104.062 96.6005 104.172 96.3069 104.335C94.902 105.119 94.0337 106.937 93.5394 108.794V108.784Z" fill="#E82231"/>
<path d="M125.854 104.12C125.285 107.268 122.82 108.998 120.241 108.998C119.334 108.998 118.576 108.471 118.498 108.241C118.31 107.899 118.537 107.636 118.651 106.878C118.879 105.701 118.726 105.21 118.157 105.21C117.061 105.21 116.531 107.141 116.111 109.493C115.35 113.775 114.329 119.538 114.329 119.538C114.29 119.73 114.141 119.73 114.141 119.73H106.518C106.518 119.73 106.368 119.73 106.404 119.538C106.404 119.538 108.225 110.936 108.68 108.319C109.737 102.289 106.937 103.577 107.467 102.559C108.118 101.343 110.42 99.8633 112.544 99.8633C115.084 99.8633 116.791 101.379 116.869 103.997C118.345 101.496 120.544 99.8633 122.397 99.8633C124.788 99.873 126.342 101.388 125.854 104.12Z" fill="#E82231"/>
<path d="M48.8604 98.2449C47.0067 98.2449 45.8848 96.8497 46.1872 95.1099C46.3585 94.233 46.827 93.4421 47.5136 92.8704C48.2002 92.2987 49.0629 91.9813 49.9563 91.9717C51.8132 91.9717 52.9449 93.3766 52.6457 95.1099C52.4755 95.99 52.005 96.7837 51.3146 97.3555C50.6243 97.9272 49.7568 98.2416 48.8604 98.2449Z" fill="#E82231"/>
<path d="M58.3745 98.2449C56.5209 98.2449 55.3989 96.8497 55.7014 95.1099C55.8728 94.2325 56.3417 93.4411 57.029 92.8694C57.7163 92.2976 58.5798 91.9805 59.4737 91.9717C61.3306 91.9717 62.4591 93.3766 62.1599 95.1099C61.9902 95.9903 61.5199 96.7843 60.8294 97.3562C60.1389 97.9281 59.2711 98.2422 58.3745 98.2449Z" fill="#E82231"/>
<defs>
<radialGradient id="paint0_radial_4206_9303" cx="0" cy="0" r="1" gradientUnits="userSpaceOnUse" gradientTransform="translate(89.1789 38.9597) scale(71.5187 71.5187)">
<stop stop-color="#781216"/>
<stop offset="1" stop-color="#240E0F"/>
</radialGradient>
</defs>
</svg>
