<svg width="1744" height="360" viewBox="0 0 1744 360" fill="none" xmlns="http://www.w3.org/2000/svg">
<g clip-path="url(#clip0)">
<path d="M300.458 274.09C300.511 273.229 300.465 272.365 300.319 271.515C299.207 264.885 293.902 260.766 286.453 260.766C283.721 260.802 281.01 261.238 278.404 262.061L277.117 262.493L254.009 282.11C249.026 282.637 243.392 283.119 237.034 283.537C232.548 283.844 227.382 283.99 221.668 283.99C204.721 283.99 185.236 282.702 166.402 281.459C149.573 280.354 133.753 279.307 121.365 279.307C117.037 279.27 112.709 279.453 108.399 279.856C107.836 279.915 107.295 279.988 106.702 280.061L106.424 280.098C105.831 280.185 105.268 280.259 104.595 280.376L104.346 280.419L103.614 280.551L101.492 280.968L101.412 281.049C92.6312 283.288 83.7044 289.098 86.0458 303.644C88.3873 318.19 94.5117 344.678 95.558 349.163C95.7774 351.605 96.8078 353.902 98.4849 355.69C101.148 358.551 105.07 360 110.192 360C112.594 359.969 114.987 359.712 117.341 359.232C119.546 358.818 121.716 358.233 123.831 357.483C131.207 354.819 134.251 350.78 135.487 347.59C140.434 347.29 146.002 347.144 152.463 347.144C162.129 347.144 172.278 347.466 183.026 347.788C193.899 348.132 205.146 348.476 215.953 348.476C237.656 348.476 253.46 347.012 265.709 343.851C275.009 341.451 282.26 338.1 287.88 333.607C300.765 323.261 301.519 283.793 300.458 274.09Z" fill="white"/>
<path d="M280.651 268.976C280.651 268.976 292.11 265.141 293.42 272.941C294.729 280.741 274.856 289.537 274.856 289.537L263.559 283.478L280.651 268.976Z" fill="#B02025"/>
<path d="M318.495 96.9731C318.304 96.2998 318.023 95.6551 317.661 95.056L317.449 94.7048C317.096 94.1936 316.694 93.7182 316.249 93.2853L316.095 93.1536C315.937 92.996 315.771 92.847 315.598 92.7073L314.076 91.5146H313.834C313.834 91.5146 313.607 90.717 313.49 90.6658L313.051 90.439C312.273 90.0832 311.465 89.7967 310.637 89.5829L310.461 89.5463L310.234 89.4878C309.571 89.354 308.902 89.2539 308.229 89.1877H307.673C307.241 89.1188 306.798 89.2183 306.437 89.4658H306.1C305.844 89.1585 305.581 89.1731 305.185 89.1951C304.79 89.217 304.454 89.2463 304.051 89.2902C303.649 89.3341 303.451 89.356 303.1 89.4073L302.559 89.4804C302.416 89.4952 302.274 89.5197 302.134 89.5536C301.498 89.6634 300.861 89.7877 300.21 89.9268L299.932 89.9853C298.315 90.3512 296.712 90.7975 295.3 91.178L294.246 91.4634L292.966 91.8073L292.768 91.8512L292.571 91.9024C292.475 91.8716 292.377 91.8495 292.278 91.8365V91.3682L290.815 89.978C290.566 89.6487 290.31 89.3414 290.083 89.0634C289.97 88.9302 289.851 88.8032 289.724 88.6829C289.402 88.3463 289.088 88.0317 288.802 87.7829C288.679 87.6642 288.55 87.5519 288.415 87.4463C288.049 87.139 287.683 86.8609 287.39 86.656L287.032 86.4073C286.515 86.0693 285.972 85.7732 285.407 85.5219C283.722 84.7428 281.811 84.6023 280.029 85.1268L278.859 85.5219L278.288 86.0268C277.519 86.6076 276.895 87.3591 276.466 88.2219L276.298 88.5951C275.324 90.9731 275.566 93.9146 277.541 102.41L273.51 103.902C271.831 103.626 270.133 103.487 268.432 103.485C261.846 103.485 256.563 105.483 253.717 108.907C251.725 109.875 249.854 111.074 248.141 112.478C247.102 112.756 246.195 112.976 245.398 113.137L244.739 113.268L244.176 113.349C241.402 111.885 233.895 104.407 230.273 98.9195C226.337 92.9414 219.685 91.7707 214.585 91.2804C214.717 90.9877 214.834 90.6878 214.981 90.3512C215.039 90.1902 215.105 90.0292 215.171 89.8609C215.346 89.3707 215.515 88.8804 215.654 88.3975C217.117 83.4292 216.912 77.9414 215.098 72.0658L215.573 72.6438L214.673 69.439C214.768 68.517 214.768 67.5877 214.673 66.6658C214.404 63.9296 213.409 61.315 211.79 59.0926L208.732 48.117C210.598 44.9487 210.195 41.5756 207.707 38.6487C207.905 37.5292 208.11 36.1975 208.278 34.7268V34.2804C208.395 33.1926 208.483 32.1317 208.541 31.0975C212.2 29.6999 214.849 27.8195 216.488 25.478C217.655 23.8852 218.359 22.001 218.523 20.0333C218.687 18.0656 218.304 16.0908 217.417 14.3268C213.81 6.76092 201.861 0.907266 188.361 0.0804365C187.461 -5.13262e-05 186.568 -5.13266e-05 185.698 -5.13266e-05C180.247 -0.0322782 174.85 1.07948 169.856 3.26336C167.539 2.61836 165.16 2.22102 162.759 2.078C159.118 1.81328 155.463 2.3226 152.034 3.57243C148.605 4.82226 145.48 6.78424 142.863 9.32922V9.32922C131.829 9.17556 128.332 14.9121 127.256 18.2707C127.06 18.828 126.911 19.4007 126.81 19.9829C125.083 29.356 130.359 36.6658 140.654 39.3512C141.199 39.8767 141.669 40.4751 142.051 41.1292C142.374 42.7243 142.603 44.3368 142.739 45.9585C142.461 46.2292 142.073 46.5804 141.788 46.8365C139.395 49.0317 136.124 52.017 137.566 56.2097C137.765 56.7572 138.044 57.2725 138.393 57.739C138.305 57.8414 138.232 57.9438 138.151 58.0536C138.071 58.1634 137.939 58.3682 137.895 58.4414C137.613 58.8771 137.356 59.3291 137.127 59.7951C137.054 59.956 136.981 60.1317 136.907 60.3219C136.716 60.7642 136.555 61.2189 136.424 61.6829C136.381 61.8585 136.337 62.0268 136.271 62.3048C136.173 62.7323 136.097 63.1646 136.044 63.5999C136.044 63.8414 135.993 64.0682 135.978 64.2731C135.963 64.478 135.934 64.8292 135.934 65.1292C135.934 65.4292 135.934 65.5902 135.934 65.8609V66.0877C135.984 66.6965 136.079 67.3007 136.22 67.8951L136.256 68.0634C136.422 68.7436 136.65 69.4073 136.937 70.0463L137.002 70.178C137.295 70.8177 137.647 71.4278 138.056 71.9999L138.21 72.2121C138.626 72.7805 139.099 73.3051 139.622 73.778L139.885 74.0121C140.456 74.5056 141.074 74.9418 141.729 75.3146L141.934 75.4243C142.596 75.7825 143.289 76.0788 144.005 76.3097L144.202 76.3756C144.393 78.0146 144.634 79.8512 145.044 81.8268C142.899 83.8323 141.242 86.3029 140.2 89.0487L139.666 89.2902C129.202 94.039 122.383 98.2902 119.405 101.934C116.632 105.337 110.302 115.054 105.217 123.3L104.91 123.505L104.361 124.654C101.785 128.868 99.4659 132.805 97.6293 136.068C93.6927 143.1 93.2976 144.849 93.239 146.312C93.1805 147.776 92.9829 151.332 109.49 171.11C108.217 175.258 106.929 179.89 105.663 185.012C100.059 207.615 100.798 224.524 107.932 236.744C119.815 257.093 149.332 259.427 170.507 259.427C178.432 259.427 186.02 259.054 192.715 258.739C197.881 258.483 202.351 258.263 205.885 258.263C215.983 258.264 225.846 255.214 234.181 249.512C235.475 249.761 236.811 249.677 238.065 249.271C239.319 248.864 240.449 248.146 241.351 247.185L244.19 244.098C245.032 243.234 245.771 242.29 246.568 241.295L247.651 239.934L251.624 234.417L252.305 233.305C253.554 231.275 254.692 229.18 255.715 227.027C256.261 225.929 256.75 224.803 257.178 223.654L257.493 222.863C257.983 221.67 258.401 220.448 258.744 219.205L259.015 218.327C259.377 217.196 259.666 216.042 259.878 214.873C259.966 214.419 260.054 213.973 260.163 213.534L260.222 213.212C260.522 211.515 260.72 209.824 260.888 208.244V207.834C260.888 207.402 260.924 206.978 260.946 206.539C261.041 205.266 261.061 203.988 261.005 202.712V202.017C261.005 201.446 260.968 200.868 260.932 200.29L260.646 197.59C260.248 194.165 259.513 190.788 258.451 187.507C257.702 185.143 256.797 182.831 255.744 180.585C256.476 180.102 257.207 179.561 257.939 178.998C260.032 177.417 262.534 175.537 265.988 174.812C268.249 182.195 270.1 184.8 273.166 185.854C273.949 186.101 274.766 186.224 275.588 186.219H275.837L279.071 185.18H280.417L281.383 184.134C283.408 182.977 285.362 181.702 287.237 180.315C290.72 177.856 295.059 174.79 298.212 174.461C300.486 174.298 302.708 173.704 304.761 172.712H306.334L307.659 170.166C311.134 165.388 307.366 160.119 304.424 156.154C303.793 154.215 303.023 152.325 302.12 150.497C301.344 148.171 300.495 145.376 299.668 142.705L299.551 142.332C298.176 137.839 296.624 132.819 294.971 128.085L295.066 127.749C299.016 124.471 302.616 120.793 305.807 116.773C307.741 114.294 309.846 111.954 312.107 109.771C315.232 106.624 317.705 104.144 318.466 100.99C318.821 99.676 318.831 98.2924 318.495 96.9731V96.9731ZM243.759 162.249L245.383 161.846C245.302 162.534 245.229 163.185 245.163 163.822C244.724 163.28 244.256 162.754 243.759 162.249Z" fill="white"/>
<path d="M305.698 191.832C305.828 209.51 302.459 227.04 295.784 243.411C289.109 259.782 279.261 274.669 266.806 287.217C254.351 299.764 239.536 309.722 223.215 316.518C206.895 323.313 189.39 326.812 171.711 326.812C154.032 326.812 136.527 323.313 120.206 316.518C103.886 309.722 89.0709 299.764 76.6161 287.217C64.1613 274.669 54.3127 259.782 47.6378 243.411C40.9629 227.04 37.5937 209.51 37.7244 191.832C37.7244 117.842 97.7244 57.8488 171.715 57.8488C245.705 57.8488 305.698 117.842 305.698 191.832Z" fill="url(#paint0_radial)"/>
<path d="M171.715 330C95.5073 330 33.5171 268.046 33.5171 191.832C33.5171 115.617 95.5073 53.6415 171.715 53.6415C247.922 53.6415 309.912 115.61 309.912 191.832C309.912 268.054 247.915 330 171.715 330ZM171.715 62.0268C100.146 62.0268 41.9244 120.256 41.9244 191.802C41.9244 263.349 100.146 321.593 171.715 321.593C243.283 321.593 301.498 263.415 301.498 191.832C301.498 120.249 243.276 62.0561 171.715 62.0561V62.0268Z" fill="white"/>
<path d="M243.853 232.405C235.139 244.259 221.551 252.439 206.163 252.439C183.722 252.439 128.712 260.583 112.995 233.671C107.2 223.756 105.722 208.727 111.327 186.11C112.966 179.48 114.524 174.051 115.988 169.588C116.163 169.076 116.317 168.6 116.485 168.124C124.307 145.171 129.312 150.117 129.312 150.117L198.875 156.585L222.736 158.832L229.058 159.402C229.058 159.402 243.736 161.1 252.136 190.441C256.336 205.098 252.539 220.58 243.853 232.405Z" fill="#D5E4F4"/>
<path d="M252.839 149.349C252.839 149.349 248.332 176.188 251.222 176.188C254.112 176.188 259.395 167.407 271.592 168.659C283.79 169.91 273.217 150.198 273.217 150.198L267.4 148.112L252.839 149.349Z" fill="#B02025"/>
<path d="M313.205 99C312.473 102.088 306.371 106.317 301.359 112.902C295.651 120.476 284.588 128.663 280.293 131.715C279.173 132.505 278.515 132.937 278.515 132.937L278.837 129.402L280.468 111.337C280.468 111.337 284.602 106.946 284.017 104.151C283.468 101.598 280.981 92.1805 281.72 90.3512C281.793 90.2122 281.851 90.1098 281.968 90.0805C282.467 89.9821 282.984 90.0597 283.432 90.3C285.151 91.0317 287.478 93.3732 288.554 96.5707C290.017 100.844 303.385 92.1147 310.673 95.5098C312.18 96.2049 312.971 96.9732 313.198 97.8073C313.305 98.1973 313.307 98.6087 313.205 99V99Z" fill="#FABB94"/>
<path d="M313.205 99C312.473 102.088 306.371 106.317 301.358 112.902C295.651 120.476 284.588 128.663 280.293 131.715L278.829 129.402L280.461 111.337C280.461 111.337 284.595 106.946 284.01 104.151C283.461 101.598 280.973 92.1804 281.712 90.3512L281.961 90.0804C281.961 90.0804 283.461 101.056 285.729 103.595C287.997 106.134 284.639 113.049 290.851 112.88C297.063 112.712 311.375 97.3902 313.205 99Z" fill="#E19874"/>
<path d="M285.231 136.888C282.842 139.446 280.137 141.691 277.183 143.568C269.324 148.69 259.622 152.085 251.39 154.376C244.139 156.373 238.058 157.5 235.424 158.144C234.915 158.289 234.38 158.316 233.858 158.224L237.985 168.9L201.802 172.141L186.788 108.629L206.588 95.9488C206.588 95.9488 208.168 95.9927 210.422 96.2195C215.544 96.7463 224.163 98.261 225.853 102.556C228.29 108.732 238.951 117.454 243.319 118.61C247.688 119.766 281.61 106.617 281.61 106.617C281.61 106.617 286.431 106.185 288.846 112.105C289.181 112.898 289.441 113.721 289.622 114.563C291.524 123.051 287.844 134.02 285.231 136.888Z" fill="#E8F1F9"/>
<path d="M201.78 172.127C201.78 172.127 155.836 169.046 155.99 170.298C156.144 171.549 139.644 187.763 134.544 187.595C132.524 187.522 126.539 181.602 120.012 174.227C118.68 172.72 117.334 171.146 115.988 169.573C107.302 159.293 98.9609 148.09 99.056 146.276C99.0999 145.354 100.519 142.449 102.715 138.556C102.715 138.556 102.715 138.512 102.715 138.498C104.595 135.176 106.98 131.137 109.497 127.032C109.515 127.01 109.534 126.99 109.556 126.973C115.197 117.783 121.49 108.198 123.949 105.161C127 101.437 135.89 96.9439 142.19 94.0902C146.054 92.3049 148.966 91.1634 148.966 91.1634L189.349 105.9L194.624 134.063L198.876 156.585L201.78 172.127Z" fill="#D5E4F4"/>
<path d="M288.817 112.237C284.581 113.151 280.651 112.537 278.156 112.273C274.637 111.907 277.761 127.302 275.961 127.361C274.161 127.419 273.298 117.3 264.686 117.359C256.073 117.417 258.429 145.163 254.793 145.266C251.156 145.368 253.11 129.841 248.368 129.534C243.627 129.227 240.964 137.737 237.825 137.788C234.686 137.839 237.568 127.793 237.093 128.21C236.617 128.627 233.325 134.941 231.503 135.527C229.681 136.112 227.361 120.71 226.761 118.595C226.161 116.48 225.686 110.407 223.622 114.937C221.559 119.466 224.961 144.249 222.481 144.973C220 145.698 217 144.702 216.788 143.51C216.576 142.317 215.398 133.434 215.171 131.627C214.944 129.819 212.976 111.798 212.288 110.29C211.6 108.783 199.476 114.417 197.917 114.41C196.359 114.402 209.368 101.137 209.368 101.137C209.526 99.4665 209.862 97.8181 210.371 96.2195C215.493 96.739 222.422 96.5634 225.803 101.693C229.461 107.232 238.9 117.454 243.268 118.61C247.637 119.766 281.559 106.749 281.559 106.749C281.559 106.749 286.403 106.317 288.817 112.237Z" fill="white"/>
<path d="M198.012 114.388C198.012 114.388 202.19 112.851 208.453 110.524L210.897 109.617L211.534 109.383L211.695 109.324H211.775C211.432 109.383 212.273 109.229 212.193 109.251H212.339C212.627 109.281 212.902 109.393 213.129 109.573C213.218 109.642 213.297 109.723 213.363 109.815C213.417 109.879 213.466 109.948 213.51 110.019C213.674 110.324 213.797 110.649 213.875 110.985C213.941 111.256 213.993 111.505 214.044 111.761C214.388 113.759 214.541 115.756 214.732 117.856C215.09 122.027 215.427 126.461 215.858 130.88C216.548 138.997 217.75 147.062 219.458 155.027C220.241 158.643 221.31 162.19 222.656 165.637C222.685 165.706 222.685 165.785 222.656 165.855C222.628 165.925 222.572 165.981 222.502 166.01C222.433 166.04 222.355 166.043 222.284 166.017C222.213 165.991 222.155 165.938 222.122 165.871V165.871C220.652 162.439 219.455 158.896 218.544 155.276C216.573 147.327 215.107 139.262 214.153 131.129C213.575 126.739 213.1 122.268 212.602 118.127C212.346 116.071 212.119 114.044 211.753 112.273C211.705 112.054 211.653 111.849 211.6 111.659C211.574 111.541 211.532 111.428 211.475 111.322C211.475 111.322 211.475 111.322 211.519 111.38C211.553 111.422 211.593 111.459 211.636 111.49C211.723 111.57 211.824 111.631 211.935 111.67C212.046 111.709 212.163 111.725 212.28 111.717C212.368 111.717 212.28 111.717 212.28 111.717L212.653 111.651H212.617H212.536L212.375 111.717L211.746 111.98L209.332 112.968L199.014 117.168C198.834 117.271 198.633 117.334 198.427 117.353C198.22 117.372 198.011 117.346 197.815 117.279C197.619 117.211 197.439 117.102 197.288 116.96C197.137 116.817 197.018 116.644 196.939 116.452C196.86 116.26 196.823 116.053 196.83 115.846C196.837 115.638 196.888 115.435 196.98 115.248C197.072 115.062 197.202 114.898 197.362 114.766C197.523 114.634 197.709 114.537 197.91 114.483C197.91 114.483 197.91 114.483 197.953 114.483L198.012 114.388Z" fill="#7EB1DF"/>
<path d="M210.473 126C210.474 126.705 210.267 127.395 209.876 127.982C209.485 128.569 208.929 129.027 208.278 129.297C207.627 129.568 206.911 129.64 206.219 129.503C205.527 129.366 204.892 129.028 204.392 128.53C203.893 128.032 203.553 127.397 203.415 126.705C203.277 126.014 203.347 125.297 203.617 124.645C203.886 123.994 204.343 123.437 204.929 123.045C205.515 122.653 206.205 122.444 206.91 122.444C207.377 122.443 207.84 122.534 208.273 122.712C208.705 122.891 209.098 123.153 209.429 123.483C209.76 123.813 210.022 124.206 210.202 124.637C210.381 125.069 210.473 125.532 210.473 126Z" fill="#231F20"/>
<path d="M214.065 157.317C214.067 158.021 213.859 158.709 213.47 159.295C213.08 159.881 212.525 160.337 211.875 160.608C211.226 160.878 210.51 160.949 209.82 160.813C209.13 160.677 208.495 160.339 207.997 159.842C207.499 159.345 207.16 158.711 207.022 158.021C206.884 157.331 206.954 156.615 207.223 155.965C207.492 155.315 207.948 154.759 208.533 154.368C209.118 153.977 209.806 153.768 210.509 153.768C211.451 153.77 212.353 154.145 213.019 154.809C213.685 155.474 214.061 156.376 214.065 157.317Z" fill="#231F20"/>
<path d="M183.919 162.029C183.922 162.735 183.715 163.426 183.325 164.014C182.935 164.602 182.379 165.061 181.728 165.333C181.077 165.604 180.359 165.677 179.667 165.54C178.975 165.404 178.338 165.065 177.839 164.566C177.339 164.068 176.999 163.432 176.861 162.74C176.723 162.048 176.794 161.33 177.064 160.679C177.335 160.027 177.793 159.47 178.38 159.078C178.967 158.687 179.657 158.479 180.363 158.48C181.305 158.48 182.208 158.854 182.875 159.519C183.542 160.185 183.917 161.087 183.919 162.029V162.029Z" fill="#231F20"/>
<path d="M195.927 111.007C194.25 112.032 192.51 112.948 190.717 113.751C190.717 113.751 188.646 113.568 185.405 113.107C173.58 111.468 146.09 106.339 145.234 93.9878C145 90.7244 146.888 87.8561 148.988 85.7269C150.33 84.3891 151.815 83.2016 153.415 82.1854C153.868 81.9 154.146 81.7537 154.146 81.7537C154.146 81.7537 196.71 70.8952 206.778 86.7074C207.494 87.8103 208.06 89.0037 208.461 90.2561C208.679 90.8924 208.843 91.5459 208.951 92.2098C210.246 100.771 201.766 107.466 195.927 111.007Z" fill="#E82231"/>
<path d="M204.568 148.537C204.568 148.537 199.578 140.18 195.993 132.439C194.354 128.854 192.993 125.378 192.568 122.927C191.866 118.098 192.114 113.179 193.3 108.446C193.395 108.102 193.446 107.905 193.446 107.905C193.51 107.954 193.578 107.996 193.651 108.029C193.724 108.102 193.841 108.168 193.988 108.285C196.183 109.873 204.458 116.48 206.046 126.71C207.102 134.008 206.598 141.447 204.568 148.537V148.537Z" fill="#E82231"/>
<path d="M196.702 130.302C196.49 131.034 196.249 131.766 195.971 132.41C194.332 128.824 192.971 125.349 192.546 122.898C191.844 118.069 192.092 113.15 193.278 108.417L193.629 108C193.665 107.955 193.704 107.914 193.746 107.876L193.966 108.256C195.027 110.254 199.9 120.132 196.702 130.302Z" fill="#B02025"/>
<path d="M191.075 110.298C191.075 110.298 197.661 121.317 194.061 132.732C191.791 139.759 188.05 146.223 183.085 151.69C183.085 151.69 181.424 130.954 183.678 123.41C185.23 118.583 187.747 114.122 191.075 110.298V110.298Z" fill="#E82231"/>
<path d="M195.927 111.007C194.248 112.028 192.509 112.944 190.717 113.751C190.717 113.751 188.654 113.554 185.398 113.107C183.005 106.91 188.595 102.132 188.595 102.132C191.244 100.141 193.82 103.046 195.795 108.234C196.131 109.121 196.177 110.092 195.927 111.007V111.007Z" fill="#B02025"/>
<path d="M208.944 92.1952C206.237 96.2781 201.495 100.002 193.783 102.695C182.449 106.668 164.361 103.39 155.441 95.261C152.552 92.6445 150.338 89.3686 148.988 85.7122C150.33 84.3745 151.815 83.187 153.415 82.1708C158.785 94.0318 169.066 97.5879 176.924 98.5976C186.1 99.761 187.263 92.5098 192.583 92.0122C197.902 91.5147 197.222 95.7659 201.62 94.6025C203.427 94.1269 206.01 92.5171 208.454 90.2122C208.673 90.858 208.838 91.5214 208.944 92.1952V92.1952Z" fill="#B02025"/>
<path d="M190.812 101.78C190.812 101.78 184.79 106.902 187.885 113.488C190.981 120.073 199.966 113.093 197.983 107.912C196 102.732 193.461 99.7756 190.812 101.78Z" fill="#E82231"/>
<path d="M188.2 114.015C188.2 114.015 189.802 112.676 190.812 113.283C191.822 113.89 193.914 117.366 193.914 117.366C193.914 117.366 195.151 112.595 191.895 111.673C188.639 110.751 188.2 114.015 188.2 114.015Z" fill="#B02025"/>
<path d="M194.946 114.988C195.556 114.281 195.974 113.429 196.161 112.515C196.348 111.6 196.297 110.653 196.015 109.763C194.193 104.941 191.829 102.066 189.378 103.324C189.814 102.763 190.304 102.246 190.841 101.78C193.49 99.7755 196.058 102.695 198.034 107.876C198.985 110.429 197.288 113.415 194.946 114.988Z" fill="#F05B42"/>
<path d="M203.353 50.5536C203.353 50.5536 202.98 46.639 203.543 45.7683C204.107 44.8975 205.885 43.5731 202.673 40.9317C199.461 38.2902 198.765 35.5975 198.765 35.5975L198.034 36.117L203.353 50.5536Z" fill="#231F20"/>
<path d="M210.509 86.4951C208.87 92.1293 204.195 97.4707 194.134 100.983C183.502 104.722 166.548 101.634 158.17 94.0244C149.792 86.4146 150.466 76.1049 149.39 71.0707C139.007 71.4878 140.346 59.0854 146.463 59.0122C150.348 58.9683 152.463 59.1878 152.317 52.361C152.273 50.7865 152.376 49.2114 152.624 47.6561C152.854 45.8126 153.367 44.0158 154.146 42.3293C154.663 41.2165 155.286 40.1556 156.005 39.161C159.511 34.1712 164.744 30.6594 170.69 29.3049L189.941 30.6293C192.686 31.5017 195.303 32.7318 197.727 34.2878C197.727 34.2878 199.709 39.0732 201.319 43.6097L201.78 44.9488C202.658 47.5756 203.309 49.9463 203.28 51.139C203.28 51.139 201.085 55.1122 202.548 59.0415C202.819 59.8046 203.212 60.5187 203.712 61.1561C205.987 64.0976 213.612 75.8561 210.509 86.4951Z" fill="#FABB94"/>
<path d="M195.766 89.5756C195.766 91.039 194.083 92.1585 192.005 92.1585C189.927 92.1585 188.251 91.0024 188.251 89.5756C188.251 88.1488 189.934 86.978 192.005 86.978C194.075 86.978 195.766 88.1341 195.766 89.5756Z" fill="#FCDAC3"/>
<path d="M210.202 86.4951C209.146 89.9984 207.054 93.1002 204.202 95.3927C204.202 95.3927 204.202 95.3927 204.129 95.4585C201.05 97.899 197.558 99.7676 193.819 100.976C188.537 102.834 181.688 103.01 175.095 101.766C168.502 100.522 162.078 97.8366 157.863 94.0171C149.5 86.3927 150.151 76.0975 149.083 71.0634C143.639 71.2829 141.407 67.9756 141.407 64.778C141.407 61.8512 143.229 59.0561 146.127 59.0268C148.673 59.0268 150.451 59.0853 151.337 57.2268C151.805 56.2463 152.024 54.7317 151.98 52.3756C151.938 50.8015 152.038 49.2267 152.28 47.6707C156.144 48.4024 159.305 49.0097 159.305 49.0097C159.305 49.0097 149.924 59.3195 153.81 75.5049C157.695 91.6902 169.388 96.0732 177.993 97.178C186.597 98.2829 187.688 91.4707 192.627 90.9805C197.566 90.4902 197.017 94.5073 201.115 93.4171C203.515 92.7732 207.349 90.1024 210.202 86.4951Z" fill="#E19874"/>
<path d="M206.624 72.0585C206.622 72.1024 206.622 72.1464 206.624 72.1902C206.624 72.3073 206.683 72.4536 206.72 72.6219C206.798 73.077 206.849 73.5364 206.873 73.9975C206.973 75.3613 206.854 76.7321 206.522 78.0585C206.345 78.754 206.1 79.4304 205.79 80.078C205.656 80.3758 205.502 80.6642 205.329 80.9414C205.191 81.1981 205.032 81.4428 204.854 81.6731C204.611 82.0291 204.339 82.3644 204.042 82.6756L203.712 83.0268C203.667 83.0794 203.611 83.1216 203.548 83.1506C203.485 83.1795 203.416 83.1945 203.346 83.1945C203.277 83.1945 203.208 83.1795 203.145 83.1506C203.082 83.1216 203.026 83.0794 202.981 83.0268C202.896 82.9513 202.84 82.8493 202.821 82.7375C202.803 82.6257 202.823 82.511 202.878 82.4122V82.3609L203.098 81.9805C203.291 81.6517 203.459 81.3093 203.603 80.9561C203.712 80.7212 203.798 80.4761 203.859 80.2244C203.948 79.9606 204.021 79.6919 204.078 79.4195C204.207 78.8428 204.276 78.2543 204.283 77.6634C204.306 76.568 204.153 75.4761 203.829 74.4292C203.733 74.0979 203.615 73.7729 203.478 73.4561L203.376 73.2293L203.332 73.1414C203.219 72.9386 203.149 72.715 203.125 72.4843C203.101 72.2535 203.125 72.0204 203.193 71.7988C203.262 71.5772 203.375 71.3718 203.525 71.195C203.675 71.0181 203.859 70.8735 204.067 70.7697C204.274 70.666 204.5 70.6053 204.732 70.5913C204.964 70.5773 205.196 70.6104 205.414 70.6884C205.632 70.7664 205.833 70.8878 206.003 71.0453C206.173 71.2028 206.31 71.3932 206.405 71.6049C206.463 71.7213 206.507 71.8441 206.537 71.9707L206.624 72.0585Z" fill="#E19874"/>
<path d="M169.037 77.4366C169.037 77.4366 175.754 86.2171 189.649 85.4854C203.544 84.7537 204.473 76.5001 204.473 74.5098C204.473 72.5196 169.037 77.4366 169.037 77.4366Z" fill="#FCDAC3"/>
<path d="M164.427 73.0244C164.427 73.0244 164.427 73.1122 164.427 73.2658C164.427 73.4195 164.427 73.5878 164.427 73.8878C164.487 74.7105 164.621 75.5261 164.829 76.3244C164.939 76.8366 165.159 77.3561 165.334 77.9341C165.581 78.5124 165.86 79.0767 166.168 79.6244C166.351 79.9024 166.498 80.2024 166.688 80.4805C166.878 80.7585 167.098 81.0293 167.303 81.3146C167.747 81.8644 168.223 82.3873 168.729 82.8805C169.293 83.3341 169.827 83.8244 170.42 84.2268C171.012 84.6293 171.612 85.0097 172.234 85.3244L174.071 86.1805C174.678 86.3707 175.263 86.5683 175.798 86.7439C176.272 86.9259 176.762 87.0655 177.261 87.161L178.439 87.4097C179.09 87.5634 179.471 87.6366 179.471 87.6366H179.515C179.636 87.6656 179.742 87.7389 179.811 87.8421C179.881 87.9453 179.909 88.0708 179.891 88.1939C179.872 88.317 179.809 88.4287 179.712 88.5071C179.615 88.5854 179.493 88.6247 179.368 88.6171L178.278 88.5219L177.034 88.3975C176.489 88.3651 175.947 88.2818 175.417 88.1488L173.515 87.7536L171.415 87.0732C170.683 86.8097 169.951 86.4293 169.22 86.0927C168.488 85.7561 167.807 85.2293 167.098 84.7829C166.43 84.2712 165.795 83.7189 165.195 83.1293C164.903 82.8293 164.617 82.5293 164.332 82.2219C164.046 81.9146 163.834 81.578 163.6 81.2634C163.14 80.6395 162.719 79.987 162.342 79.3097C162.034 78.6439 161.683 78.0146 161.478 77.4146C161.084 76.4313 160.788 75.4118 160.593 74.3707C160.52 73.9902 160.476 73.639 160.454 73.4195C160.432 73.2 160.454 73.0975 160.454 73.0975C160.416 72.833 160.433 72.5636 160.502 72.3057C160.572 72.0477 160.693 71.8065 160.858 71.5966C161.023 71.3868 161.23 71.2127 161.464 71.0848C161.699 70.957 161.957 70.878 162.223 70.8528C162.489 70.8275 162.757 70.8565 163.012 70.9379C163.266 71.0193 163.501 71.1515 163.703 71.3264C163.905 71.5014 164.07 71.7155 164.186 71.9557C164.303 72.196 164.37 72.4575 164.383 72.7244C164.39 72.7974 164.39 72.8709 164.383 72.9439L164.427 73.0244Z" fill="#E19874"/>
<path d="M177.173 59.6122C177.173 59.6122 163.27 61.1854 161.427 65.3122C159.583 69.439 163 71.4878 168.217 71.0634C173.434 70.639 180.1 66.8634 180.78 63.3073L181.453 59.7512L177.173 59.6122Z" fill="#FCDAC3"/>
<path d="M170.134 67.8439C170.134 69.5415 168.195 70.9244 165.802 70.9244C163.41 70.9244 161.456 69.5415 161.456 67.8439C161.456 66.1464 163.402 64.7634 165.802 64.7634C168.202 64.7634 170.134 66.139 170.134 67.8439Z" fill="#FFEBDD"/>
<path d="M202.249 71.7073C202.249 71.7073 206.039 82.3902 185.8 82.3829C181.966 82.3829 171.297 79.4122 169.234 77.6853C167.171 75.9585 196.029 67.6097 196.029 67.6097L202.249 71.7073Z" fill="#F0EFED"/>
<path d="M202.578 71.5902C203.065 73.0607 203.065 74.6489 202.578 76.1195C202.042 77.5879 201.079 78.8622 199.812 79.778C198.588 80.6678 197.219 81.3387 195.766 81.7609C194.348 82.2005 192.893 82.5115 191.419 82.6902C189.962 82.8683 188.497 82.966 187.029 82.9829C185.545 83.0429 184.059 82.9275 182.602 82.639C179.731 82.0999 176.9 81.3665 174.129 80.4439C172.726 79.9972 171.357 79.452 170.031 78.8121C169.675 78.6398 169.335 78.4366 169.014 78.2048L168.89 78.1097H168.853L168.773 78.0146L168.722 77.9634C168.63 77.8455 168.573 77.704 168.557 77.5552C168.542 77.4064 168.568 77.2563 168.634 77.1219C168.753 76.8769 168.932 76.6656 169.153 76.5073C169.785 76.0581 170.462 75.6755 171.173 75.3658C173.858 74.1512 176.588 73.2219 179.331 72.278C184.812 70.4195 190.366 68.8243 195.934 67.2439L196.08 67.2L196.197 67.317L202.512 71.4804L202.578 71.5902ZM201.941 71.9048L195.839 67.8878L196.131 67.9317C190.607 69.6073 185.156 71.4146 179.661 73.2731C176.946 74.2317 174.217 75.1902 171.612 76.3829C170.988 76.6497 170.397 76.986 169.849 77.3853C169.776 77.4359 169.71 77.4948 169.651 77.5609C169.657 77.5296 169.657 77.4972 169.651 77.4658C169.651 77.4658 169.57 77.217 169.556 77.239L169.6 77.2902L169.541 77.2317L169.636 77.2975C169.906 77.4815 170.187 77.6477 170.478 77.7951C171.762 78.3903 173.084 78.8988 174.436 79.317C177.159 80.1897 179.936 80.8839 182.749 81.3951C184.13 81.6574 185.537 81.7557 186.941 81.6878C188.363 81.6544 189.782 81.5469 191.192 81.3658C193.98 81.0146 196.805 80.3487 199.058 78.7902C200.184 78.0541 201.061 76.9958 201.575 75.7536C202.089 74.5384 202.216 73.1949 201.941 71.9048V71.9048Z" fill="#C08265"/>
<path d="M186.751 77.2755C188.782 77.0565 190.798 76.7144 192.788 76.2511C194.084 75.9741 195.336 75.5159 196.505 74.8902C196.799 74.7288 197.062 74.5156 197.28 74.2609C197.313 74.1931 197.35 74.1271 197.39 74.0633L197.485 73.9316C197.581 73.7809 197.706 73.651 197.853 73.55C198 73.4491 198.166 73.379 198.341 73.3442C198.516 73.3093 198.696 73.3104 198.871 73.3473C199.045 73.3842 199.211 73.4562 199.356 73.5589C199.502 73.6617 199.626 73.793 199.719 73.9449C199.813 74.0968 199.875 74.2661 199.901 74.4426C199.927 74.6191 199.917 74.7991 199.872 74.9716C199.826 75.1441 199.746 75.3056 199.636 75.4463C199.636 75.4463 199.636 75.4463 199.636 75.4463C199.46 75.6637 199.269 75.869 199.066 76.0609C198.845 76.2272 198.616 76.3811 198.378 76.5219C198.095 76.6798 197.799 76.812 197.493 76.917C196.05 77.3736 194.549 77.6201 193.036 77.6487C190.953 77.7384 188.866 77.6993 186.788 77.5316C186.767 77.5317 186.746 77.5275 186.727 77.5193C186.708 77.5111 186.691 77.4991 186.676 77.4841C186.662 77.469 186.651 77.4512 186.643 77.4317C186.636 77.4122 186.633 77.3914 186.634 77.3707C186.645 77.3471 186.662 77.3263 186.682 77.3099C186.702 77.2934 186.726 77.2817 186.751 77.2755V77.2755Z" fill="#BBBCBD"/>
<path d="M202.388 64.3902C202.388 64.3902 202.198 61.8219 203.851 62.5536C205.505 63.2853 205.842 66.7975 201.517 67.5365C197.193 68.2755 191.712 65.6853 191.712 65.6853L182.2 64.1414L180.188 64.7707C180.188 64.7707 177.203 68.9268 170.676 69.8926C164.149 70.8585 161.69 69.5999 161.5 68.1877C161.442 67.5613 161.62 66.9358 161.999 66.4336C162.378 65.9315 162.931 65.5889 163.549 65.4731C164.705 65.2243 166.139 66.439 166.139 66.439C166.139 66.439 165.305 63.0804 162.59 63.6219C159.876 64.1633 154.637 70.156 161.903 76.0609C168.107 81.0877 183.246 80.6634 188.873 71.817C201.312 84.6877 209.954 73.6902 209.273 66.8341C208.893 63.0146 206.2 59.1219 203.032 60.4243C200.368 61.6024 202.388 64.3902 202.388 64.3902Z" fill="#231F20"/>
<path d="M202.549 59.2683V59.3268C199.802 58.6761 196.987 58.3567 194.164 58.3756C190.505 58.5585 189.137 53.7659 189.137 53.7659L189.385 52.3683L190.673 43.6317H200.742L201.32 43.9024C201.481 44.3561 201.634 44.8024 201.781 45.2415C202.659 47.8683 203.31 50.2317 203.281 51.4244C203.273 51.3878 201.107 55.361 202.549 59.2683Z" fill="#E19874"/>
<path d="M200.068 54.5341C200.083 55.32 199.863 56.0924 199.437 56.7529C199.011 57.4134 198.398 57.9322 197.676 58.2431C196.954 58.5539 196.156 58.6428 195.383 58.4984C194.611 58.3541 193.898 57.9829 193.338 57.4324C192.777 56.8818 192.392 56.1767 192.233 55.4068C192.075 54.637 192.149 53.8374 192.446 53.1098C192.743 52.3822 193.251 51.7596 193.903 51.3213C194.556 50.883 195.324 50.6489 196.11 50.6487C196.625 50.6439 197.136 50.7406 197.613 50.9332C198.091 51.1259 198.526 51.4107 198.894 51.7715C199.261 52.1323 199.554 52.562 199.756 53.036C199.957 53.51 200.063 54.019 200.068 54.5341V54.5341Z" fill="#F0EFED"/>
<path d="M199.227 54.9732C199.246 55.5934 199.079 56.2052 198.748 56.7301C198.418 57.2551 197.938 57.6694 197.37 57.9199C196.802 58.1705 196.173 58.246 195.562 58.1367C194.951 58.0273 194.387 57.7382 193.942 57.3063C193.496 56.8744 193.19 56.3194 193.061 55.7123C192.933 55.1052 192.989 54.4736 193.222 53.8985C193.455 53.3234 193.854 52.8308 194.369 52.4839C194.883 52.137 195.489 51.9516 196.11 51.9513C196.923 51.9415 197.707 52.2537 198.291 52.8198C198.875 53.3859 199.211 54.16 199.227 54.9732V54.9732Z" fill="#231F20"/>
<path d="M197.719 54.2854C197.725 54.5387 197.655 54.7879 197.519 55.0013C197.382 55.2146 197.185 55.3823 196.952 55.483C196.72 55.5837 196.463 55.6127 196.214 55.5663C195.964 55.5199 195.735 55.4003 195.554 55.2227C195.373 55.0452 195.25 54.8177 195.199 54.5695C195.148 54.3213 195.173 54.0635 195.269 53.8293C195.366 53.5951 195.53 53.395 195.741 53.2547C195.952 53.1143 196.2 53.0401 196.453 53.0415C196.786 53.0395 197.106 53.1692 197.343 53.4023C197.58 53.6354 197.715 53.9529 197.719 54.2854Z" fill="#F0EFED"/>
<path d="M197.895 55.9024C197.896 55.9808 197.874 56.0579 197.832 56.1239C197.789 56.1898 197.728 56.2416 197.656 56.2726C197.584 56.3036 197.504 56.3125 197.427 56.2981C197.35 56.2837 197.279 56.2467 197.223 56.1917C197.167 56.1367 197.128 56.0664 197.113 55.9895C197.097 55.9127 197.104 55.8329 197.134 55.7602C197.164 55.6876 197.214 55.6255 197.279 55.5817C197.344 55.538 197.421 55.5146 197.5 55.5146C197.551 55.5136 197.602 55.5229 197.65 55.542C197.698 55.561 197.742 55.5894 197.779 55.6256C197.815 55.6617 197.845 55.7047 197.864 55.7523C197.884 55.7998 197.895 55.8508 197.895 55.9024V55.9024Z" fill="#F0EFED"/>
<path d="M182.485 55.361C182.504 56.3257 182.235 57.2743 181.713 58.0857C181.191 58.8971 180.439 59.5346 179.553 59.9169C178.667 60.2993 177.687 60.4092 176.738 60.2326C175.79 60.056 174.915 59.6009 174.226 58.9254C173.537 58.2499 173.065 57.3845 172.87 56.4395C172.674 55.4945 172.765 54.5128 173.13 53.6195C173.494 52.7261 174.117 51.9616 174.918 51.4234C175.719 50.8853 176.662 50.5977 177.627 50.5976C178.259 50.5908 178.886 50.7087 179.472 50.9445C180.058 51.1803 180.592 51.5295 181.044 51.9719C181.495 52.4143 181.854 52.9414 182.102 53.5229C182.349 54.1044 182.479 54.729 182.485 55.361V55.361Z" fill="#F0EFED"/>
<path d="M181.453 55.9024C181.466 56.6619 181.253 57.4082 180.841 58.0461C180.428 58.684 179.835 59.1848 179.137 59.4845C178.439 59.7843 177.668 59.8695 176.921 59.7294C176.175 59.5893 175.487 59.2301 174.945 58.6976C174.403 58.1651 174.032 57.4835 173.879 56.7394C173.726 55.9953 173.798 55.2225 174.085 54.5194C174.373 53.8163 174.863 53.2147 175.494 52.7912C176.124 52.3677 176.867 52.1415 177.627 52.1414C178.125 52.1356 178.62 52.2285 179.083 52.4146C179.545 52.6008 179.967 52.8765 180.322 53.2261C180.678 53.5756 180.961 53.992 181.155 54.4513C181.349 54.9106 181.451 55.4038 181.453 55.9024Z" fill="#231F20"/>
<path d="M178.827 54.1902C178.827 54.555 178.682 54.9049 178.424 55.1629C178.166 55.4209 177.816 55.5658 177.451 55.5658C177.086 55.5658 176.737 55.4209 176.479 55.1629C176.221 54.9049 176.076 54.555 176.076 54.1902C176.076 53.8253 176.221 53.4755 176.479 53.2175C176.737 52.9595 177.086 52.8146 177.451 52.8146C177.816 52.8146 178.166 52.9595 178.424 53.2175C178.682 53.4755 178.827 53.8253 178.827 54.1902V54.1902Z" fill="#F0EFED"/>
<path d="M179.675 56.2024C179.677 56.3355 179.639 56.4661 179.566 56.5776C179.493 56.6891 179.389 56.7765 179.267 56.8288C179.144 56.881 179.009 56.8958 178.878 56.8713C178.747 56.8467 178.627 56.7839 178.531 56.6908C178.436 56.5977 178.371 56.4785 178.344 56.3482C178.316 56.2179 178.328 56.0824 178.378 55.9588C178.427 55.8353 178.512 55.7292 178.622 55.6541C178.732 55.5789 178.862 55.538 178.995 55.5365C179.083 55.5356 179.171 55.552 179.253 55.585C179.335 55.6179 179.41 55.6667 179.473 55.7285C179.536 55.7904 179.587 55.864 179.621 55.9453C179.656 56.0266 179.674 56.114 179.675 56.2024V56.2024Z" fill="#F0EFED"/>
<path d="M200.251 68.7805C196.929 74.9853 180.495 73.2292 180.363 65.7219C180.342 65.4785 180.342 65.2336 180.363 64.9902L188.237 45.7097L190.9 45.8048L190.944 45.7097C190.944 45.7097 190.944 45.7609 190.944 45.8048C190.798 46.1878 190.673 46.5786 190.571 46.9756C190.088 48.5741 190.088 50.2794 190.571 51.878C192.378 56.8024 198.876 60.1683 200.529 64.317C200.529 64.3756 200.573 64.4341 200.61 64.5073C200.869 65.2019 200.971 65.9452 200.909 66.684C200.847 67.4228 200.622 68.1387 200.251 68.7805V68.7805Z" fill="#FABB94"/>
<path d="M170.588 46.1487C170.588 46.1487 165.817 50.0853 165.839 52.1414C165.861 54.1975 167.676 55.1195 169.615 53.6634C171.554 52.2073 177.415 49.4561 180.129 51.2561C182.844 53.0561 186.393 60.2488 189.612 62.1951C192.832 64.1414 185.507 44.9414 185.507 44.9414L179.983 43.0902L175.68 43.4195L170.588 46.1487Z" fill="#E19874"/>
<path d="M190.234 59.0488C190.354 58.9482 190.484 58.86 190.622 58.7853C190.98 58.5722 191.352 58.3816 191.734 58.2146C192.273 57.9876 192.828 57.8017 193.395 57.6585C194.05 57.5087 194.715 57.4133 195.385 57.3731C196.057 57.3172 196.733 57.3467 197.398 57.4609C197.983 57.5156 198.559 57.6485 199.11 57.8561C199.64 58.0652 200.156 58.3097 200.654 58.5878C200.756 58.65 200.83 58.7504 200.859 58.867C200.888 58.9836 200.869 59.1068 200.807 59.2097C200.773 59.2694 200.724 59.3195 200.665 59.3553C200.606 59.3911 200.54 59.4115 200.471 59.4146H200.39C199.866 59.443 199.341 59.443 198.817 59.4146C198.574 59.3924 198.329 59.3924 198.085 59.4146C197.829 59.4146 197.551 59.4146 197.28 59.4146C196.724 59.4146 196.132 59.4951 195.539 59.517C194.946 59.539 194.368 59.6707 193.805 59.7073C193.241 59.7439 192.737 59.8609 192.298 59.9488C191.39 60.0878 190.834 60.2122 190.79 60.2122H190.717C190.523 60.2122 190.337 60.1351 190.2 59.9979C190.062 59.8606 189.985 59.6745 189.985 59.4805C190.015 59.3119 190.103 59.1591 190.234 59.0488Z" fill="#E19874"/>
<path d="M152.851 57.9C152.193 59.1292 150.122 60.9219 146.325 60.7609C142.527 60.6 141.744 64.7634 141.744 64.7634C141.744 61.8365 143.559 59.0414 146.456 59.0122C149.003 59.0122 150.781 59.0707 151.666 57.2122C152.5 57.3951 153.027 57.6146 152.851 57.9Z" fill="#FABB94"/>
<path d="M160.344 44.5609C160.344 44.5609 174.027 39.3658 184.951 39.9C195.876 40.4341 200.661 43.2804 200.661 43.2804L201.744 44.3561L199.197 37.2658L154.402 39.1317L160.344 44.5609Z" fill="#E19874"/>
<path d="M152.339 44.1365C152.339 44.1365 149.09 45.8194 147.949 48.395C147.217 49.9536 140.573 54.2487 144.166 54.5341C147.758 54.8194 142.995 56.3926 145.936 58.4707C148.878 60.5487 154.044 58.3316 154.636 55.4121C155.229 52.4926 156.531 50.8682 157.709 50.5024C158.888 50.1365 161.507 51.5267 162.831 50.1365C164.156 48.7463 160.87 45.9877 161.851 44.2828C162.831 42.578 168.517 35.2902 162.634 34.2658C156.751 33.2414 152.339 44.1365 152.339 44.1365Z" fill="#231F20"/>
<path d="M188.053 87.9147C188.114 87.8262 188.186 87.7452 188.265 87.6732C188.473 87.4812 188.69 87.3005 188.917 87.1317C189.62 86.6389 190.413 86.2884 191.251 86.1C191.485 86.0488 191.719 86.0269 191.983 85.9903C192.211 85.9573 192.442 85.9573 192.67 85.9903C193.084 86.001 193.494 86.0624 193.892 86.1732C194.27 86.3066 194.634 86.4731 194.983 86.6708C195.033 86.7028 195.077 86.7445 195.111 86.7935C195.146 86.8425 195.17 86.8979 195.183 86.9564C195.196 87.0149 195.197 87.0754 195.187 87.1344C195.176 87.1934 195.154 87.2497 195.122 87.3C195.092 87.3507 195.052 87.3945 195.004 87.4285C194.956 87.4626 194.901 87.4861 194.843 87.4976H194.741C194.405 87.5632 194.066 87.6047 193.724 87.622C193.446 87.622 193.109 87.7391 192.765 87.7537C192.422 87.7683 192.034 87.9 191.668 87.9439C191.485 87.9439 191.302 88.0317 191.112 88.061C190.922 88.0903 190.739 88.1269 190.556 88.1854C190.212 88.2805 189.824 88.339 189.568 88.4269C189.312 88.5147 189.012 88.5366 188.836 88.5878L188.543 88.6537C188.422 88.6798 188.296 88.6567 188.191 88.5894C188.087 88.5222 188.014 88.4164 187.987 88.2951C187.961 88.1749 187.982 88.049 188.046 87.9439L188.053 87.9147Z" fill="#E19874"/>
<path d="M202.783 33.5999V33.6951C202.52 35.966 202.132 38.2207 201.619 40.4487C201.619 40.4487 190.219 37.7853 180.627 38.5609C179.624 38.6487 178.497 38.7877 177.305 38.978H177.261C166.285 40.8146 148.556 46.9682 148.556 46.9682C148.556 46.9682 148.015 40.2438 147.305 38.6341C145.907 35.4658 141.897 32.6414 141.897 32.6414C141.897 32.6414 146.763 30.4463 153.656 27.5194C167.741 21.578 190.336 12.8853 197.09 14.839C198.031 15.124 198.901 15.6061 199.642 16.2533C200.382 16.9005 200.977 17.698 201.385 18.5926C203.515 22.6024 203.354 28.8146 202.783 33.5999Z" fill="#E82231"/>
<path d="M171.97 20.2537C159.722 23.2464 146.119 22.0537 143.741 17.0268C144.31 16.0778 144.969 15.1859 145.71 14.3634C147.787 11.9439 150.403 10.0458 153.347 8.82199C156.292 7.59813 159.483 7.08267 162.663 7.31708C167.866 7.6244 172.3 9.24879 175.036 11.2756C179.229 14.3927 179.368 18.4683 171.97 20.2537Z" fill="#B02025"/>
<path d="M179.324 42.2195C180.517 43.2658 181.841 46.2073 175.3 47.1292C168.758 48.0512 167.31 49.3243 167.31 49.3243C167.31 49.3243 173.785 37.4195 179.324 42.2195Z" fill="#231F20"/>
<path d="M148.717 66.9C148.704 67.3065 148.571 67.7002 148.336 68.032C148.101 68.3637 147.773 68.6189 147.394 68.7655C147.014 68.9122 146.6 68.9439 146.203 68.8568C145.806 68.7696 145.443 68.5673 145.16 68.2753C144.877 67.9832 144.686 67.6143 144.611 67.2145C144.537 66.8147 144.581 66.4018 144.74 66.0273C144.898 65.6527 145.164 65.3331 145.503 65.1084C145.842 64.8836 146.239 64.7636 146.646 64.7634C147.204 64.7731 147.735 65.0033 148.123 65.4038C148.511 65.8043 148.724 66.3424 148.717 66.9Z" fill="#FABB94"/>
<path d="M199.212 41.6122C201.78 42.5634 203.266 48.1025 203.266 48.1025C203.266 48.1025 202.366 46.9683 198.005 45.8488C193.644 44.7293 195.627 41.539 195.627 41.539C196.197 40.9756 196.651 40.6683 199.212 41.6122Z" fill="#231F20"/>
<path d="M145.79 69C145.274 68.7781 144.799 68.4714 144.385 68.0926C143.928 67.6818 143.558 67.1844 143.295 66.6292C142.989 65.9392 142.92 65.1676 143.097 64.4341C143.137 64.2441 143.193 64.058 143.265 63.878L143.375 63.6219L143.463 63.4609V63.4097L143.529 63.3219C143.699 63.0273 143.922 62.7668 144.187 62.5536C144.37 62.4219 144.553 62.2902 144.729 62.1805L145.248 62.0048C145.554 61.9258 145.87 61.8985 146.185 61.9244C146.62 61.9409 147.048 62.0428 147.443 62.2244C147.595 62.2926 147.741 62.3708 147.882 62.4585C147.973 62.52 148.041 62.6092 148.076 62.7126C148.111 62.816 148.112 62.9281 148.078 63.0321C148.045 63.136 147.978 63.2261 147.888 63.289C147.799 63.3518 147.692 63.3839 147.582 63.3805H147.465C147.348 63.3866 147.231 63.3866 147.114 63.3805C146.817 63.3493 146.518 63.3493 146.221 63.3805C146.052 63.4029 145.888 63.4576 145.738 63.5414C145.665 63.5853 145.578 63.6073 145.504 63.6439C145.47 63.6902 145.428 63.7299 145.38 63.7609C145.292 63.7609 145.087 64.1048 144.941 64.317L144.875 64.4122V64.4634C144.875 64.4122 144.809 64.5731 144.941 64.3463L144.875 64.5073C144.821 64.6028 144.784 64.7067 144.765 64.8146C144.677 65.2245 144.689 65.6497 144.801 66.0537C144.914 66.4577 145.122 66.8285 145.409 67.1341C145.6 67.3979 145.816 67.6429 146.053 67.8658L146.324 68.1219C146.411 68.2012 146.469 68.3083 146.487 68.4252C146.504 68.542 146.481 68.6613 146.421 68.763C146.36 68.8646 146.267 68.9422 146.156 68.9827C146.045 69.0233 145.923 69.0242 145.812 68.9853L145.79 69Z" fill="#C08265"/>
<path d="M172.483 60.0878C172.605 59.9897 172.734 59.9016 172.871 59.8244C173.231 59.6099 173.605 59.4193 173.99 59.2536C174.529 59.0331 175.081 58.8473 175.644 58.6975C176.298 58.5477 176.964 58.4523 177.634 58.4122C178.305 58.3593 178.98 58.3839 179.646 58.4853C180.232 58.5511 180.807 58.6887 181.358 58.8951C181.889 59.1042 182.404 59.3487 182.902 59.6268C183.005 59.6891 183.079 59.789 183.109 59.9051C183.139 60.0212 183.123 60.1445 183.063 60.2487C183.024 60.3062 182.973 60.3548 182.914 60.3913C182.855 60.4279 182.788 60.4516 182.719 60.4609H182.646C182.646 60.4609 181.98 60.5122 181.073 60.4609C180.83 60.4392 180.585 60.4392 180.341 60.4609C180.071 60.4797 179.799 60.4797 179.529 60.4609C178.98 60.4609 178.388 60.5414 177.802 60.5634C177.217 60.5853 176.624 60.717 176.068 60.7536C175.512 60.7902 174.985 60.9146 174.546 60.9951C173.639 61.1341 173.083 61.2585 173.083 61.2585H173.01C172.815 61.2585 172.629 61.1814 172.492 61.0442C172.355 60.907 172.278 60.7208 172.278 60.5268C172.294 60.3614 172.367 60.2066 172.483 60.0878Z" fill="#E19874"/>
<path d="M200.251 68.7805C196.929 74.9854 180.495 73.2293 180.363 65.7219C180.363 65.7219 183.597 70.5805 191.551 69.8927C199.058 69.2707 200.844 65.7 200.617 64.4854C200.878 65.1836 200.981 65.9313 200.918 66.6741C200.854 67.417 200.627 68.1365 200.251 68.7805Z" fill="#E19874"/>
<path d="M199.651 64.7634C199.651 66.1903 197.975 67.3537 195.897 67.3537C193.819 67.3537 192.151 66.1903 192.151 64.7634C192.151 63.3366 193.826 62.1951 195.897 62.1951C197.968 62.1951 199.651 63.3366 199.651 64.7634Z" fill="#FFEBDD"/>
<path d="M194.734 95.6342C194.79 95.9567 194.745 96.2886 194.605 96.5847C194.465 96.8809 194.238 97.1269 193.954 97.2894C193.67 97.452 193.343 97.5232 193.017 97.4934C192.691 97.4636 192.382 97.3342 192.132 97.1228C191.882 96.9114 191.703 96.6282 191.62 96.3117C191.536 95.9952 191.552 95.6607 191.665 95.3535C191.778 95.0463 191.983 94.7814 192.252 94.5947C192.521 94.408 192.841 94.3085 193.168 94.3098C193.551 94.2813 193.929 94.4041 194.222 94.6518C194.515 94.8995 194.699 95.2522 194.734 95.6342Z" fill="#FABB94"/>
<path d="M177.488 38.978H177.437C166.461 40.8146 148.732 46.9683 148.732 46.9683C148.732 46.9683 148.198 40.2439 147.481 38.6341C146.09 35.4658 142.081 32.6414 142.081 32.6414C142.081 32.6414 146.946 30.4463 153.832 27.5195C159.495 28.2512 170.127 29.6195 170.127 29.6195C170.127 29.6195 161.617 35.0487 163.432 36.8707C165.246 38.6926 171.927 35.7731 177.437 36.2561C182.946 36.739 181.512 37.4707 177.488 38.978Z" fill="#B02025"/>
<path d="M146.851 34.3391C146.851 34.3391 130.176 33.6073 132.561 20.6561C132.621 20.3293 132.702 20.0067 132.803 19.6903C135.825 10.3464 155.303 15.761 165.795 20.5756C167.651 21.3976 169.433 22.3767 171.122 23.5025C177.81 28.3025 162.795 35.3561 146.851 34.3391Z" fill="#E82231"/>
<path d="M202.959 33.6C203.193 31.8 200.676 29.2098 195.188 30.0805C189.7 30.9512 178.995 29.1147 178.995 29.1147L192.627 17.9561L201.561 18.6073C203.646 22.6025 203.515 28.8146 202.959 33.6Z" fill="#B02025"/>
<path d="M175.036 11.2829C173.363 11.2905 171.701 11.0032 170.127 10.4342C158.617 6.77562 151.029 17.9561 151.029 17.9561L145.709 14.3634C147.787 11.9439 150.403 10.0458 153.347 8.82199C156.292 7.59813 159.483 7.08266 162.663 7.31708C167.866 7.63172 172.3 9.25611 175.036 11.2829Z" fill="#E82231"/>
<path d="M212.222 21.8341C210.883 23.7366 208.058 25.3829 203.441 26.5024C183.4 31.3829 161.119 29.4292 157.234 21.2048C158.419 19.2279 159.831 17.396 161.441 15.7463C161.441 15.7463 161.441 15.7463 161.441 15.7463C164.843 12.1125 169.017 9.28903 173.656 7.48435C178.295 5.67967 183.28 4.93985 188.244 5.31948C204.824 6.32192 216.78 15.4756 212.222 21.8341Z" fill="#E82231"/>
<path d="M212.222 21.8341C210.759 22.8 208.724 22.5658 207.1 20.9854C204.173 18.0585 211.834 12.8561 194.002 9.22682C176.639 5.68536 162.232 15.2268 161.478 15.7317C164.877 12.1055 169.046 9.28779 173.678 7.48584C178.311 5.6839 183.288 4.94362 188.244 5.3195C204.824 6.32194 216.78 15.4756 212.222 21.8341Z" fill="#F05B42"/>
<path d="M163.102 27.5342C157.732 27.9 157 25.0756 148.724 18.5269C140.449 11.9781 132.802 19.6903 132.802 19.6903C135.824 10.3464 155.302 15.761 165.795 20.5756C172.402 24.9147 168.458 27.1756 163.102 27.5342Z" fill="#F05B42"/>
<path d="M146.324 127.376C144.861 127.376 146.654 113.905 140.105 110.62C133.556 107.334 130.644 110.993 129.012 112.273C127.38 113.554 140.105 120.095 138.473 121.361C136.841 122.627 125.544 118.639 124.651 120.095C123.758 121.551 136.841 127.002 136.117 128.663C135.393 130.324 121.914 136.829 121.007 137.378C120.1 137.927 117.729 139.383 116.471 132.659C115.271 126.366 111.788 129.293 111.349 129.732C116.975 120.534 123.283 110.949 125.763 107.92C128.807 104.188 137.683 99.6878 144.005 96.8195C144.005 96.8693 143.989 96.9178 143.96 96.9584C143.931 96.999 143.891 97.0297 143.844 97.0463C142.227 97.961 145.775 102.263 143.844 102.812C141.912 103.361 141.407 100.815 140.317 100.983C139.227 101.151 135.758 102.629 142.139 107.144C148.519 111.659 147.766 127.376 146.324 127.376Z" fill="white"/>
<path d="M149.646 118.441C149.646 118.441 149.69 118.573 149.756 118.822C149.822 119.071 149.924 119.437 150.027 119.89C150.311 121.156 150.528 122.436 150.678 123.724C150.78 124.522 150.861 125.393 150.905 126.322C150.949 127.251 150.949 128.21 150.978 129.249C151.007 130.288 150.912 131.305 150.795 132.359C150.695 133.431 150.541 134.499 150.334 135.556L150.027 137.151C149.873 137.678 149.734 138.198 149.588 138.71C149.315 139.723 148.978 140.718 148.578 141.688C148.231 142.611 147.822 143.511 147.356 144.38C147.151 144.805 146.946 145.215 146.749 145.61L146.054 146.7C145.607 147.388 145.234 148.046 144.832 148.588L143.756 149.941L142.819 151.127C142.707 151.296 142.561 151.439 142.391 151.549C142.22 151.658 142.029 151.731 141.828 151.762C141.628 151.794 141.424 151.783 141.228 151.732C141.032 151.68 140.849 151.588 140.69 151.462C140.531 151.336 140.401 151.179 140.306 150.999C140.212 150.82 140.155 150.623 140.141 150.421C140.126 150.219 140.154 150.016 140.222 149.825C140.29 149.634 140.397 149.46 140.536 149.312V149.268L140.639 149.151L141.539 148.112L142.585 146.92C142.973 146.444 143.317 145.859 143.785 145.244L144.458 144.285L145.073 143.18C145.538 142.4 145.949 141.588 146.302 140.751C146.717 139.868 147.073 138.959 147.371 138.029C147.524 137.546 147.678 137.078 147.846 136.566L148.197 135.102C148.442 134.116 148.632 133.117 148.768 132.11C148.929 131.115 148.988 130.127 149.083 129.183C149.178 128.239 149.178 127.295 149.141 126.41C149.105 125.524 149.097 124.69 149.032 123.922C148.935 122.211 148.691 120.512 148.3 118.844C148.276 118.757 148.269 118.667 148.28 118.578C148.291 118.489 148.319 118.403 148.363 118.325C148.408 118.247 148.467 118.178 148.537 118.123C148.608 118.067 148.689 118.026 148.775 118.002C148.862 117.978 148.952 117.972 149.041 117.983C149.13 117.993 149.217 118.022 149.295 118.066C149.373 118.11 149.441 118.169 149.497 118.24C149.552 118.311 149.593 118.392 149.617 118.478L149.646 118.441Z" fill="#7EB1DF"/>
<path d="M150.415 133.368C150.415 133.368 146.566 143.656 150.927 145.741C155.288 147.827 162.934 146.649 162.846 147.937C162.758 149.224 152.273 149.115 150.407 151.12C148.541 153.124 149.412 148.478 147.298 148.12C146.002 147.903 144.673 148.05 143.456 148.544L146.902 142.507L150.415 133.368Z" fill="#7EB1DF"/>
<path d="M156.151 115.105C156.151 115.105 152.251 134.759 157.527 138.395C162.802 142.032 167.214 134.737 170.558 128.744C173.902 122.751 177.275 128.744 178.227 126.212C179.178 123.681 172.658 121.668 175.014 120.022C177.371 118.376 172.453 115.595 165.173 114.168C157.892 112.741 156.597 112.529 156.151 115.105Z" fill="white"/>
<path d="M234.019 163.068C234.019 163.068 233.566 160.2 232.871 155.898C232.176 151.595 231.217 145.873 230.185 140.166C229.673 137.312 229.161 134.444 228.619 131.78C228.078 129.117 227.61 126.658 227.112 124.515C226.871 123.461 226.651 122.488 226.468 121.632L225.832 119.48C225.48 118.28 225.276 117.593 225.276 117.593V117.483C225.23 117.326 225.248 117.157 225.326 117.013C225.404 116.869 225.536 116.762 225.693 116.715C225.847 116.67 226.012 116.686 226.155 116.759C226.298 116.833 226.407 116.958 226.461 117.11L227.105 119.041C227.317 119.656 227.566 120.41 227.837 121.237C228.107 122.063 228.312 123.066 228.568 124.163C229.146 126.278 229.746 128.751 230.354 131.422C230.961 134.093 231.605 136.917 232.219 139.763C233.456 145.456 234.612 151.149 235.476 155.437C236.339 159.724 236.88 162.571 236.88 162.571C236.913 162.93 236.812 163.289 236.596 163.579C236.38 163.868 236.064 164.067 235.71 164.138C235.356 164.209 234.988 164.146 234.677 163.962C234.367 163.778 234.135 163.486 234.027 163.141V163.09L234.019 163.068Z" fill="#7EB1DF"/>
<path d="M264.415 150.102C254.654 153.761 239.536 157.924 235.395 158.151L233.734 157.317L229.856 132.439C229.856 132.439 231.371 133.771 233.002 133.127C234.634 132.483 236.463 126.249 238.475 126.293C240.488 126.337 233.902 135.366 235.358 141.219C236.814 147.073 244.827 133.676 246.283 132.439C247.739 131.202 245.222 139.024 243.027 142.763C240.832 146.502 245.222 150.556 243.393 151.617C241.563 152.678 240.671 145.551 238.271 146.832C235.871 148.112 236.251 153.937 240.356 154.668C243.027 155.122 256.395 149.488 264.415 150.102Z" fill="#7EB1DF"/>
<path d="M313.205 97.8219C312.385 96.556 311.222 98.0634 306.349 100.646C301.476 103.229 296.441 109.493 293.427 109.178C285.722 108.388 283.966 91.7999 283.439 90.3146C284.834 91.0384 286.03 92.0937 286.922 93.3877C286.922 93.3877 286.922 93.3877 286.922 93.3877C287.618 94.3583 288.168 95.4258 288.554 96.556C289.373 98.9414 293.924 97.2877 299.068 95.9195C300.495 95.5316 301.995 95.1877 303.458 95.6487C305.184 94.7483 307.178 94.5039 309.071 94.9609H309.224C309.727 95.086 310.217 95.2575 310.688 95.4731C310.783 95.4731 310.885 95.5682 310.973 95.6121C311.491 95.8194 311.927 96.1892 312.217 96.6658V96.6658C312.469 96.7537 312.694 96.907 312.867 97.1102C313.041 97.3133 313.157 97.5589 313.205 97.8219V97.8219Z" fill="#FCDAC3"/>
<path d="M299.075 95.9487C299.075 95.9487 292.973 99.256 290.931 101.071C287.441 104.144 285.546 103.317 285.583 99.5707C285.619 95.8243 287.573 94.7707 286.929 93.4536C287.625 94.4242 288.175 95.4917 288.561 96.6219C289.38 98.9707 293.931 97.317 299.075 95.9487Z" fill="#FABB94"/>
<path d="M304.168 96.2196C302.58 96.9513 299.222 98.8683 299.046 98.3342C298.871 97.8 301.593 97.2878 302.873 96.2196C304.154 95.1513 303.502 95.0122 303.429 94.9903C305.283 94.6313 307.188 94.6313 309.041 94.9903C308.434 94.8366 305.778 95.4659 304.168 96.2196Z" fill="#E19874"/>
<path d="M312.21 96.439C311.346 96.1829 302.346 100.2 302.258 99.7463C302.171 99.2927 310.966 95.6634 310.966 95.6634C311.411 95.8688 311.829 96.1294 312.21 96.439V96.439Z" fill="#E19874"/>
<path d="M200.419 164.89C199.392 166.511 198.041 167.901 196.451 168.974C194.86 170.047 193.065 170.779 191.178 171.124C184.849 172.207 165.919 183.124 173.383 189.856C180.846 196.588 211.336 176.217 229.841 183.849C248.346 191.48 250.629 185.312 250.629 185.312L242.529 170.393L235.827 163.39L224.514 165.585L216.144 167.846L200.419 164.89Z" fill="#E8F1F9"/>
<path d="M277.161 143.568C269.302 148.69 259.6 152.085 251.368 154.376C250.029 153.205 250.3 152.115 253.958 151.398C265.27 149.202 260.844 123.11 260.844 123.11C260.844 123.11 276.012 140.846 276.941 142.968C277.03 143.162 277.104 143.363 277.161 143.568V143.568Z" fill="#7EB1DF"/>
<path d="M302.544 167.261C301.812 168.11 300.129 168.724 297.202 169.017C290.119 169.785 282.502 177.468 277.629 179.649C276.742 180.152 275.701 180.316 274.702 180.11C270.524 178.749 262.263 132.761 260.8 123.037C259.388 113.568 251.288 116.971 250.812 117.183C251.961 115.902 254.273 114.366 257.207 113.041C257.232 113.025 257.259 113.013 257.288 113.005C264.166 109.902 274.307 107.941 280.322 113.041C287.075 118.778 292.505 140.649 296.463 152.415V152.502C297.105 154.532 297.898 156.51 298.834 158.422C299.01 158.744 299.185 159 299.346 159.241C302.01 162.871 304.014 165.571 302.544 167.261Z" fill="#E82231"/>
<path d="M270.1 111.805C270.1 111.805 280.395 115.039 279.166 127.244C277.937 139.449 272.705 142.61 274.007 145.485C275.31 148.361 279.934 137.224 282.342 137.085C284.749 136.946 280.512 148.105 282.342 149.21C284.171 150.315 287.698 143.451 287.778 141.285C287.859 139.12 286.673 122.122 286.673 122.122L282.729 115.01L270.1 111.805Z" fill="#B02025"/>
<path d="M298.366 162.359C295.607 162.98 292.263 156.505 288.853 156.761C285.444 157.017 286.044 166.756 280.944 164.576C275.844 162.395 288.956 140.356 282.78 123.08C276.824 106.471 258.634 112.522 257.244 113.027C259.973 107.612 274.856 107.173 280.658 112.8C287.017 118.961 292.439 140.671 296.397 152.437V152.524C297.361 154.424 298.154 156.405 298.768 158.444C299.368 160.383 299.485 162.095 298.366 162.359Z" fill="#F05B42"/>
<path d="M302.946 167.298C302.215 168.146 300.532 168.761 297.605 169.054C290.529 169.822 282.905 177.505 278.039 179.685C278.507 179.232 286.088 172.083 287.332 168.227C288.598 164.246 289.483 161.224 292.812 163.2C296.141 165.176 300.459 169.507 302.946 167.298Z" fill="#B02025"/>
<path d="M228.393 158.217L228.678 158.261C228.969 158.3 229.254 158.374 229.527 158.48C229.997 158.63 230.451 158.829 230.88 159.073C231.435 159.352 231.97 159.667 232.483 160.017C235.563 162.154 238.367 164.663 240.832 167.488C242.495 169.351 244.054 171.305 245.5 173.341C247.103 175.633 248.548 178.031 249.824 180.52C251.216 183.183 252.374 185.961 253.285 188.824C254.254 191.788 254.933 194.839 255.312 197.934L255.568 200.283C255.612 201.059 255.62 201.849 255.649 202.632C255.751 204.198 255.583 205.756 255.539 207.315C255.371 208.851 255.195 210.388 254.924 211.88C254.654 213.373 254.376 214.866 253.893 216.271C253.51 217.667 253.054 219.042 252.524 220.39C252.054 221.699 251.511 222.982 250.9 224.232C249.806 226.523 248.585 228.751 247.241 230.905L245.317 233.678C245.017 234.117 244.717 234.541 244.424 234.959C244.132 235.376 243.802 235.741 243.502 236.107C242.295 237.571 241.307 238.932 240.349 239.912L237.422 243.073C237.044 243.444 236.538 243.656 236.008 243.664C235.479 243.672 234.966 243.476 234.577 243.117C234.188 242.758 233.952 242.263 233.917 241.735C233.883 241.206 234.053 240.685 234.393 240.278C234.405 240.275 234.417 240.275 234.429 240.278L234.517 240.176C234.517 240.176 235.556 239.115 237.371 237.249C238.315 236.349 239.273 235.098 240.466 233.722L241.373 232.661C241.659 232.273 241.951 231.878 242.244 231.468L244.132 228.907C245.447 226.917 246.651 224.855 247.739 222.732C248.934 220.365 249.938 217.906 250.739 215.378C251.237 214.076 251.471 212.685 251.815 211.317C252.159 209.949 252.305 208.5 252.502 207.066C252.576 205.602 252.788 204.139 252.722 202.676C252.722 201.944 252.722 201.212 252.722 200.48L252.546 198.285C252.273 195.348 251.707 192.446 250.856 189.622C250.061 186.856 249.03 184.163 247.776 181.573C246.606 179.139 245.271 176.787 243.78 174.534C242.43 172.519 240.964 170.585 239.39 168.739C237.085 165.952 234.44 163.464 231.517 161.334C230.752 160.777 229.927 160.305 229.058 159.929C228.827 159.82 228.58 159.748 228.327 159.717L228.049 159.659C227.86 159.618 227.695 159.505 227.589 159.343C227.484 159.181 227.446 158.984 227.485 158.795C227.503 158.696 227.541 158.601 227.598 158.517C227.654 158.433 227.727 158.362 227.812 158.307C227.898 158.253 227.993 158.217 228.093 158.201C228.193 158.186 228.295 158.191 228.393 158.217Z" fill="#7EB1DF"/>
<path d="M177.715 128.21C177.716 128.913 177.509 129.602 177.119 130.187C176.729 130.773 176.174 131.23 175.525 131.5C174.875 131.771 174.16 131.842 173.469 131.706C172.779 131.569 172.145 131.231 171.647 130.734C171.149 130.237 170.809 129.604 170.671 128.914C170.534 128.223 170.604 127.508 170.873 126.858C171.141 126.208 171.597 125.652 172.182 125.261C172.767 124.87 173.455 124.661 174.159 124.661C175.101 124.661 176.004 125.035 176.671 125.7C177.337 126.365 177.713 127.268 177.715 128.21V128.21Z" fill="#231F20"/>
<path d="M222.795 179.685C222.795 180.389 222.586 181.076 222.195 181.661C221.805 182.246 221.249 182.702 220.6 182.971C219.95 183.24 219.235 183.31 218.545 183.173C217.855 183.036 217.222 182.697 216.724 182.2C216.227 181.703 215.888 181.069 215.751 180.379C215.614 179.689 215.684 178.974 215.953 178.324C216.222 177.675 216.678 177.119 217.263 176.729C217.848 176.338 218.535 176.129 219.239 176.129C219.706 176.128 220.169 176.22 220.601 176.398C221.033 176.576 221.425 176.838 221.755 177.169C222.086 177.499 222.348 177.891 222.526 178.323C222.704 178.755 222.796 179.218 222.795 179.685V179.685Z" fill="#231F20"/>
<path d="M189.371 184.529C189.375 185.235 189.17 185.927 188.781 186.516C188.391 187.105 187.836 187.565 187.185 187.838C186.534 188.111 185.816 188.184 185.123 188.048C184.43 187.913 183.793 187.574 183.293 187.076C182.793 186.578 182.452 185.942 182.313 185.25C182.175 184.558 182.245 183.84 182.515 183.188C182.786 182.535 183.243 181.978 183.831 181.586C184.418 181.195 185.109 180.986 185.815 180.988C186.755 180.988 187.658 181.36 188.324 182.024C188.991 182.688 189.367 183.589 189.371 184.529V184.529Z" fill="#231F20"/>
<path d="M138.48 164.429L120.012 174.227C118.68 172.719 117.334 171.146 115.988 169.573C107.302 159.293 98.9609 148.09 99.056 146.276C99.0999 145.354 100.519 142.449 102.715 138.556C102.041 141.761 101.88 145.471 104.244 146.488C108.693 148.419 106.768 142.28 109.907 141.761C113.046 141.241 109.863 152.078 114.415 152.393C118.966 152.707 129.371 147.724 131.639 150.695C133.907 153.666 124.322 152.671 126.217 157.28C128.112 161.89 138.48 164.429 138.48 164.429Z" fill="#7EB1DF"/>
<path d="M283.527 328.39C278.478 332.444 271.819 335.319 263.99 337.332C229.241 346.31 171.751 338.349 133.439 340.99C132.546 341.041 131.69 341.107 130.863 341.173L128.91 341.319C121.958 341.854 116.405 342.512 111.678 344.034C109.831 344.597 108.046 345.347 106.351 346.273C106.007 346.456 105.685 346.661 105.356 346.858L104.844 347.166C104.844 347.166 91.6731 310.105 96.2316 294.849C96.3048 294.585 96.3999 294.337 96.4877 294.08C96.6606 293.582 96.8609 293.093 97.0877 292.617C97.1853 292.389 97.2952 292.167 97.417 291.951C97.7789 291.353 98.214 290.803 98.7121 290.312C98.8721 290.147 99.0432 289.993 99.2243 289.851C100.424 288.915 102.341 288.197 104.91 287.7C106.168 287.451 107.551 287.246 109.088 287.085C134.873 284.371 199.007 293.356 237.495 290.795C255.693 289.573 268.797 287.934 277.658 285.424C286.519 282.915 291.239 279.527 292.483 274.873C294.978 265.61 295.249 318.973 283.527 328.39Z" fill="#E82231"/>
<path d="M133.431 340.976C120.348 341.876 112.314 342.38 105.356 346.829C105.356 346.829 87.7434 299.005 99.2459 289.873C101.017 288.468 104.426 287.59 109.124 287.093C88.5849 294.856 125.324 288.878 125.324 288.878L133.431 340.976Z" fill="#B02025"/>
<path d="M121.468 351.168C119.69 351.791 117.868 352.28 116.017 352.632C102.049 355.354 102.554 348.483 102.554 348.483C102.554 348.483 95.5366 318.373 93.0268 302.78C91.2415 291.805 97.9585 289.061 104.976 287.707C100.066 290.371 98.9171 292.273 99.8976 293.605C102.546 297.263 121.293 296.722 121.293 296.722L129.341 343.683C129.341 343.683 129.795 348.146 121.468 351.168Z" fill="#F05B42"/>
<path d="M121.468 351.168C119.69 351.791 117.868 352.28 116.017 352.632C102.049 355.354 102.554 348.483 102.554 348.483C102.554 348.483 95.5366 318.373 93.0268 302.78C91.2415 291.805 97.9585 289.061 104.976 287.707C100.066 290.371 98.9171 292.273 99.8976 293.605C100.154 300.732 102.832 347.854 121.468 351.168Z" fill="#E82231"/>
<path d="M283.527 328.39C278.478 332.444 271.82 335.319 263.99 337.332C281.698 317.473 277.695 285.424 277.695 285.424C286.629 282.9 291.276 279.527 292.52 274.873C294.978 265.61 295.249 318.973 283.527 328.39Z" fill="#F05B42"/>
<path d="M159.393 221.627C160.479 220.541 161.222 219.159 161.529 217.654C161.529 217.595 161.529 217.544 161.529 217.463C161.529 217.383 162.385 212.532 163.607 205.566C165.725 206.3 167.952 206.669 170.193 206.656C176.976 206.656 184.666 203.254 190.41 196.068C191.149 197.564 192.06 198.969 193.124 200.254C194.872 202.359 197.071 204.045 199.559 205.185C202.047 206.325 204.759 206.89 207.495 206.839C212.193 206.776 216.749 205.22 220.505 202.398C223.753 205.418 228.056 207.044 232.49 206.927C239.42 206.927 247.256 202.537 250.051 197.122C250.996 195.458 251.278 193.5 250.841 191.637C250.404 189.775 249.281 188.146 247.695 187.076C247.617 185.406 247.755 183.734 248.105 182.1C248.178 181.646 248.273 181.127 248.383 180.527C239.954 160.712 228.78 159.417 228.78 159.417L222.459 158.846L198.663 156.585L196.615 156.388C196.417 156.629 196.22 156.863 196.022 157.119C195.883 156.834 195.744 156.563 195.59 156.3L129.1 150.095C129.1 150.095 124.095 145.149 116.273 168.102C116.098 168.578 115.944 169.054 115.783 169.566C114.319 174.029 112.754 179.459 111.107 186.088C105.51 208.712 106.988 223.741 112.776 233.649C128.493 260.576 183.502 252.439 205.951 252.439C221.317 252.439 234.927 244.266 243.634 232.412C245.927 229.276 247.873 225.9 249.437 222.344C246.945 221.128 244.204 220.512 241.432 220.544C236.507 220.544 231.056 222.819 227.288 226.112C223.798 223.185 218.288 220.544 209.763 220.544C204.857 220.561 200.005 221.568 195.497 223.506C190.99 225.444 186.92 228.271 183.532 231.819C182.877 229.759 181.828 227.846 180.444 226.185C178.917 224.358 177.001 222.895 174.836 221.904C172.672 220.913 170.312 220.418 167.932 220.456C165.057 220.48 162.214 221.062 159.561 222.168C159.561 222.168 158.156 222.761 159.371 221.641L159.393 221.627Z" fill="#7EB1DF"/>
<path d="M271.117 223.076C268.388 219.805 264.202 218.012 259.351 218.012C255.692 218.012 251.924 219.439 248.507 222.015C245.341 219.351 241.309 217.94 237.173 218.049C232.248 218.049 226.797 220.317 223.044 223.61C219.546 220.683 214.029 218.049 205.483 218.049C200.581 218.063 195.733 219.067 191.229 221.001C186.726 222.935 182.659 225.758 179.273 229.302C178.61 227.244 177.56 225.332 176.178 223.668C174.649 221.846 172.733 220.388 170.57 219.4C168.407 218.411 166.051 217.917 163.673 217.954C160.8 217.975 157.959 218.557 155.309 219.666V219.666C155.309 219.666 153.919 220.273 155.127 219.146C156.221 218.068 156.968 216.687 157.27 215.18C157.27 215.129 157.27 215.063 157.27 215.012C157.27 214.961 158.119 210.059 159.348 203.1C161.465 203.837 163.693 204.205 165.934 204.19C172.709 204.19 180.4 200.78 186.136 193.602C186.872 195.101 187.783 196.506 188.851 197.788C190.599 199.895 192.799 201.582 195.288 202.722C197.777 203.862 200.492 204.426 203.229 204.373C207.923 204.305 212.473 202.747 216.224 199.924C219.466 202.951 223.769 204.581 228.202 204.461C235.131 204.461 242.968 200.071 245.763 194.649C246.711 192.987 246.995 191.029 246.558 189.166C246.121 187.304 244.995 185.676 243.407 184.61C243.333 182.945 243.471 181.278 243.817 179.649C244.783 174.08 248.566 155.737 248.8 154.595C249.196 152.729 248.856 150.783 247.851 149.162C246.846 147.541 245.254 146.37 243.407 145.895C242.844 145.755 242.267 145.684 241.688 145.683H224.734C224.265 145.689 223.797 145.736 223.336 145.822C222.706 145.953 222.094 146.162 221.514 146.444C218.6 144.786 215.296 143.937 211.944 143.985C203.639 143.985 196.746 148.376 191.792 154.683C191.055 153.161 190.136 151.734 189.056 150.432C187.31 148.314 185.108 146.618 182.614 145.471C180.121 144.325 177.4 143.757 174.656 143.81C169.914 143.879 165.32 145.469 161.551 148.346C158.313 145.327 154.021 143.698 149.595 143.81C145.629 143.897 141.76 145.049 138.392 147.146C137.601 146.529 136.692 146.079 135.722 145.822C135.157 145.683 134.577 145.612 133.995 145.61H116.946C116.477 145.616 116.009 145.662 115.548 145.749C114.92 145.88 114.31 146.089 113.734 146.371C110.817 144.714 107.51 143.865 104.156 143.912C100.518 143.908 96.932 144.768 93.6924 146.422C93.6724 141.569 91.9971 136.869 88.9436 133.098C83.9168 126.9 75.3265 123.293 64.7607 122.949C56.1192 122.68 47.4831 123.631 39.107 125.773C37.6604 126.084 36.336 126.811 35.2962 127.863C34.2564 128.916 33.5464 130.25 33.2534 131.7C33.2534 131.751 33.2534 131.802 33.2534 131.854L24.5021 180.637C22.8558 189.929 25.5119 195.483 28.0436 198.505C29.0243 199.632 30.1571 200.617 31.4095 201.432C29.2917 201.746 27.1914 202.169 25.1168 202.698C23.6616 203.016 22.3317 203.755 21.2914 204.821C20.2511 205.887 19.546 207.235 19.2631 208.698C19.259 208.746 19.259 208.795 19.2631 208.844L9.01922 267.285C8.65611 269.117 8.99884 271.017 9.97864 272.607C10.9585 274.196 12.5029 275.356 14.3021 275.854C16.2558 276.483 23.9826 278.678 37.3875 278.678C43.6797 278.747 49.9078 277.41 55.6171 274.764C61.3263 272.118 66.3727 268.231 70.3875 263.385C71.3309 265.582 72.5879 267.63 74.1192 269.466C79.1168 275.407 86.6534 278.678 95.3387 278.678C103.275 278.623 110.963 275.908 117.173 270.966C117.466 272.29 118.122 273.506 119.066 274.479C120.011 275.452 121.207 276.143 122.522 276.476C123.081 276.618 123.656 276.692 124.234 276.695H141.319C141.782 276.694 142.243 276.645 142.695 276.549C144.016 276.287 145.244 275.68 146.255 274.791C147.266 273.902 148.024 272.762 148.453 271.485C148.658 271.778 148.885 272.056 149.119 272.334C152.375 276.183 157.205 278.312 162.714 278.312C168.224 278.312 174.261 275.517 177.985 271.646C182.954 276.158 189.458 278.602 196.168 278.481C204.275 278.481 211.329 275.115 216.568 271.039C216.933 272.646 217.834 274.081 219.122 275.109C220.411 276.137 222.01 276.696 223.658 276.695H240.795C242.528 276.685 244.205 276.074 245.539 274.966C246.873 273.859 247.782 272.324 248.112 270.622C248.108 270.578 248.108 270.534 248.112 270.49L251.361 252.146C252.387 252.422 253.445 252.562 254.507 252.563C264.217 252.563 272.236 245.671 274.022 235.793C274.892 230.89 273.868 226.368 271.117 223.076ZM81.0119 212.832C80.6594 214.709 80.7224 216.641 81.1965 218.492C81.6705 220.343 82.5441 222.067 83.7558 223.544C83.8582 223.661 83.9607 223.756 84.0631 223.881C82.951 224.594 81.881 225.371 80.8582 226.207C79.9936 220.559 77.6169 215.249 73.9802 210.841C69.1948 205.134 62.3607 201.512 54.3851 200.349C57.4656 198.432 60.0485 195.959 61.446 193.302C63.1875 190.054 62.9095 185.59 58.5631 182.766C58.4076 181.551 58.4076 180.322 58.5631 179.107C64.499 178.86 70.3222 177.406 75.6778 174.834C74.6387 183.768 76.6217 192.11 81.1436 197.517C82.9704 199.71 85.2895 201.44 87.9119 202.566C86.125 203.712 84.5912 205.211 83.4046 206.971C82.2181 208.732 81.4038 210.716 81.0119 212.802V212.832Z" fill="white"/>
<path d="M40.0144 132.768C40.0396 132.645 40.1064 132.534 40.2037 132.454C40.3009 132.374 40.4227 132.33 40.5486 132.329C48.3571 130.281 56.4222 129.382 64.49 129.658C78.1364 130.098 88.673 136.976 86.3534 150.088C84.7437 159.6 76.5413 173.1 52.6217 172.119L51.8242 176.407C49.8559 190.507 56.6388 187.463 55.2998 189.958C53.6096 193.178 47.3608 197.188 42.012 197.188C34.7827 197.188 29.4266 192.644 31.3949 181.58L40.0144 132.768ZM58.3949 139.288L54.1949 162.937C61.3364 162.937 66.6852 156.424 67.8486 149.905C69.0047 143.217 65.2656 138.219 58.3949 139.288V139.288Z" fill="#E82231"/>
<path d="M131.807 190.566C130.446 193.31 125.222 196.632 120.466 196.632C114.612 196.632 110.653 192.973 110.653 186.9C106.739 192.454 101.448 196.544 95.4777 196.544C84.7289 196.544 80.8875 184.69 82.8558 173.261C84.8972 161.554 92.9167 150.146 104.075 150.146C109.929 150.146 113.544 153.476 115.329 158.254C115.929 154.676 116.361 152.363 116.361 152.363C116.388 152.239 116.45 152.125 116.539 152.034C116.628 151.944 116.742 151.88 116.866 151.851H133.929C133.974 151.862 134.017 151.882 134.055 151.91C134.092 151.938 134.124 151.973 134.148 152.013C134.172 152.053 134.187 152.098 134.194 152.144C134.2 152.191 134.197 152.238 134.185 152.283C134.185 152.283 130.175 171.724 129.151 177.607C126.787 191.173 133.102 188.268 131.807 190.566ZM113.214 173.737C114.326 167.349 113.046 162.146 108.868 162.146C104.69 162.146 101.551 167.349 100.417 173.737C99.2826 180.124 100.592 185.254 104.77 185.254C108.948 185.254 112.117 180.132 113.229 173.729L113.214 173.737Z" fill="#E82231"/>
<path d="M187.212 174.007C185.163 185.715 177.231 197.129 166.058 197.129C160.168 197.129 156.59 193.8 154.805 189.022C152.5 201.907 150.414 213.761 150.414 213.761C150.385 213.886 150.322 213.999 150.231 214.09C150.141 214.18 150.027 214.244 149.902 214.273H132.927C132.927 214.273 132.502 214.185 132.678 213.849C132.678 213.849 139.263 175.639 140.266 169.749C142.651 156.19 137.024 159.088 138.217 156.783C139.578 154.054 144.802 150.724 149.558 150.724C155.412 150.724 159.363 154.383 159.458 160.456C163.38 154.822 168.671 150.724 174.634 150.724C185.419 150.732 189.253 162.593 187.212 174.007ZM169.724 173.729C170.829 167.341 169.549 162.219 165.371 162.219C161.192 162.219 158.053 167.341 156.927 173.729C155.8 180.117 157.102 185.334 161.28 185.334C165.458 185.334 168.612 180.132 169.724 173.729Z" fill="#E82231"/>
<path d="M239.69 190.566C238.329 193.31 233.105 196.632 228.349 196.632C222.495 196.632 218.544 192.973 218.544 186.9C214.622 192.454 209.332 196.544 203.361 196.544C192.612 196.544 188.778 184.69 190.731 173.261C192.788 161.554 200.8 150.146 211.951 150.146C217.805 150.146 221.419 153.476 223.205 158.254C223.805 154.676 224.236 152.363 224.236 152.363C224.265 152.238 224.328 152.124 224.419 152.034C224.509 151.943 224.624 151.88 224.749 151.851H241.805C241.85 151.862 241.893 151.882 241.93 151.91C241.968 151.938 242 151.973 242.023 152.013C242.047 152.053 242.063 152.098 242.069 152.144C242.076 152.191 242.073 152.238 242.061 152.283C242.061 152.283 238.051 171.724 237.027 177.607C234.663 191.173 240.978 188.268 239.69 190.566ZM221.097 173.737C222.21 167.349 220.929 162.146 216.751 162.146C212.573 162.146 209.434 167.349 208.307 173.737C207.18 180.124 208.475 185.254 212.653 185.254C216.831 185.254 219.992 180.132 221.075 173.729L221.097 173.737Z" fill="#E82231"/>
<path d="M37.344 271.398C23.3611 271.398 16.1904 268.844 16.1904 268.844C16.1308 268.841 16.0728 268.824 16.0211 268.794C15.9694 268.764 15.9253 268.723 15.8926 268.673C15.8598 268.623 15.8393 268.566 15.8325 268.507C15.8258 268.448 15.8331 268.388 15.8538 268.332L26.0977 209.795C26.1126 209.665 26.1702 209.543 26.2615 209.449C26.3529 209.355 26.4728 209.294 26.6026 209.276C26.6026 209.276 34.7026 206.898 48.7001 206.898C67.2855 206.898 76.9221 221.144 73.7684 239.049C70.6148 256.954 57.3855 271.398 37.344 271.398ZM35.6392 262.017C46.1318 262.522 52.8636 250.676 55.0001 238.654C56.7928 228.337 54.744 214.595 43.7392 216.22L35.6392 262.017Z" fill="#E82231"/>
<path d="M95.2878 271.398C81.5609 271.398 73.2926 261.08 75.5317 248.202C77.7707 235.324 89.6902 225 103.424 225C117.159 225 125.515 235.405 123.29 248.202C122.039 254.717 118.561 260.594 113.452 264.826C108.343 269.057 101.922 271.381 95.2878 271.398V271.398ZM96.9048 261.761C102.027 261.761 105.1 255.71 106.461 248.202C107.741 240.885 106.717 234.637 101.771 234.637C96.8244 234.637 93.5829 240.863 92.3024 248.202C91.0219 255.366 91.9658 261.761 96.9048 261.761Z" fill="#E82231"/>
<path d="M174.048 265.068C172.585 267.702 167.463 271.032 162.7 271.032C155.88 271.032 150.992 266.085 152.382 258.066C152.895 255.139 154.256 247.405 155.368 241.522C156.831 232.99 147.685 235.976 145.812 246.037C144.107 255.768 141.802 268.895 141.802 268.895C141.774 269.02 141.713 269.135 141.623 269.227C141.534 269.319 141.421 269.384 141.297 269.415H124.234C124.143 269.391 124.065 269.332 124.017 269.251C123.97 269.17 123.955 269.074 123.978 268.983C123.978 268.983 128.068 249.541 129.1 243.659C131.492 230.093 125.09 232.99 126.363 230.685C127.731 227.956 132.853 224.627 137.624 224.627C143.595 224.627 147.604 228.388 147.604 234.607C152.631 227.29 159.202 224.627 163.702 224.627C170.097 224.627 174.539 230.173 172.995 238.698C172.402 242.29 171.721 245.612 170.602 252.015C168.239 265.61 175.321 262.683 174.048 265.068Z" fill="#E82231"/>
<path d="M219.114 257.561C217.49 261.161 208.636 271.229 196.197 271.229C183.319 271.229 174.978 260.824 177.173 247.954C179.302 235.515 190.907 224.744 205.578 224.744C219.561 224.744 223.995 233.524 222.97 239.59C220.585 252.98 204.722 254.598 193.885 252.724C195.348 261.256 206.514 262.105 217.936 256.31C218.368 256.046 218.785 255.959 219.048 256.215C219.312 256.471 219.451 256.829 219.114 257.561ZM194.463 244.763C201.97 245.437 206.236 242.634 206.997 238.024C207.429 235.727 205.892 233.766 203.251 233.934C203.204 233.982 203.142 234.013 203.075 234.022H202.819C202.072 234.138 201.351 234.385 200.69 234.754C197.529 236.517 195.575 240.607 194.463 244.785V244.763Z" fill="#E82231"/>
<path d="M267.173 234.271C265.892 241.354 260.346 245.246 254.544 245.246C252.502 245.246 250.797 244.061 250.622 243.541C250.197 242.773 250.709 242.18 250.966 240.476C251.478 237.827 251.134 236.722 249.853 236.722C247.387 236.722 246.195 241.068 245.251 246.358C243.539 255.995 241.241 268.961 241.241 268.961C241.153 269.393 240.817 269.393 240.817 269.393H223.666C223.666 269.393 223.329 269.393 223.409 268.961C223.409 268.961 227.507 249.607 228.531 243.717C230.909 230.151 224.609 233.049 225.802 230.758C227.265 228.022 232.446 224.693 237.224 224.693C242.939 224.693 246.78 228.102 246.956 233.993C250.278 228.366 255.224 224.693 259.395 224.693C264.773 224.715 268.27 228.124 267.173 234.271Z" fill="#E82231"/>
<path d="M93.934 221.049C89.7633 221.049 87.2389 217.91 87.9194 213.995C88.3048 212.022 89.3588 210.243 90.9037 208.956C92.4486 207.67 94.3898 206.956 96.3999 206.934C100.578 206.934 103.124 210.095 102.451 213.995C102.068 215.975 101.009 217.761 99.4561 219.048C97.9027 220.334 95.9509 221.041 93.934 221.049V221.049Z" fill="#E82231"/>
<path d="M115.344 221.049C111.173 221.049 108.649 217.91 109.329 213.995C109.715 212.021 110.77 210.24 112.316 208.954C113.863 207.668 115.805 206.954 117.817 206.934C121.995 206.934 124.534 210.095 123.861 213.995C123.479 215.976 122.421 217.763 120.867 219.049C119.313 220.336 117.361 221.043 115.344 221.049Z" fill="#E82231"/>
<path fill-rule="evenodd" clip-rule="evenodd" d="M398.597 72.24L398.357 203.52C398.357 217.6 401.717 228.16 408.437 235.2C415.317 242.08 424.037 245.52 434.597 245.52C441.477 245.52 448.117 243.44 454.517 239.28C461.077 235.12 465.157 230.72 466.757 226.08C467.237 224.96 467.077 224.08 466.277 223.44C465.477 222.8 464.277 222.08 462.677 221.28C461.077 220.32 459.477 218.96 457.877 217.2C456.277 215.28 454.757 212 453.317 207.36C452.037 202.56 451.317 196.64 451.157 189.6V178.08C463.637 178.56 474.677 177.68 484.277 175.44C494.037 173.04 501.797 169.84 507.557 165.84C513.317 161.84 518.037 157.04 521.717 151.44C525.557 145.84 528.117 140.4 529.397 135.12C530.837 129.84 531.557 124.4 531.557 118.8C531.557 102 524.997 88.8 511.877 79.2C498.917 69.6 482.597 64.48 462.917 63.84C452.197 63.52 441.317 64.08 430.277 65.52C419.237 66.8 411.877 67.92 408.197 68.88C404.677 69.68 401.877 70.4 399.797 71.04C399.157 71.2 398.757 71.6 398.597 72.24ZM481.637 118.32C481.637 127.6 478.837 135.76 473.237 142.8C467.637 149.84 460.277 153.36 451.157 153.36V89.76C459.957 88.32 467.237 90.4 472.997 96C478.757 101.6 481.637 109.04 481.637 118.32Z" fill="#323232"/>
<path fill-rule="evenodd" clip-rule="evenodd" d="M658.772 212.64C657.172 207.36 656.372 200.4 656.372 191.76C656.372 180.72 656.932 156.96 658.052 120.48C658.052 119.84 657.732 119.44 657.092 119.28H609.092C608.292 119.44 607.892 119.92 607.892 120.72V137.28C599.412 122.08 587.492 114.48 572.132 114.48C557.252 114.48 545.492 120.96 536.852 133.92C528.212 146.72 523.892 161.92 523.892 179.52C523.892 190.56 525.652 200.96 529.172 210.72C532.692 220.48 538.132 228.64 545.492 235.2C552.852 241.76 561.332 245.04 570.932 245.04C586.772 245.04 599.412 236 608.852 217.92C610.452 226.4 614.212 233.12 620.132 238.08C626.052 242.88 633.172 245.28 641.492 245.28C647.892 245.28 653.972 243.52 659.732 240C665.492 236.32 669.012 232.4 670.292 228.24C670.772 226.96 670.372 225.92 669.092 225.12C667.812 224.16 666.212 223.12 664.292 222C662.372 220.88 660.532 217.76 658.772 212.64ZM591.332 211.92C585.732 211.92 581.332 208.88 578.132 202.8C574.932 196.72 573.332 188.96 573.332 179.52C573.332 170.08 574.932 162.32 578.132 156.24C581.332 150 585.732 146.88 591.332 146.88C596.932 146.88 601.332 150 604.532 156.24C607.732 162.32 609.332 170.08 609.332 179.52C609.332 188.96 607.732 196.72 604.532 202.8C601.332 208.88 596.932 211.92 591.332 211.92Z" fill="#323232"/>
<path fill-rule="evenodd" clip-rule="evenodd" d="M768.257 114C782.497 114 793.857 120.64 802.337 133.92C810.817 147.04 815.057 162.24 815.057 179.52C815.057 197.12 810.737 212.4 802.097 225.36C793.617 238.16 781.937 244.56 767.057 244.56C751.697 244.56 739.777 236.96 731.297 221.76V291.36C731.297 292.16 730.897 292.64 730.097 292.8H682.097L681.137 292.08V291.6C680.977 219.92 680.897 178.56 680.897 167.52C680.897 158.88 680.177 152 678.737 146.88C677.297 141.6 675.697 138.4 673.937 137.28C672.177 136.16 670.737 135.2 669.617 134.4C668.497 133.44 668.177 132.32 668.657 131.04C670.097 126.88 673.697 123.04 679.457 119.52C685.217 115.84 691.297 114 697.697 114C706.017 114 713.137 116.48 719.057 121.44C724.977 126.24 728.737 132.88 730.337 141.36C739.777 123.12 752.417 114 768.257 114ZM734.657 203.04C737.857 209.12 742.257 212.16 747.857 212.16C753.457 212.16 757.857 209.12 761.057 203.04C764.257 196.8 765.857 188.96 765.857 179.52C765.857 170.08 764.257 162.32 761.057 156.24C757.857 150.16 753.457 147.12 747.857 147.12C742.257 147.12 737.857 150.16 734.657 156.24C731.457 162.32 729.857 170.08 729.857 179.52C729.857 188.96 731.457 196.8 734.657 203.04Z" fill="#323232"/>
<path fill-rule="evenodd" clip-rule="evenodd" d="M957.132 212.64C955.532 207.36 954.732 200.4 954.732 191.76C954.732 180.72 955.292 156.96 956.412 120.48C956.412 119.84 956.092 119.44 955.452 119.28H907.452C906.652 119.44 906.252 119.92 906.252 120.72V137.28C897.772 122.08 885.852 114.48 870.492 114.48C855.612 114.48 843.852 120.96 835.212 133.92C826.572 146.72 822.252 161.92 822.252 179.52C822.252 190.56 824.012 200.96 827.532 210.72C831.052 220.48 836.492 228.64 843.852 235.2C851.212 241.76 859.692 245.04 869.292 245.04C885.132 245.04 897.772 236 907.212 217.92C908.812 226.4 912.572 233.12 918.492 238.08C924.412 242.88 931.532 245.28 939.852 245.28C946.252 245.28 952.332 243.52 958.092 240C963.852 236.32 967.372 232.4 968.652 228.24C969.132 226.96 968.732 225.92 967.452 225.12C966.172 224.16 964.572 223.12 962.652 222C960.732 220.88 958.892 217.76 957.132 212.64ZM889.692 211.92C884.092 211.92 879.692 208.88 876.492 202.8C873.292 196.72 871.692 188.96 871.692 179.52C871.692 170.08 873.292 162.32 876.492 156.24C879.692 150 884.092 146.88 889.692 146.88C895.292 146.88 899.692 150 902.892 156.24C906.092 162.32 907.692 170.08 907.692 179.52C907.692 188.96 906.092 196.72 902.892 202.8C899.692 208.88 895.292 211.92 889.692 211.92Z" fill="#323232"/>
<path fill-rule="evenodd" clip-rule="evenodd" d="M1183.5 154.56C1183.5 180.8 1175.9 202.56 1160.7 219.84C1145.5 236.96 1124.3 245.52 1097.1 245.52C1085.42 245.52 1074.46 244.88 1064.22 243.6C1054.14 242.48 1046.94 241.28 1042.62 240L1036.14 238.32C1035.34 238.32 1034.94 237.84 1034.94 236.88V72.24C1034.94 71.28 1035.34 70.8 1036.14 70.8C1050.54 66.32 1070.86 64.08 1097.1 64.08C1122.7 64.08 1143.5 72.72 1159.5 90C1175.5 107.28 1183.5 128.8 1183.5 154.56ZM1087.74 90.24V219.12C1101.66 219.76 1112.22 213.6 1119.42 200.64C1126.78 187.68 1130.46 171.92 1130.46 153.36C1130.46 145.68 1129.58 138.08 1127.82 130.56C1126.22 123.04 1123.74 116 1120.38 109.44C1117.18 102.72 1112.7 97.6 1106.94 94.08C1101.34 90.4 1094.94 89.12 1087.74 90.24Z" fill="#323232"/>
<path fill-rule="evenodd" clip-rule="evenodd" d="M1303.32 226.8C1315.96 214.16 1322.28 198.64 1322.28 180.24C1322.28 162 1315.88 146.56 1303.08 133.92C1290.28 121.28 1274.28 114.96 1255.08 114.96C1235.88 114.96 1219.88 121.28 1207.08 133.92C1194.28 146.56 1187.88 162 1187.88 180.24C1187.88 198.48 1194.28 213.92 1207.08 226.56C1219.88 239.2 1235.88 245.52 1255.08 245.52C1274.6 245.52 1290.68 239.28 1303.32 226.8ZM1240.2 207.6C1236.84 200.24 1235.16 191.12 1235.16 180.24C1235.16 169.04 1236.76 159.92 1239.96 152.88C1243.32 145.68 1248.36 142.08 1255.08 142.08C1261.64 142.08 1266.6 145.68 1269.96 152.88C1273.32 160.08 1275 169.2 1275 180.24C1275 191.6 1273.4 200.8 1270.2 207.84C1267 214.88 1261.96 218.4 1255.08 218.4C1248.52 218.4 1243.56 214.8 1240.2 207.6Z" fill="#323232"/>
<path d="M1456.04 191.04C1456.04 198.08 1456.68 204 1457.96 208.8C1459.24 213.44 1460.68 216.72 1462.28 218.64C1464.04 220.4 1465.72 221.76 1467.32 222.72C1469.08 223.68 1470.44 224.48 1471.4 225.12C1472.36 225.76 1472.6 226.64 1472.12 227.76C1470.68 231.76 1467.08 235.6 1461.32 239.28C1455.56 242.8 1449.48 244.56 1443.08 244.56C1433.16 244.56 1424.76 241.28 1417.88 234.72C1411.16 228 1407.8 219.12 1407.8 208.08V161.52C1407.8 153.2 1405.4 148.56 1400.6 147.6C1395.96 146.8 1391.8 149.36 1388.12 155.28C1384.92 160.4 1383.32 166.72 1383.32 174.24V238.56C1383.32 239.36 1382.92 239.84 1382.12 240H1334.12C1333.48 239.84 1333.16 239.44 1333.16 238.8C1334.44 202.32 1335.08 178.56 1335.08 167.52C1335.08 158.88 1334.2 152 1332.44 146.88C1330.84 141.6 1329 138.4 1326.92 137.28C1325 136.16 1323.4 135.2 1322.12 134.4C1320.84 133.44 1320.44 132.32 1320.92 131.04C1322.2 126.88 1325.72 123.04 1331.48 119.52C1337.24 115.84 1343.32 114 1349.72 114C1358.2 114 1365.4 116.56 1371.32 121.68C1377.24 126.64 1381 133.44 1382.6 142.08C1387.56 132.48 1393.72 125.44 1401.08 120.96C1408.6 116.32 1415.96 114 1423.16 114C1432.44 114 1440.28 117.68 1446.68 125.04C1453.08 132.4 1456.28 141.92 1456.28 153.6C1456.28 156.32 1456.2 161.6 1456.04 169.44V191.04Z" fill="#323232"/>
<path fill-rule="evenodd" clip-rule="evenodd" d="M1592.94 206.64C1593.58 204.88 1593.34 203.6 1592.22 202.8C1591.26 202.16 1590.22 202.24 1589.1 203.04C1574.54 211.52 1560.3 214.88 1546.38 213.12C1532.62 211.36 1523.66 204.64 1519.5 192.96C1527.34 194.72 1535.66 195.28 1544.46 194.64C1553.42 194 1561.58 192.64 1568.94 190.56C1576.46 188.48 1582.62 184.48 1587.42 178.56C1592.38 172.48 1594.86 164.96 1594.86 156C1594.86 145.92 1589.9 136.48 1579.98 127.68C1570.22 118.72 1556.38 114.24 1538.46 114.24C1518.3 114.24 1501.82 120.64 1489.02 133.44C1476.38 146.08 1470.06 161.44 1470.06 179.52C1470.06 197.6 1476.38 213.04 1489.02 225.84C1501.82 238.64 1517.26 245.04 1535.34 245.04C1543.5 245.04 1551.26 243.52 1558.62 240.48C1565.98 237.6 1571.9 234 1576.38 229.68C1581.02 225.2 1584.7 220.96 1587.42 216.96C1590.3 212.96 1592.14 209.52 1592.94 206.64ZM1517.58 171.84C1518.7 157.44 1522.86 148.08 1530.06 143.76C1531.98 142.64 1533.9 141.92 1535.82 141.6H1536.54C1536.7 141.6 1536.78 141.52 1536.78 141.36C1540.46 141.2 1543.5 142.24 1545.9 144.48C1548.3 146.72 1549.5 149.52 1549.5 152.88C1549.5 159.6 1546.78 164.72 1541.34 168.24C1535.9 171.6 1527.98 172.8 1517.58 171.84Z" fill="#323232"/>
<path d="M1686.35 114.24C1694.19 114.24 1700.59 116.64 1705.55 121.44C1710.51 126.08 1712.99 132.64 1712.99 141.12C1712.99 150.72 1710.11 158.32 1704.35 163.92C1698.59 169.36 1691.47 172.08 1682.99 172.08C1680.43 172.08 1677.87 171.52 1675.31 170.4C1672.91 169.28 1671.47 168.24 1670.99 167.28C1670.51 166.64 1670.19 166 1670.03 165.36C1670.03 164.72 1670.11 163.76 1670.27 162.48C1670.43 161.04 1670.51 159.76 1670.51 158.64C1670.51 151.6 1668.83 148.08 1665.47 148.08C1660.03 148.08 1657.31 157.12 1657.31 175.2V238.8C1657.31 239.44 1656.99 239.84 1656.35 240H1608.11C1607.47 240 1607.15 239.6 1607.15 238.8C1608.43 202.48 1609.07 178.8 1609.07 167.76C1609.07 159.12 1608.19 152.24 1606.43 147.12C1604.83 141.84 1603.07 138.64 1601.15 137.52C1599.23 136.4 1597.55 135.44 1596.11 134.64C1594.83 133.68 1594.43 132.56 1594.91 131.28C1596.35 127.12 1599.95 123.28 1605.71 119.76C1611.47 116.08 1617.55 114.24 1623.95 114.24C1632.11 114.24 1639.07 116.56 1644.83 121.2C1650.59 125.84 1654.35 132.24 1656.11 140.4C1659.31 132.56 1663.63 126.24 1669.07 121.44C1674.67 116.64 1680.43 114.24 1686.35 114.24Z" fill="#323232"/>
<path d="M1297.68 101.103C1290.91 108.386 1280.63 109.832 1274.71 104.333C1268.8 98.8332 1269.49 88.4707 1276.26 81.1874C1283.03 73.9042 1293.31 72.4583 1299.23 77.9579C1305.15 83.4575 1304.45 93.82 1297.68 101.103Z" fill="#323232"/>
<path d="M1218.71 104.333C1224.63 109.832 1234.91 108.386 1241.68 101.103C1248.45 93.82 1249.15 83.4575 1243.23 77.9579C1237.31 72.4583 1227.03 73.9042 1220.26 81.1874C1213.49 88.4707 1212.8 98.8332 1218.71 104.333Z" fill="#323232"/>
</g>
<defs>
<radialGradient id="paint0_radial" cx="0" cy="0" r="1" gradientUnits="userSpaceOnUse" gradientTransform="translate(184.651 87.6586) scale(160.917)">
<stop stop-color="#781216"/>
<stop offset="1" stop-color="#240E0F"/>
</radialGradient>
<clipPath id="clip0">
<rect width="1744" height="360" fill="white"/>
</clipPath>
</defs>
</svg>
